<?xml version="1.0" encoding="UTF-8"?>
<!DOCTYPE svg PUBLIC "-//W3C//DTD SVG 1.1//EN" "http://www.w3.org/Graphics/SVG/1.1/DTD/svg11.dtd">
<svg xmlns="http://www.w3.org/2000/svg" version="1.1" width="1080px" height="1080px" style="shape-rendering:geometricPrecision; text-rendering:geometricPrecision; image-rendering:optimizeQuality; fill-rule:evenodd; clip-rule:evenodd" xmlns:xlink="http://www.w3.org/1999/xlink">
<g><path style="opacity:0.995" fill="#2b2a29" d="M 897.5,765.5 C 658.5,765.5 419.5,765.5 180.5,765.5C 180.333,612.833 180.5,460.166 181,307.5C 183.392,292.782 191.559,282.949 205.5,278C 309.499,277.5 413.499,277.333 517.5,277.5C 517.5,300.5 517.5,323.5 517.5,346.5C 448.833,346.333 380.166,346.5 311.5,347C 305.499,348.336 301.332,351.836 299,357.5C 298.333,394.167 298.333,430.833 299,467.5C 301.468,472.989 305.635,476.489 311.5,478C 336.833,478.667 362.167,478.667 387.5,478C 399.465,473.568 403.632,465.068 400,452.5C 397.668,446.836 393.501,443.336 387.5,442C 374.838,441.5 362.171,441.333 349.5,441.5C 349.5,418.5 349.5,395.5 349.5,372.5C 397.168,372.333 444.834,372.5 492.5,373C 504.693,377.193 512.859,385.359 517,397.5C 517.5,436.499 517.667,475.499 517.5,514.5C 531.833,514.5 546.167,514.5 560.5,514.5C 560.333,444.166 560.5,373.833 561,303.5C 564.694,291.141 572.527,282.641 584.5,278C 680.5,277.333 776.5,277.333 872.5,278C 885.502,282.336 893.669,291.17 897,304.5C 897.5,458.166 897.667,611.833 897.5,765.5 Z M 690.5,346.5 C 715.836,346.333 741.169,346.5 766.5,347C 773.696,348.863 778.196,353.363 780,360.5C 780.667,395.167 780.667,429.833 780,464.5C 778.536,471.964 774.036,476.464 766.5,478C 741.5,478.667 716.5,478.667 691.5,478C 684.152,476.909 679.652,472.743 678,465.5C 677.333,430.167 677.333,394.833 678,359.5C 679.646,352.688 683.813,348.354 690.5,346.5 Z"/></g>
<g><path style="opacity:1" fill="#fcfcfc" d="M 403.5,586.5 C 403.5,602.167 403.5,617.833 403.5,633.5C 380.5,633.5 357.5,633.5 334.5,633.5C 334.821,628.305 334.487,623.305 333.5,618.5C 332.32,615.155 329.987,612.989 326.5,612C 310.5,611.333 294.5,611.333 278.5,612C 275.417,612.786 273.251,614.619 272,617.5C 271.333,639.833 271.333,662.167 272,684.5C 272.807,687.973 274.973,690.14 278.5,691C 294.5,691.667 310.5,691.667 326.5,691C 330.847,689.82 333.18,686.987 333.5,682.5C 334.485,678.366 334.818,674.032 334.5,669.5C 357.833,669.5 381.167,669.5 404.5,669.5C 404.941,686.223 404.441,702.89 403,719.5C 400.33,726.835 395.163,731.335 387.5,733C 330.5,733.667 273.5,733.667 216.5,733C 209.206,730.042 204.373,724.876 202,717.5C 201.333,672.833 201.333,628.167 202,583.5C 204.833,578 209,573.833 214.5,571C 272.833,570.333 331.167,570.333 389.5,571C 397.501,573.177 402.168,578.343 403.5,586.5 Z"/></g>
<g><path style="opacity:1" fill="#fcfcfc" d="M 430.5,715.5 C 430.5,687.167 430.5,658.833 430.5,630.5C 453.833,630.5 477.167,630.5 500.5,630.5C 500.333,648.503 500.5,666.503 501,684.5C 501.807,687.973 503.973,690.14 507.5,691C 523.5,691.667 539.5,691.667 555.5,691C 558.196,690.31 560.363,688.81 562,686.5C 563.147,674.926 563.647,663.259 563.5,651.5C 563.647,639.741 563.147,628.074 562,616.5C 560.363,614.19 558.196,612.69 555.5,612C 513.835,611.5 472.168,611.333 430.5,611.5C 430.334,602.494 430.5,593.494 431,584.5C 433.415,578.417 437.582,573.917 443.5,571C 502.167,570.333 560.833,570.333 619.5,571C 626.428,573.594 630.928,578.427 633,585.5C 633.667,629.5 633.667,673.5 633,717.5C 630.376,725.793 624.876,730.959 616.5,733C 559.5,733.667 502.5,733.667 445.5,733C 437.41,729.748 432.41,723.915 430.5,715.5 Z"/></g>
<g><path style="opacity:1" fill="#fdfdfd" d="M 807.5,570.5 C 830.5,570.5 853.5,570.5 876.5,570.5C 876.5,618.833 876.5,667.167 876.5,715.5C 875.221,724.949 869.887,730.783 860.5,733C 850.833,733.667 841.167,733.667 831.5,733C 824.585,731.709 818.252,729.042 812.5,725C 785.321,701.921 757.987,679.087 730.5,656.5C 730.44,655.957 730.107,655.624 729.5,655.5C 728.5,681.158 728.167,706.825 728.5,732.5C 705.5,732.5 682.5,732.5 659.5,732.5C 659.333,683.166 659.5,633.832 660,584.5C 662.441,578.392 666.608,573.892 672.5,571C 685.881,570.097 699.214,570.43 712.5,572C 715.833,573.667 719.167,575.333 722.5,577C 750.646,600.312 778.646,623.812 806.5,647.5C 807.5,621.842 807.833,596.175 807.5,570.5 Z"/></g>
<g><path style="opacity:1" fill="#a2a2a1" d="M 807.5,570.5 C 830.661,569.502 853.994,569.169 877.5,569.5C 877.832,618.336 877.499,667.003 876.5,715.5C 876.5,667.167 876.5,618.833 876.5,570.5C 853.5,570.5 830.5,570.5 807.5,570.5 Z"/></g>
<g><path style="opacity:1" fill="#646362" d="M 500.5,630.5 C 477.167,630.5 453.833,630.5 430.5,630.5C 430.5,658.833 430.5,687.167 430.5,715.5C 429.502,687.005 429.169,658.338 429.5,629.5C 453.339,629.169 477.006,629.502 500.5,630.5 Z"/></g>
<g><path style="opacity:1" fill="#868585" d="M 403.5,586.5 C 404.496,602.325 404.83,618.325 404.5,634.5C 380.833,634.5 357.167,634.5 333.5,634.5C 333.5,629.167 333.5,623.833 333.5,618.5C 334.487,623.305 334.821,628.305 334.5,633.5C 357.5,633.5 380.5,633.5 403.5,633.5C 403.5,617.833 403.5,602.167 403.5,586.5 Z"/></g>
<g><path style="opacity:1" fill="#666565" d="M 404.5,669.5 C 381.167,669.5 357.833,669.5 334.5,669.5C 334.818,674.032 334.485,678.366 333.5,682.5C 333.5,677.833 333.5,673.167 333.5,668.5C 357.339,668.169 381.006,668.502 404.5,669.5 Z"/></g>
<g><path style="opacity:1" fill="#908f8f" d="M 730.5,656.5 C 729.502,681.995 729.169,707.661 729.5,733.5C 705.994,733.831 682.661,733.498 659.5,732.5C 682.5,732.5 705.5,732.5 728.5,732.5C 728.167,706.825 728.5,681.158 729.5,655.5C 730.107,655.624 730.44,655.957 730.5,656.5 Z"/></g>
<g><path style="opacity:1" fill="#78c2c8" d="M 180.5,765.5 C 419.5,765.5 658.5,765.5 897.5,765.5C 897.5,777.833 897.5,790.167 897.5,802.5C 658.5,802.5 419.5,802.5 180.5,802.5C 180.5,790.167 180.5,777.833 180.5,765.5 Z"/></g>
</svg>
