<?xml version="1.0" encoding="UTF-8"?>
<!DOCTYPE svg PUBLIC "-//W3C//DTD SVG 1.1//EN" "http://www.w3.org/Graphics/SVG/1.1/DTD/svg11.dtd">
<svg xmlns="http://www.w3.org/2000/svg" version="1.1" width="868px" height="171px" style="shape-rendering:geometricPrecision; text-rendering:geometricPrecision; image-rendering:optimizeQuality; fill-rule:evenodd; clip-rule:evenodd" xmlns:xlink="http://www.w3.org/1999/xlink">
<g><path style="opacity:0.789" fill="#383938" d="M 840.5,-0.5 C 845.167,-0.5 849.833,-0.5 854.5,-0.5C 856.769,0.97576 859.102,2.47576 861.5,4C 863.752,6.73612 865.752,9.56945 867.5,12.5C 867.5,17.1667 867.5,21.8333 867.5,26.5C 860.249,39.8225 849.583,43.3225 835.5,37C 825.847,28.6449 824.013,18.8115 830,7.5C 832.975,3.95246 836.475,1.2858 840.5,-0.5 Z M 857.5,31.5 C 849.27,38.4411 841.437,37.7744 834,29.5C 828.053,18.0075 830.886,9.50752 842.5,4C 852.129,2.06428 858.962,5.56428 863,14.5C 864.926,21.5931 863.093,27.2598 857.5,31.5 Z M 843.5,12.5 C 846.681,12.0016 849.347,12.8349 851.5,15C 849.331,17.2031 846.665,18.0365 843.5,17.5C 843.5,15.8333 843.5,14.1667 843.5,12.5 Z"/></g>
<g><path style="opacity:0.801" fill="#383938" d="M 857.5,31.5 C 855.076,31.8076 852.743,31.4742 850.5,30.5C 845.468,18.4445 843.135,18.7778 843.5,31.5C 841.833,31.5 840.167,31.5 838.5,31.5C 838.5,23.5 838.5,15.5 838.5,7.5C 842.514,7.33449 846.514,7.50115 850.5,8C 855.291,9.41193 857.124,12.5786 856,17.5C 855.07,19.5524 853.57,21.0524 851.5,22C 854.119,24.7839 856.119,27.9506 857.5,31.5 Z M 843.5,12.5 C 843.5,14.1667 843.5,15.8333 843.5,17.5C 846.665,18.0365 849.331,17.2031 851.5,15C 849.347,12.8349 846.681,12.0016 843.5,12.5 Z"/></g>
<g><path style="opacity:0.502" fill="#f01013" d="M 140.5,31.5 C 117.5,30.1667 94.5,30.1667 71.5,31.5C 72.6085,30.71 73.9419,30.21 75.5,30C 95.8333,29.3333 116.167,29.3333 136.5,30C 138.058,30.21 139.391,30.71 140.5,31.5 Z"/></g>
<g><path style="opacity:0.502" fill="#ee1215" d="M 190.5,30.5 C 198.343,29.1796 206.343,29.1796 214.5,30.5C 214.376,31.1067 214.043,31.44 213.5,31.5C 206.018,30.508 198.352,30.1746 190.5,30.5 Z"/></g>
<g><path style="opacity:0.502" fill="#f00f13" d="M 238.5,30.5 C 262.337,29.1712 286.337,29.1712 310.5,30.5C 310.376,31.1067 310.043,31.44 309.5,31.5C 286.006,30.5024 262.339,30.1691 238.5,30.5 Z"/></g>
<g><path style="opacity:0.502" fill="#ef1014" d="M 340.5,30.5 C 356.672,29.1732 373.005,29.1732 389.5,30.5C 389.376,31.1067 389.043,31.44 388.5,31.5C 372.675,30.5036 356.675,30.1703 340.5,30.5 Z"/></g>
<g><path style="opacity:0.502" fill="#f01013" d="M 410.5,30.5 C 434.328,29.5024 458.328,29.1691 482.5,29.5C 482.737,30.791 482.404,31.791 481.5,32.5C 458.19,30.51 434.524,29.8433 410.5,30.5 Z"/></g>
<g><path style="opacity:0.502" fill="#ef1114" d="M 503.5,30.5 C 510.989,29.3443 518.655,29.1777 526.5,30C 525.934,30.9947 525.267,31.828 524.5,32.5C 517.913,30.5388 510.913,29.8721 503.5,30.5 Z"/></g>
<g><path style="opacity:0.502" fill="#ef1114" d="M 714.5,30.5 C 722.343,29.1796 730.343,29.1796 738.5,30.5C 738.376,31.1067 738.043,31.44 737.5,31.5C 730.018,30.508 722.352,30.1746 714.5,30.5 Z"/></g>
<g><path style="opacity:0.502" fill="#ef1114" d="M 775.5,30.5 C 785.325,29.3417 795.325,29.1751 805.5,30C 804.956,30.7172 804.289,31.2172 803.5,31.5C 794.348,30.5064 785.015,30.1731 775.5,30.5 Z"/></g>
<g><path style="opacity:1" fill="#fe0101" d="M 140.5,31.5 C 145.787,32.0615 149.62,34.7281 152,39.5C 154.364,48.3975 153.698,57.0642 150,65.5C 138.819,89.1929 127.653,112.86 116.5,136.5C 114.952,136.821 114.285,137.821 114.5,139.5C 108.94,156.733 97.2735,166.733 79.5,169.5C 52.8121,170.158 26.4788,169.491 0.5,167.5C 20.0482,124.735 39.8816,82.0682 60,39.5C 62.9046,35.4179 66.7379,32.7513 71.5,31.5C 94.5,30.1667 117.5,30.1667 140.5,31.5 Z M 117.5,56.5 C 118.412,57.7382 118.579,59.0715 118,60.5C 105.712,87.3729 93.0454,114.04 80,140.5C 78.7292,141.883 77.2292,142.883 75.5,143.5C 65.0385,144.796 54.7052,144.796 44.5,143.5C 55.6154,122.267 65.9487,100.6 75.5,78.5C 76.4013,77.7095 77.0679,76.7095 77.5,75.5C 80.1642,69.5045 82.8308,63.5045 85.5,57.5C 95.9588,55.173 106.625,54.8397 117.5,56.5 Z"/></g>
<g><path style="opacity:1" fill="#fd0101" d="M 190.5,30.5 C 198.352,30.1746 206.018,30.508 213.5,31.5C 210.498,38.1711 207.498,44.8378 204.5,51.5C 202.952,51.8212 202.285,52.8212 202.5,54.5C 194.498,71.8378 186.498,89.1712 178.5,106.5C 176.952,106.821 176.285,107.821 176.5,109.5C 168.618,126.932 160.451,144.266 152,161.5C 148.975,166.038 144.809,168.704 139.5,169.5C 130.983,169.826 122.65,169.493 114.5,168.5C 134.048,125.735 153.882,83.0682 174,40.5C 177.859,34.4775 183.359,31.1442 190.5,30.5 Z"/></g>
<g><path style="opacity:1" fill="#fe0101" d="M 238.5,30.5 C 262.339,30.1691 286.006,30.5024 309.5,31.5C 309.567,32.9587 309.234,34.2921 308.5,35.5C 306.952,35.8212 306.285,36.8212 306.5,38.5C 304.571,46.0944 299.904,51.0944 292.5,53.5C 277.488,53.7626 262.821,54.7626 248.5,56.5C 244.498,65.1712 240.498,73.8378 236.5,82.5C 235.957,82.56 235.624,82.8933 235.5,83.5C 249.525,83.8432 263.191,84.8432 276.5,86.5C 276.567,87.9587 276.234,89.2921 275.5,90.5C 273.952,90.8212 273.285,91.8212 273.5,93.5C 271.27,100.462 266.604,104.962 259.5,107C 247.89,108.246 236.224,108.913 224.5,109C 218.964,120.573 213.297,132.073 207.5,143.5C 206.957,143.56 206.624,143.893 206.5,144.5C 223.187,144.841 239.521,145.841 255.5,147.5C 253.667,155.333 249.667,161.833 243.5,167C 241.35,168.411 239.016,169.245 236.5,169.5C 212.167,169.5 187.833,169.5 163.5,169.5C 163.5,168.5 163.5,167.5 163.5,166.5C 182.715,124.402 202.215,82.4016 222,40.5C 225.859,34.4775 231.359,31.1442 238.5,30.5 Z"/></g>
<g><path style="opacity:1" fill="#fe0101" d="M 340.5,30.5 C 356.675,30.1703 372.675,30.5036 388.5,31.5C 382.778,51.5477 369.445,59.7144 348.5,56C 345.453,56.5158 343.12,58.0158 341.5,60.5C 339.787,61.6354 339.12,63.302 339.5,65.5C 339.667,88.1691 339.5,110.836 339,133.5C 338.605,136.207 338.105,138.873 337.5,141.5C 335.896,142.287 335.229,143.62 335.5,145.5C 332.497,156.631 325.497,164.131 314.5,168C 312.26,168.977 309.927,169.477 307.5,169.5C 289.992,169.83 272.659,169.497 255.5,168.5C 261.78,147.84 275.78,139.673 297.5,144C 300.102,143.117 302.269,141.617 304,139.5C 305.225,132.245 305.892,124.911 306,117.5C 306.333,98.1667 306.667,78.8333 307,59.5C 310.561,41.109 321.727,31.4424 340.5,30.5 Z"/></g>
<g><path style="opacity:1" fill="#fe0001" d="M 410.5,30.5 C 434.524,29.8433 458.19,30.51 481.5,32.5C 479.389,41.1059 474.722,47.9392 467.5,53C 465.564,53.813 463.564,54.313 461.5,54.5C 447.459,53.8514 433.792,54.5181 420.5,56.5C 417.282,65.2681 413.282,73.6014 408.5,81.5C 407.596,82.209 407.263,83.209 407.5,84.5C 421.677,84.1709 435.677,84.5042 449.5,85.5C 447.279,94.47 442.279,101.303 434.5,106C 432.212,106.822 429.878,107.489 427.5,108C 417.167,108.333 406.833,108.667 396.5,109C 391.691,118.784 387.024,128.617 382.5,138.5C 380.952,138.821 380.285,139.821 380.5,141.5C 380.672,142.492 380.338,143.158 379.5,143.5C 378.957,143.56 378.624,143.893 378.5,144.5C 394.82,145.499 411.153,145.833 427.5,145.5C 427.5,146.5 427.5,147.5 427.5,148.5C 427.5,148.833 427.5,149.167 427.5,149.5C 425.952,149.821 425.285,150.821 425.5,152.5C 423.556,161.408 418.223,167.075 409.5,169.5C 384.477,170.157 359.811,169.49 335.5,167.5C 355.038,124.73 374.871,82.0638 395,39.5C 398.957,34.276 404.123,31.276 410.5,30.5 Z"/></g>
<g><path style="opacity:1" fill="#fe0101" d="M 503.5,30.5 C 510.913,29.8721 517.913,30.5388 524.5,32.5C 513.051,58.7332 501.051,84.7332 488.5,110.5C 486.952,110.821 486.285,111.821 486.5,113.5C 482.615,123.602 477.948,133.269 472.5,142.5C 471.596,143.209 471.263,144.209 471.5,145.5C 489.532,144.847 507.198,145.514 524.5,147.5C 522.667,155.333 518.667,161.833 512.5,167C 510.35,168.411 508.016,169.245 505.5,169.5C 479.833,169.5 454.167,169.5 428.5,169.5C 428.5,168.5 428.5,167.5 428.5,166.5C 447.715,124.402 467.215,82.4016 487,40.5C 490.859,34.4775 496.359,31.1442 503.5,30.5 Z"/></g>
<g><path style="opacity:1" fill="#fe0101" d="M 647.5,121.5 C 645.952,121.821 645.285,122.821 645.5,124.5C 641.317,135.866 635.817,146.532 629,156.5C 621.936,163.945 613.436,168.612 603.5,170.5C 587.167,170.5 570.833,170.5 554.5,170.5C 539.419,166.019 533.919,156.019 538,140.5C 551.894,108.826 566.56,77.4926 582,46.5C 588.432,36.5305 597.599,31.0305 609.5,30C 626.167,29.3333 642.833,29.3333 659.5,30C 671.638,30.9671 677.638,37.4671 677.5,49.5C 677.7,54.0357 676.867,58.369 675,62.5C 665.819,82.1929 656.653,101.86 647.5,121.5 Z M 615.5,54.5 C 624.221,54.2246 632.887,54.5579 641.5,55.5C 642.234,56.7079 642.567,58.0413 642.5,59.5C 629.937,86.2931 617.104,112.96 604,139.5C 602.786,141.049 601.286,142.215 599.5,143C 591.167,143.667 582.833,143.667 574.5,143C 573.422,142.326 572.755,141.326 572.5,140C 572.773,138.467 573.106,136.967 573.5,135.5C 574.401,134.71 575.068,133.71 575.5,132.5C 585.498,110.504 595.498,88.5045 605.5,66.5C 606.674,65.4863 607.34,64.153 607.5,62.5C 608.69,60.1307 610.357,58.1307 612.5,56.5C 613.71,56.0679 614.71,55.4013 615.5,54.5 Z"/></g>
<g><path style="opacity:1" fill="#fe0101" d="M 714.5,30.5 C 722.352,30.1746 730.018,30.508 737.5,31.5C 733.439,41.2894 729.105,50.9561 724.5,60.5C 722.952,60.8212 722.285,61.8212 722.5,63.5C 720.952,67.5977 719.119,71.5977 717,75.5C 716.333,76.5 716.333,77.5 717,78.5C 721.335,74.997 725.501,71.3303 729.5,67.5C 732.089,66.5806 734.089,64.914 735.5,62.5C 738.167,59.1667 741.167,56.1667 744.5,53.5C 746.749,52.9202 748.415,51.5869 749.5,49.5C 752.5,45.8333 755.833,42.5 759.5,39.5C 761.749,38.9202 763.415,37.5869 764.5,35.5C 767.289,32.117 770.955,30.4503 775.5,30.5C 785.015,30.1731 794.348,30.5064 803.5,31.5C 779.854,54.8122 756.188,78.1455 732.5,101.5C 734.828,122.427 736.494,143.427 737.5,164.5C 737.5,166.167 737.5,167.833 737.5,169.5C 731.5,169.5 725.5,169.5 719.5,169.5C 712.014,167.519 706.847,162.852 704,155.5C 702.172,142.245 701.338,128.912 701.5,115.5C 701.664,112.813 701.497,110.146 701,107.5C 700.59,108.901 700.09,110.234 699.5,111.5C 691.951,128.266 684.118,144.932 676,161.5C 672.975,166.038 668.809,168.704 663.5,169.5C 654.766,170.135 646.433,169.468 638.5,167.5C 658.322,125.188 678.155,82.8551 698,40.5C 701.859,34.4775 707.359,31.1442 714.5,30.5 Z"/></g>
<g><path style="opacity:0.624" fill="#ee1417" d="M 308.5,35.5 C 308.068,36.7095 307.401,37.7095 306.5,38.5C 306.285,36.8212 306.952,35.8212 308.5,35.5 Z"/></g>
<g><path style="opacity:0.812" fill="#f01214" d="M 764.5,35.5 C 763.415,37.5869 761.749,38.9202 759.5,39.5C 760.585,37.4131 762.251,36.0798 764.5,35.5 Z"/></g>
<g><path style="opacity:0.812" fill="#f11113" d="M 749.5,49.5 C 748.415,51.5869 746.749,52.9202 744.5,53.5C 745.585,51.4131 747.251,50.0798 749.5,49.5 Z"/></g>
<g><path style="opacity:0.624" fill="#ee1417" d="M 204.5,51.5 C 204.068,52.7095 203.401,53.7095 202.5,54.5C 202.285,52.8212 202.952,51.8212 204.5,51.5 Z"/></g>
<g><path style="opacity:0.765" fill="#f50b0d" d="M 615.5,54.5 C 623.656,53.3434 631.99,53.1768 640.5,54C 641.056,54.3826 641.389,54.8826 641.5,55.5C 632.887,54.5579 624.221,54.2246 615.5,54.5 Z"/></g>
<g><path style="opacity:0.757" fill="#f40b0d" d="M 117.5,56.5 C 106.625,54.8397 95.9588,55.173 85.5,57.5C 85.5,56.5 85.5,55.5 85.5,54.5C 95.8387,54.3335 106.172,54.5002 116.5,55C 117.056,55.3826 117.389,55.8826 117.5,56.5 Z"/></g>
<g><path style="opacity:0.749" fill="#f40c0e" d="M 292.5,53.5 C 291.737,54.2679 290.737,54.7679 289.5,55C 275.759,55.1845 262.092,55.6845 248.5,56.5C 262.821,54.7626 277.488,53.7626 292.5,53.5 Z"/></g>
<g><path style="opacity:0.752" fill="#f40b0e" d="M 461.5,54.5 C 447.932,55.1832 434.265,55.8499 420.5,56.5C 433.792,54.5181 447.459,53.8514 461.5,54.5 Z"/></g>
<g><path style="opacity:0.624" fill="#ee1417" d="M 615.5,54.5 C 614.71,55.4013 613.71,56.0679 612.5,56.5C 612.821,54.9519 613.821,54.2852 615.5,54.5 Z"/></g>
<g><path style="opacity:0.812" fill="#ee1417" d="M 641.5,55.5 C 642.586,55.62 643.253,56.2867 643.5,57.5C 643.457,58.4164 643.124,59.0831 642.5,59.5C 642.567,58.0413 642.234,56.7079 641.5,55.5 Z"/></g>
<g><path style="opacity:0.624" fill="#ee1417" d="M 724.5,60.5 C 724.068,61.7095 723.401,62.7095 722.5,63.5C 722.285,61.8212 722.952,60.8212 724.5,60.5 Z"/></g>
<g><path style="opacity:0.686" fill="#ed1417" d="M 341.5,60.5 C 341.204,62.403 340.537,64.0697 339.5,65.5C 339.12,63.302 339.787,61.6354 341.5,60.5 Z"/></g>
<g><path style="opacity:0.624" fill="#ee1417" d="M 607.5,62.5 C 607.34,64.153 606.674,65.4863 605.5,66.5C 605.229,64.6203 605.896,63.287 607.5,62.5 Z"/></g>
<g><path style="opacity:0.812" fill="#f11113" d="M 735.5,62.5 C 734.089,64.914 732.089,66.5806 729.5,67.5C 730.911,65.086 732.911,63.4194 735.5,62.5 Z"/></g>
<g><path style="opacity:0.624" fill="#ee1417" d="M 77.5,75.5 C 77.0679,76.7095 76.4013,77.7095 75.5,78.5C 75.2852,76.8212 75.9519,75.8212 77.5,75.5 Z"/></g>
<g><path style="opacity:0.188" fill="#e9171b" d="M 716.5,79.5 C 715.878,80.6266 715.045,81.6266 714,82.5C 713.481,80.5106 714.314,79.5106 716.5,79.5 Z"/></g>
<g><path style="opacity:0.502" fill="#f00f12" d="M 236.5,82.5 C 250.327,83.3311 264.327,83.8311 278.5,84C 277.934,84.9947 277.267,85.828 276.5,86.5C 263.191,84.8432 249.525,83.8432 235.5,83.5C 235.624,82.8933 235.957,82.56 236.5,82.5 Z"/></g>
<g><path style="opacity:0.502" fill="#f00f12" d="M 408.5,81.5 C 422.143,83.1571 436.143,84.1571 450.5,84.5C 450.376,85.1067 450.043,85.44 449.5,85.5C 435.677,84.5042 421.677,84.1709 407.5,84.5C 407.263,83.209 407.596,82.209 408.5,81.5 Z"/></g>
<g><path style="opacity:0.624" fill="#ee1417" d="M 275.5,90.5 C 275.068,91.7095 274.401,92.7095 273.5,93.5C 273.285,91.8212 273.952,90.8212 275.5,90.5 Z"/></g>
<g><path style="opacity:0.624" fill="#ee1417" d="M 178.5,106.5 C 178.068,107.71 177.401,108.71 176.5,109.5C 176.285,107.821 176.952,106.821 178.5,106.5 Z"/></g>
<g><path style="opacity:0.226" fill="#e61a1f" d="M 701.5,115.5 C 700.833,114.167 700.167,112.833 699.5,111.5C 700.09,110.234 700.59,108.901 701,107.5C 701.497,110.146 701.664,112.813 701.5,115.5 Z"/></g>
<g><path style="opacity:0.624" fill="#ee1417" d="M 488.5,110.5 C 488.068,111.71 487.401,112.71 486.5,113.5C 486.285,111.821 486.952,110.821 488.5,110.5 Z"/></g>
<g><path style="opacity:0.624" fill="#ee1417" d="M 647.5,121.5 C 647.068,122.71 646.401,123.71 645.5,124.5C 645.285,122.821 645.952,121.821 647.5,121.5 Z"/></g>
<g><path style="opacity:0.624" fill="#ee1417" d="M 575.5,132.5 C 575.068,133.71 574.401,134.71 573.5,135.5C 573.285,133.821 573.952,132.821 575.5,132.5 Z"/></g>
<g><path style="opacity:0.624" fill="#ee1417" d="M 116.5,136.5 C 116.068,137.71 115.401,138.71 114.5,139.5C 114.285,137.821 114.952,136.821 116.5,136.5 Z"/></g>
<g><path style="opacity:0.624" fill="#ee1417" d="M 382.5,138.5 C 382.068,139.71 381.401,140.71 380.5,141.5C 380.285,139.821 380.952,138.821 382.5,138.5 Z"/></g>
<g><path style="opacity:0.763" fill="#f50a0c" d="M 44.5,143.5 C 54.7052,144.796 65.0385,144.796 75.5,143.5C 75.3893,144.117 75.056,144.617 74.5,145C 64.1506,145.832 53.8172,145.666 43.5,144.5C 43.6236,143.893 43.9569,143.56 44.5,143.5 Z"/></g>
<g><path style="opacity:0.686" fill="#ef1215" d="M 337.5,141.5 C 337.34,143.153 336.674,144.486 335.5,145.5C 335.229,143.62 335.896,142.287 337.5,141.5 Z"/></g>
<g><path style="opacity:0.749" fill="#f50a0c" d="M 207.5,143.5 C 223.658,144.496 239.991,144.83 256.5,144.5C 256.737,145.791 256.404,146.791 255.5,147.5C 239.521,145.841 223.187,144.841 206.5,144.5C 206.624,143.893 206.957,143.56 207.5,143.5 Z"/></g>
<g><path style="opacity:0.752" fill="#f50b0d" d="M 379.5,143.5 C 395.995,144.332 412.662,144.832 429.5,145C 428.915,146.302 428.249,147.469 427.5,148.5C 427.5,147.5 427.5,146.5 427.5,145.5C 411.153,145.833 394.82,145.499 378.5,144.5C 378.624,143.893 378.957,143.56 379.5,143.5 Z"/></g>
<g><path style="opacity:0.749" fill="#f50a0c" d="M 472.5,142.5 C 489.802,144.486 507.468,145.153 525.5,144.5C 525.737,145.791 525.404,146.791 524.5,147.5C 507.198,145.514 489.532,144.847 471.5,145.5C 471.263,144.209 471.596,143.209 472.5,142.5 Z"/></g>
<g><path style="opacity:0.624" fill="#ee1417" d="M 427.5,149.5 C 427.068,150.71 426.401,151.71 425.5,152.5C 425.285,150.821 425.952,149.821 427.5,149.5 Z"/></g>
<g><path style="opacity:0.993" fill="#f7090a" d="M 335.5,167.5 C 359.811,169.49 384.477,170.157 409.5,169.5C 409.5,169.833 409.5,170.167 409.5,170.5C 384.167,170.5 358.833,170.5 333.5,170.5C 333.932,169.29 334.599,168.29 335.5,167.5 Z"/></g>
<g><path style="opacity:0.994" fill="#f7090a" d="M 428.5,166.5 C 428.5,167.5 428.5,168.5 428.5,169.5C 454.167,169.5 479.833,169.5 505.5,169.5C 505.5,169.833 505.5,170.167 505.5,170.5C 479.167,170.5 452.833,170.5 426.5,170.5C 426.989,169.005 427.655,167.671 428.5,166.5 Z"/></g>
<g><path style="opacity:0.99" fill="#f6090a" d="M -0.5,167.5 C -0.166667,167.5 0.166667,167.5 0.5,167.5C 26.4788,169.491 52.8121,170.158 79.5,169.5C 79.5,169.833 79.5,170.167 79.5,170.5C 52.8333,170.5 26.1667,170.5 -0.5,170.5C -0.5,169.5 -0.5,168.5 -0.5,167.5 Z"/></g>
<g><path style="opacity:0.984" fill="#f50b0d" d="M 114.5,168.5 C 122.65,169.493 130.983,169.826 139.5,169.5C 139.5,169.833 139.5,170.167 139.5,170.5C 130.833,170.5 122.167,170.5 113.5,170.5C 113.328,169.508 113.662,168.842 114.5,168.5 Z"/></g>
<g><path style="opacity:0.996" fill="#f6090a" d="M 163.5,166.5 C 163.5,167.5 163.5,168.5 163.5,169.5C 187.833,169.5 212.167,169.5 236.5,169.5C 236.5,169.833 236.5,170.167 236.5,170.5C 211.5,170.5 186.5,170.5 161.5,170.5C 161.66,168.847 162.326,167.514 163.5,166.5 Z"/></g>
<g><path style="opacity:0.992" fill="#f60a0b" d="M 255.5,168.5 C 272.659,169.497 289.992,169.83 307.5,169.5C 307.5,169.833 307.5,170.167 307.5,170.5C 289.833,170.5 272.167,170.5 254.5,170.5C 254.328,169.508 254.662,168.842 255.5,168.5 Z"/></g>
<g><path style="opacity:0.984" fill="#f50b0d" d="M 638.5,167.5 C 646.433,169.468 654.766,170.135 663.5,169.5C 663.5,169.833 663.5,170.167 663.5,170.5C 654.833,170.5 646.167,170.5 637.5,170.5C 637.263,169.209 637.596,168.209 638.5,167.5 Z"/></g>
<g><path style="opacity:0.987" fill="#f40d0f" d="M 737.5,164.5 C 738.461,166.265 738.795,168.265 738.5,170.5C 732.167,170.5 725.833,170.5 719.5,170.5C 719.5,170.167 719.5,169.833 719.5,169.5C 725.5,169.5 731.5,169.5 737.5,169.5C 737.5,167.833 737.5,166.167 737.5,164.5 Z"/></g>
</svg>
