<?xml version="1.0" encoding="UTF-8"?>
<!DOCTYPE svg PUBLIC "-//W3C//DTD SVG 1.1//EN" "http://www.w3.org/Graphics/SVG/1.1/DTD/svg11.dtd">
<svg xmlns="http://www.w3.org/2000/svg" version="1.1" width="842px" height="595px" style="shape-rendering:geometricPrecision; text-rendering:geometricPrecision; image-rendering:optimizeQuality; fill-rule:evenodd; clip-rule:evenodd" xmlns:xlink="http://www.w3.org/1999/xlink">
<g><path style="opacity:0.912" fill="#fcd105" d="M 312.5,114.5 C 326.171,114.333 339.837,114.5 353.5,115C 354.416,115.374 355.25,115.874 356,116.5C 356.526,121.789 356.026,126.956 354.5,132C 352.833,132.667 351.167,132.667 349.5,132C 345.326,122.886 338.66,120.386 329.5,124.5C 328.221,130.116 327.221,135.783 326.5,141.5C 332.175,142.756 336.508,140.923 339.5,136C 341.134,135.506 342.801,135.34 344.5,135.5C 344.659,142.221 343.659,148.721 341.5,155C 340.167,155.667 338.833,155.667 337.5,155C 335.067,150.004 331.067,148.171 325.5,149.5C 322.813,156.359 323.479,162.692 327.5,168.5C 326.96,169.748 326.293,170.915 325.5,172C 317.92,172.813 310.42,172.647 303,171.5C 302.333,170.167 302.333,168.833 303,167.5C 304.667,165.167 306.333,162.833 308,160.5C 309.593,149.679 311.093,138.846 312.5,128C 312.272,124.6 311.272,121.433 309.5,118.5C 309.787,116.557 310.787,115.223 312.5,114.5 Z"/></g>
<g><path style="opacity:0.912" fill="#fcd105" d="M 369.5,129.5 C 374.754,128.769 376.921,131.102 376,136.5C 378.839,132.499 382.672,130.166 387.5,129.5C 391.344,129.848 393.344,132.014 393.5,136C 391.795,144.969 387.295,146.802 380,141.5C 378.233,142.34 376.899,143.673 376,145.5C 373.447,154.044 371.447,162.71 370,171.5C 365.921,172.629 361.755,172.796 357.5,172C 356.884,170.6 356.551,169.1 356.5,167.5C 357.594,159.845 358.594,152.178 359.5,144.5C 358.637,140.84 358.137,137.173 358,133.5C 361.795,131.768 365.629,130.435 369.5,129.5 Z"/></g>
<g><path style="opacity:0.919" fill="#fcd105" d="M 407.5,129.5 C 410.885,128.79 413.219,129.956 414.5,133C 412.218,143.118 411.218,153.285 411.5,163.5C 414.973,164.695 417.806,163.695 420,160.5C 424.429,151.699 427.096,142.365 428,132.5C 432.257,130.31 436.757,129.477 441.5,130C 442.081,130.893 442.415,131.893 442.5,133C 440.858,142.82 439.691,152.653 439,162.5C 440.956,162.784 443.123,162.784 445.5,162.5C 445.314,168.799 441.981,172.299 435.5,173C 428.756,174.714 424.59,172.214 423,165.5C 416.582,173.396 408.748,175.23 399.5,171C 397.959,169.421 396.792,167.587 396,165.5C 395.647,158.293 396.147,151.126 397.5,144C 397.722,140.727 396.722,137.893 394.5,135.5C 394.968,133.866 395.968,132.7 397.5,132C 401.038,131.465 404.372,130.632 407.5,129.5 Z"/></g>
<g><path style="opacity:0.92" fill="#fcd105" d="M 462.5,129.5 C 468.58,129.075 470.747,131.742 469,137.5C 477.389,127.871 486.389,127.204 496,135.5C 501.092,149.635 497.592,161.135 485.5,170C 478.715,173.053 471.715,174.219 464.5,173.5C 463.954,174.772 463.621,176.106 463.5,177.5C 464.267,180.098 465.267,182.598 466.5,185C 466.415,186.107 466.081,187.107 465.5,188C 459.277,189.581 452.944,189.915 446.5,189C 444.82,188.653 443.82,187.653 443.5,186C 445.798,182.713 447.632,179.213 449,175.5C 450.5,165 452,154.5 453.5,144C 453.023,141.171 452.023,138.505 450.5,136C 450.78,134.605 451.447,133.438 452.5,132.5C 456.02,131.74 459.353,130.74 462.5,129.5 Z M 476.5,138.5 C 481.565,138.574 483.898,141.241 483.5,146.5C 483.249,153.766 480.582,159.932 475.5,165C 472.253,167.138 469.419,166.638 467,163.5C 465.741,153.372 468.908,145.038 476.5,138.5 Z"/></g>
<g><path style="opacity:0.898" fill="#fcd105" d="M 518.5,129.5 C 524.678,129.107 530.678,129.94 536.5,132C 541.806,136.908 541.139,140.741 534.5,143.5C 530.497,141.161 526.497,138.828 522.5,136.5C 517.952,136.858 516.618,139.024 518.5,143C 523.833,145 529.167,147 534.5,149C 541.204,155.882 540.87,162.549 533.5,169C 521.892,175.483 510.726,174.983 500,167.5C 497.995,160.51 500.495,157.676 507.5,159C 510.292,163.13 514.125,165.63 519,166.5C 525.22,165.72 526.386,163.22 522.5,159C 517.757,157.53 513.091,155.864 508.5,154C 502.884,148.914 502.051,143.081 506,136.5C 509.739,133.219 513.905,130.885 518.5,129.5 Z"/></g>
<g><path style="opacity:0.779" fill="#fcd105" d="M 141.5,160.5 C 191.833,160.5 242.167,160.5 292.5,160.5C 292.5,161.5 292.5,162.5 292.5,163.5C 243.832,163.333 195.166,163.5 146.5,164C 106.126,169.708 81.9589,192.542 74,232.5C 71.209,268.423 85.3757,295.256 116.5,313C 123.227,316.131 130.227,318.464 137.5,320C 166.134,321.441 194.801,321.941 223.5,321.5C 223.5,322.5 223.5,323.5 223.5,324.5C 195.831,324.667 168.165,324.5 140.5,324C 106.565,317.733 84.0646,298.233 73,265.5C 63.625,219.752 79.7916,186.585 121.5,166C 128.208,163.826 134.875,161.993 141.5,160.5 Z"/></g>
<g><path style="opacity:0.78" fill="#fcd105" d="M 548.5,160.5 C 603.533,160.025 658.533,160.525 713.5,162C 749.445,171.277 770.945,194.11 778,230.5C 781.533,261.244 771.7,286.744 748.5,307C 736.625,315.933 723.292,321.6 708.5,324C 680.502,324.5 652.502,324.667 624.5,324.5C 624.5,323.5 624.5,322.5 624.5,321.5C 651.169,321.667 677.835,321.5 704.5,321C 744.212,314.288 767.712,291.122 775,251.5C 777.043,217.751 763.877,191.918 735.5,174C 725.17,168.445 714.17,165.112 702.5,164C 651.168,163.5 599.834,163.333 548.5,163.5C 548.5,162.5 548.5,161.5 548.5,160.5 Z"/></g>
<g><path style="opacity:0.953" fill="#fcd105" d="M 244.5,208.5 C 250.191,208.473 255.025,210.473 259,214.5C 267.318,231.136 275.651,247.802 284,264.5C 285.011,265.337 286.178,265.67 287.5,265.5C 290.782,247.091 294.448,228.758 298.5,210.5C 305.134,209.503 311.8,209.17 318.5,209.5C 314.476,233.622 309.809,257.622 304.5,281.5C 295.518,282.665 286.518,282.832 277.5,282C 274.098,280.6 271.264,278.433 269,275.5C 261.352,258.201 252.686,241.534 243,225.5C 238.502,243.983 234.502,262.649 231,281.5C 224.256,282.479 217.422,282.812 210.5,282.5C 215.166,258.168 219.833,233.834 224.5,209.5C 231.354,209.824 238.021,209.491 244.5,208.5 Z"/></g>
<g><path style="opacity:0.962" fill="#fcd105" d="M 332.5,208.5 C 361.153,209.274 389.819,209.774 418.5,210C 416.927,215.03 415.927,220.197 415.5,225.5C 393.167,225.5 370.833,225.5 348.5,225.5C 347.833,229.5 347.167,233.5 346.5,237.5C 367.836,237.333 389.169,237.5 410.5,238C 409.251,242.239 408.251,246.573 407.5,251C 407.245,252.326 406.578,253.326 405.5,254C 384.503,254.5 363.503,254.667 342.5,254.5C 342.058,258.154 341.724,261.821 341.5,265.5C 364.144,266.136 386.811,266.803 409.5,267.5C 408.115,272.424 407.115,277.424 406.5,282.5C 382.498,282.667 358.498,282.5 334.5,282C 325.775,279.24 321.108,273.24 320.5,264C 323.689,245.214 327.689,226.714 332.5,208.5 Z"/></g>
<g><path style="opacity:0.958" fill="#fcd105" d="M 581.5,208.5 C 596.819,209.314 612.152,209.648 627.5,209.5C 626.885,214.576 625.885,219.576 624.5,224.5C 600.086,225.019 575.753,225.852 551.5,227C 548.007,239.633 545.34,252.466 543.5,265.5C 560.809,266.61 578.142,266.777 595.5,266C 596.5,262.333 597.5,258.667 598.5,255C 589.506,254.5 580.506,254.334 571.5,254.5C 572.372,248.809 573.372,243.142 574.5,237.5C 590.514,237.167 606.514,237.501 622.5,238.5C 619.244,253.115 616.244,267.782 613.5,282.5C 587.831,282.667 562.165,282.5 536.5,282C 525.391,277.62 521.225,269.453 524,257.5C 525.872,247.806 527.872,238.139 530,228.5C 533.566,219.268 540.066,213.101 549.5,210C 560.341,209.83 571.008,209.33 581.5,208.5 Z"/></g>
<g><path style="opacity:0.963" fill="#fcd105" d="M 126.5,209.5 C 155.5,209.5 184.5,209.5 213.5,209.5C 212.823,214.563 211.823,219.563 210.5,224.5C 188.268,225.172 166.101,225.838 144,226.5C 143.416,230.095 142.582,233.595 141.5,237C 162.831,237.5 184.164,237.667 205.5,237.5C 204.862,242.19 204.029,246.856 203,251.5C 202.5,252.667 201.667,253.5 200.5,254C 179.825,254.167 159.159,254.667 138.5,255.5C 137.771,257.976 137.104,260.476 136.5,263C 136.82,264.653 137.82,265.653 139.5,266C 161.164,266.5 182.831,266.667 204.5,266.5C 203.885,271.576 202.885,276.576 201.5,281.5C 177.507,282.666 153.507,282.833 129.5,282C 120.684,279.013 116.35,272.846 116.5,263.5C 119.449,245.421 122.783,227.421 126.5,209.5 Z"/></g>
<g><path style="opacity:0.958" fill="#fcd105" d="M 429.5,209.5 C 455.169,209.333 480.835,209.5 506.5,210C 517.321,214.136 521.488,221.969 519,233.5C 518.422,246.838 512.589,257.005 501.5,264C 504.167,270 506.833,276 509.5,282C 501.833,282.667 494.167,282.667 486.5,282C 483.598,277.631 481.264,272.965 479.5,268C 465.837,267.5 452.171,267.333 438.5,267.5C 437.756,272.219 436.756,276.886 435.5,281.5C 428.866,282.497 422.2,282.83 415.5,282.5C 419.91,258.119 424.576,233.785 429.5,209.5 Z M 445.5,229.5 C 463.167,229.5 480.833,229.5 498.5,229.5C 498.122,234.894 497.288,240.227 496,245.5C 495.727,247.329 494.893,248.829 493.5,250C 476.503,250.5 459.503,250.667 442.5,250.5C 443.63,243.518 444.63,236.518 445.5,229.5 Z"/></g>
<g><path style="opacity:0.958" fill="#fcd105" d="M 638.5,209.5 C 645.532,209.17 652.532,209.503 659.5,210.5C 657.644,218.281 655.977,226.114 654.5,234C 654.585,235.107 654.919,236.107 655.5,237C 672.83,237.5 690.163,237.667 707.5,237.5C 708.909,228.12 710.576,218.787 712.5,209.5C 719.167,209.5 725.833,209.5 732.5,209.5C 729.451,227.577 725.951,245.577 722,263.5C 718.224,273.609 711.057,279.776 700.5,282C 675.169,282.5 649.836,282.667 624.5,282.5C 625.5,277.167 626.5,271.833 627.5,266.5C 650.502,266.667 673.502,266.5 696.5,266C 698.101,265.727 699.601,265.227 701,264.5C 702.278,261.279 703.111,257.946 703.5,254.5C 686.163,254.667 668.83,254.5 651.5,254C 640.419,252.754 634.752,246.587 634.5,235.5C 635.447,226.765 636.781,218.099 638.5,209.5 Z"/></g>
<g><path style="opacity:0.791" fill="#fcd105" d="M 266.5,308.5 C 270.605,308.234 274.605,308.734 278.5,310C 280.107,311.049 280.773,312.549 280.5,314.5C 276.192,313.632 271.859,313.466 267.5,314C 260.68,318.461 259.18,324.294 263,331.5C 265.529,334.348 268.695,336.015 272.5,336.5C 275.333,335.067 278.333,334.4 281.5,334.5C 281.703,336.39 281.037,337.89 279.5,339C 261.215,343.048 253.715,335.881 257,317.5C 259.256,313.47 262.422,310.47 266.5,308.5 Z"/></g>
<g><path style="opacity:0.799" fill="#fcd105" d="M 313.5,308.5 C 328.477,307.644 334.977,314.644 333,329.5C 327.832,340.447 319.665,343.28 308.5,338C 299.167,329 299.167,320 308.5,311C 310.315,310.243 311.981,309.41 313.5,308.5 Z M 313.5,313.5 C 327.059,313.569 331.226,319.902 326,332.5C 316.138,338.594 309.638,335.927 306.5,324.5C 307.099,319.615 309.432,315.948 313.5,313.5 Z"/></g>
<g><path style="opacity:0.809" fill="#fcd105" d="M 367.5,308.5 C 371.712,308.078 375.712,308.744 379.5,310.5C 380.429,311.689 380.762,313.022 380.5,314.5C 366.541,310.309 360.374,315.309 362,329.5C 364.212,333.694 367.712,336.028 372.5,336.5C 375.333,335.067 378.333,334.4 381.5,334.5C 381.703,336.39 381.037,337.89 379.5,339C 362.469,342.635 354.969,335.802 357,318.5C 359.106,313.557 362.606,310.224 367.5,308.5 Z"/></g>
<g><path style="opacity:0.772" fill="#fcd105" d="M 406.5,308.5 C 407.822,308.33 408.989,308.663 410,309.5C 410.333,313.833 410.667,318.167 411,322.5C 414.799,317.699 418.966,313.199 423.5,309C 426.091,308.699 426.925,309.866 426,312.5C 422.85,316.617 419.35,320.451 415.5,324C 419.702,327.867 423.535,332.033 427,336.5C 427.833,339.667 426.667,340.833 423.5,340C 419.333,335.167 415.167,330.333 411,325.5C 410.667,330.167 410.333,334.833 410,339.5C 408.667,340.833 407.333,340.833 406,339.5C 405.192,329.09 405.359,318.757 406.5,308.5 Z"/></g>
<g><path style="opacity:0.804" fill="#fcd105" d="M 503.5,308.5 C 504.822,308.33 505.989,308.663 507,309.5C 510.667,318.167 514.333,326.833 518,335.5C 518.494,337.134 518.66,338.801 518.5,340.5C 517.022,340.762 515.689,340.429 514.5,339.5C 513.26,336.607 511.926,333.773 510.5,331C 506.5,330.333 502.5,330.333 498.5,331C 496.765,333.637 495.432,336.47 494.5,339.5C 493.311,340.429 491.978,340.762 490.5,340.5C 490.34,338.801 490.506,337.134 491,335.5C 494.697,326.224 498.864,317.224 503.5,308.5 Z M 503.5,317.5 C 506.129,319.394 507.795,322.06 508.5,325.5C 505.833,326.833 503.167,326.833 500.5,325.5C 501.513,322.812 502.513,320.146 503.5,317.5 Z"/></g>
<g><path style="opacity:0.77" fill="#fcd105" d="M 544.5,308.5 C 545.822,308.33 546.989,308.663 548,309.5C 548.667,319.5 548.667,329.5 548,339.5C 546.667,340.833 545.333,340.833 544,339.5C 543.192,329.09 543.359,318.757 544.5,308.5 Z"/></g>
<g><path style="opacity:0.838" fill="#fcd105" d="M 577.5,308.5 C 578.5,308.5 579.5,308.5 580.5,308.5C 580.5,317.5 580.5,326.5 580.5,335.5C 585.5,335.5 590.5,335.5 595.5,335.5C 595.714,337.144 595.38,338.644 594.5,340C 588.584,340.807 582.75,340.641 577,339.5C 576.192,329.09 576.359,318.757 577.5,308.5 Z"/></g>
<g><path style="opacity:0.82" fill="#fcd105" d="M 447.5,309.5 C 456.167,309.5 464.833,309.5 473.5,309.5C 473.67,310.822 473.337,311.989 472.5,313C 469.518,313.498 466.518,313.665 463.5,313.5C 463.666,321.84 463.5,330.173 463,338.5C 462.047,340.592 460.714,340.925 459,339.5C 458.5,330.84 458.334,322.173 458.5,313.5C 455.15,313.665 451.817,313.498 448.5,313C 447.663,311.989 447.33,310.822 447.5,309.5 Z"/></g>
</svg>
