<?xml version="1.0" encoding="UTF-8"?>
<!DOCTYPE svg PUBLIC "-//W3C//DTD SVG 1.1//EN" "http://www.w3.org/Graphics/SVG/1.1/DTD/svg11.dtd">
<svg xmlns="http://www.w3.org/2000/svg" version="1.1" width="883px" height="882px" style="shape-rendering:geometricPrecision; text-rendering:geometricPrecision; image-rendering:optimizeQuality; fill-rule:evenodd; clip-rule:evenodd" xmlns:xlink="http://www.w3.org/1999/xlink">
<g><path style="opacity:0.949" fill="#000000" d="M 86.5,388.5 C 101.533,386.176 115.199,389.343 127.5,398C 129.448,399.439 130.781,401.272 131.5,403.5C 129.897,406.28 128.063,408.946 126,411.5C 124.561,413.448 122.728,414.781 120.5,415.5C 114.919,411.877 108.919,409.044 102.5,407C 80.7647,406.229 68.7647,416.729 66.5,438.5C 67.5189,453.685 75.1855,463.852 89.5,469C 94.5,469.667 99.5,469.667 104.5,469C 110.176,467.139 115.509,464.639 120.5,461.5C 124.415,463.907 127.915,466.907 131,470.5C 132.176,474.26 131.01,477.093 127.5,479C 109.655,491.183 90.9882,492.517 71.5,483C 45.7419,464.807 39.5752,441.307 53,412.5C 61.0037,399.984 72.1704,391.984 86.5,388.5 Z"/></g>
<g><path style="opacity:0.948" fill="#000000" d="M 179.5,388.5 C 181.604,388.201 183.604,388.534 185.5,389.5C 199.94,420.047 214.107,450.714 228,481.5C 228.495,483.473 228.662,485.473 228.5,487.5C 222.491,487.666 216.491,487.499 210.5,487C 207.562,481.791 204.895,476.457 202.5,471C 188.833,470.333 175.167,470.333 161.5,471C 159.105,476.457 156.438,481.791 153.5,487C 147.509,487.499 141.509,487.666 135.5,487.5C 135.421,484.729 135.921,482.063 137,479.5C 151.181,449.14 165.347,418.807 179.5,388.5 Z M 181.5,424.5 C 185.811,433.731 190.145,443.064 194.5,452.5C 186.167,453.833 177.833,453.833 169.5,452.5C 173.701,443.225 177.701,433.891 181.5,424.5 Z"/></g>
<g><path style="opacity:0.95" fill="#009e0e" d="M 366.5,388.5 C 397.871,385.748 417.705,399.414 426,429.5C 429.129,459.674 416.296,479.174 387.5,488C 356.796,492.267 336.63,479.767 327,450.5C 322.779,418.583 335.946,397.916 366.5,388.5 Z M 369.5,407.5 C 388.577,406.092 401.077,414.425 407,432.5C 409.036,449.108 402.536,460.941 387.5,468C 368.993,472.83 355.493,466.663 347,449.5C 342.175,428.813 349.675,414.813 369.5,407.5 Z"/></g>
<g><path style="opacity:0.95" fill="#000000" d="M 454.5,388.5 C 457.119,388.232 459.619,388.565 462,389.5C 471.91,410.986 482.077,432.319 492.5,453.5C 502.923,432.319 513.09,410.986 523,389.5C 525.381,388.565 527.881,388.232 530.5,388.5C 536.548,421.121 542.048,453.787 547,486.5C 541,487.833 535,487.833 529,486.5C 526.001,469.176 523.001,451.842 520,434.5C 512.023,452.768 503.857,470.934 495.5,489C 492.653,489.944 490.153,489.444 488,487.5C 480.274,469.715 472.274,452.048 464,434.5C 461.333,451.833 458.667,469.167 456,486.5C 450,487.833 444,487.833 438,486.5C 442.738,453.74 448.238,421.073 454.5,388.5 Z"/></g>
<g><path style="opacity:0.951" fill="#fbcc00" d="M 598.5,388.5 C 634.522,386.2 654.856,402.866 659.5,438.5C 656.155,472.346 637.489,489.179 603.5,489C 570.868,482.596 556.035,462.763 559,429.5C 563.904,407.765 577.07,394.098 598.5,388.5 Z M 602.5,407.5 C 619.081,405.945 630.914,412.612 638,427.5C 642.829,446.01 636.662,459.51 619.5,468C 598.349,473.009 584.516,465.176 578,444.5C 576.684,425.781 584.85,413.447 602.5,407.5 Z"/></g>
<g><path style="opacity:0.952" fill="#fe0000" d="M 777.5,388.5 C 799.41,385.628 816.91,392.962 830,410.5C 840.289,430.066 839.956,449.399 829,468.5C 814.135,486.455 795.302,492.621 772.5,487C 755.333,481.833 744.167,470.667 739,453.5C 733.013,420.386 745.846,398.719 777.5,388.5 Z M 780.5,407.5 C 799.305,405.811 811.805,413.811 818,431.5C 820.302,454.222 810.136,467.222 787.5,470.5C 765.667,467.156 755.5,454.489 757,432.5C 760.581,420.088 768.414,411.755 780.5,407.5 Z"/></g>
<g><path style="opacity:0.957" fill="#000000" d="M 241.5,389.5 C 257.503,389.333 273.503,389.5 289.5,390C 307.945,395.79 315.778,408.29 313,427.5C 309.338,436.828 303.171,443.995 294.5,449C 300.198,460.23 306.032,471.396 312,482.5C 312.494,484.134 312.66,485.801 312.5,487.5C 305.825,487.666 299.158,487.5 292.5,487C 286.206,474.911 280.039,462.745 274,450.5C 269.263,449.531 264.43,449.197 259.5,449.5C 259.667,461.838 259.5,474.171 259,486.5C 253,487.833 247,487.833 241,486.5C 240.175,454.095 240.341,421.762 241.5,389.5 Z M 259.5,407.5 C 268.173,407.334 276.84,407.5 285.5,408C 294.68,412.564 296.847,419.397 292,428.5C 290.269,430.617 288.102,432.117 285.5,433C 276.84,433.5 268.173,433.666 259.5,433.5C 259.5,424.833 259.5,416.167 259.5,407.5 Z"/></g>
<g><path style="opacity:0.955" fill="#000000" d="M 665.5,389.5 C 687.169,389.333 708.836,389.5 730.5,390C 731.806,395.446 731.806,400.946 730.5,406.5C 722.89,407.467 715.223,407.8 707.5,407.5C 707.667,433.835 707.5,460.169 707,486.5C 701,487.833 695,487.833 689,486.5C 688.5,460.169 688.333,433.835 688.5,407.5C 680.777,407.8 673.11,407.467 665.5,406.5C 664.215,400.78 664.215,395.113 665.5,389.5 Z"/></g>
</svg>
