<?xml version="1.0" encoding="UTF-8"?>
<!DOCTYPE svg PUBLIC "-//W3C//DTD SVG 1.1//EN" "http://www.w3.org/Graphics/SVG/1.1/DTD/svg11.dtd">
<svg xmlns="http://www.w3.org/2000/svg" version="1.1" width="1000px" height="1000px" style="shape-rendering:geometricPrecision; text-rendering:geometricPrecision; image-rendering:optimizeQuality; fill-rule:evenodd; clip-rule:evenodd" xmlns:xlink="http://www.w3.org/1999/xlink">
<g><path style="opacity:0.999" fill="#fd0000" d="M 48.5,-0.5 C 348.167,-0.5 647.833,-0.5 947.5,-0.5C 975.131,6.46456 992.465,23.7979 999.5,51.5C 999.5,349.5 999.5,647.5 999.5,945.5C 992.5,974.5 974.5,992.5 945.5,999.5C 647.5,999.5 349.5,999.5 51.5,999.5C 23.7979,992.465 6.46456,975.131 -0.5,947.5C -0.5,647.833 -0.5,348.167 -0.5,48.5C 6.83333,23.1667 23.1667,6.83333 48.5,-0.5 Z"/></g>
<g><path style="opacity:1" fill="#fefbfb" d="M 477.5,80.5 C 571.386,77.5418 648.22,111.875 708,183.5C 716.486,194.495 723.986,206.162 730.5,218.5C 743.806,219.729 757.14,220.562 770.5,221C 779.34,223.823 785.84,229.323 790,237.5C 816.546,313.02 815.879,388.353 788,463.5C 784.904,470.266 779.737,474.432 772.5,476C 754.527,477.515 736.527,477.848 718.5,477C 712.205,474.575 710.038,470.075 712,463.5C 745.928,395.818 749.594,326.484 723,255.5C 678.099,158.273 601.932,107.94 494.5,104.5C 404.861,107.409 336.027,146.409 288,221.5C 248.365,290.069 242.032,361.736 269,436.5C 272.725,445.618 276.725,454.618 281,463.5C 282.461,474.366 277.628,478.866 266.5,477C 251.5,477.667 236.5,477.667 221.5,477C 216.036,475.186 211.536,472.02 208,467.5C 177.383,391.813 175.717,315.48 203,238.5C 206.984,229.849 213.484,224.015 222.5,221C 235.848,220.378 249.182,219.545 262.5,218.5C 311.132,136.911 382.799,90.9111 477.5,80.5 Z"/></g>
<g><path style="opacity:1" fill="#fefdfd" d="M 397.5,220.5 C 435.52,216.951 468.52,227.951 496.5,253.5C 537.769,216.943 583.435,210.443 633.5,234C 671.69,256.418 692.024,289.918 694.5,334.5C 694.164,361.529 685.998,385.862 670,407.5C 620.528,457.972 570.694,508.139 520.5,558C 502.734,568.827 485.734,567.827 469.5,555C 423.333,508.833 377.167,462.667 331,416.5C 300.561,381.226 292.228,341.226 306,296.5C 323.371,255.29 353.871,229.957 397.5,220.5 Z"/></g>
<g><path style="opacity:1" fill="#fd0302" d="M 420.5,295.5 C 434.654,294.58 447.988,297.414 460.5,304C 471.276,312.623 483.276,318.79 496.5,322.5C 500.327,322.392 503.993,321.558 507.5,320C 517.006,315.083 526.006,309.417 534.5,303C 558.432,290.638 580.266,293.471 600,311.5C 611.254,327.142 613.587,344.142 607,362.5C 604.502,368.99 601.168,374.99 597,380.5C 567.167,409.667 537.333,438.833 507.5,468C 500.5,472.667 493.5,472.667 486.5,468C 455.667,437.833 424.833,407.667 394,377.5C 377.132,352.445 378.966,328.945 399.5,307C 405.985,302.094 412.985,298.26 420.5,295.5 Z"/></g>
<g><path style="opacity:1" fill="#fefbfb" d="M 403.5,644.5 C 439.772,643.036 465.272,658.702 480,691.5C 489.387,725.678 479.887,753.178 451.5,774C 413.025,793.834 380.858,786.668 355,752.5C 342.594,730.187 341.261,707.187 351,683.5C 362.835,662.837 380.335,649.837 403.5,644.5 Z"/></g>
<g><path style="opacity:1" fill="#fffbfb" d="M 263.5,692.5 C 263.5,712.5 263.5,732.5 263.5,752.5C 275.833,752.5 288.167,752.5 300.5,752.5C 311.172,752.333 321.839,752.5 332.5,753C 334.57,753.948 336.07,755.448 337,757.5C 337.667,764.5 337.667,771.5 337,778.5C 336.215,780.286 335.049,781.786 333.5,783C 301.5,783.667 269.5,783.667 237.5,783C 235.274,781.773 233.774,779.939 233,777.5C 232.333,735.833 232.333,694.167 233,652.5C 234.167,650 236,648.167 238.5,647C 244.833,646.333 251.167,646.333 257.5,647C 259.624,648.122 261.457,649.622 263,651.5C 263.5,665.163 263.667,678.829 263.5,692.5 Z"/></g>
<g><path style="opacity:1" fill="#fefbfa" d="M 609.5,645.5 C 616.826,646.022 624.159,646.522 631.5,647C 632.416,647.374 633.25,647.874 634,648.5C 634.667,651.167 634.667,653.833 634,656.5C 613.333,697.167 592.667,737.833 572,778.5C 564.956,785.689 557.289,786.356 549,780.5C 527.156,738.812 505.822,696.812 485,654.5C 483.959,651.364 484.793,648.864 487.5,647C 496.167,646.333 504.833,646.333 513.5,647C 515.624,648.122 517.457,649.622 519,651.5C 532.667,678.167 546.333,704.833 560,731.5C 573.767,706.3 586.767,680.634 599,654.5C 601.468,650.199 604.968,647.199 609.5,645.5 Z"/></g>
<g><path style="opacity:1" fill="#fefbfb" d="M 661.5,646.5 C 692.835,646.333 724.168,646.5 755.5,647C 757.286,647.785 758.786,648.951 760,650.5C 761.591,657.392 761.924,664.392 761,671.5C 759.859,673.609 758.359,675.442 756.5,677C 733.509,677.956 710.509,678.456 687.5,678.5C 687.5,685.5 687.5,692.5 687.5,699.5C 705.17,699.333 722.836,699.5 740.5,700C 746.585,703.174 748.919,708.174 747.5,715C 748.68,721.966 746.347,727.299 740.5,731C 722.836,731.5 705.17,731.667 687.5,731.5C 687.5,738.5 687.5,745.5 687.5,752.5C 710.169,752.333 732.836,752.5 755.5,753C 757.709,754.873 759.542,757.04 761,759.5C 761.667,765.5 761.667,771.5 761,777.5C 759.859,779.609 758.359,781.442 756.5,783C 724.5,783.667 692.5,783.667 660.5,783C 659.333,781.833 658.167,780.667 657,779.5C 655.549,737.176 655.215,694.843 656,652.5C 658.04,650.63 659.873,648.63 661.5,646.5 Z"/></g>
<g><path style="opacity:1" fill="#fd0804" d="M 402.5,677.5 C 427.078,673.525 443.245,683.192 451,706.5C 452.492,738.341 437.326,753.508 405.5,752C 383.183,744.558 373.683,729.058 377,705.5C 378.834,698.346 382.334,692.179 387.5,687C 392.227,683.309 397.227,680.142 402.5,677.5 Z"/></g>
<g><path style="opacity:1" fill="#fd4746" d="M 263.5,692.5 C 264.497,711.993 264.83,731.66 264.5,751.5C 276.678,751.172 288.678,751.505 300.5,752.5C 288.167,752.5 275.833,752.5 263.5,752.5C 263.5,732.5 263.5,712.5 263.5,692.5 Z"/></g>
<g><path style="opacity:1" fill="#fef7f7" d="M 558.5,834.5 C 576.503,834.333 594.503,834.5 612.5,835C 613.931,835.465 615.097,836.299 616,837.5C 616.667,841.5 616.667,845.5 616,849.5C 614.833,850.667 613.667,851.833 612.5,853C 599.838,853.5 587.171,853.667 574.5,853.5C 574.5,857.5 574.5,861.5 574.5,865.5C 584.839,865.334 595.172,865.5 605.5,866C 607.297,867.594 608.297,869.594 608.5,872C 607.907,875.151 607.407,878.318 607,881.5C 606.5,882 606,882.5 605.5,883C 595.172,883.5 584.839,883.666 574.5,883.5C 574.606,892.533 574.106,901.533 573,910.5C 570.959,912.974 568.292,913.974 565,913.5C 562.083,913.665 559.417,912.998 557,911.5C 556.333,886.833 556.333,862.167 557,837.5C 558.039,836.756 558.539,835.756 558.5,834.5 Z"/></g>
<g><path style="opacity:1" fill="#fef9f8" d="M 657.5,871.5 C 657.141,869.515 656.308,868.849 655,869.5C 654.5,879.828 654.334,890.161 654.5,900.5C 656.986,912.511 652.319,916.677 640.5,913C 639.584,912.626 638.75,912.126 638,911.5C 637.333,886.833 637.333,862.167 638,837.5C 638.833,836.667 639.667,835.833 640.5,835C 646.167,834.333 651.833,834.333 657.5,835C 658.333,835.833 659.167,836.667 660,837.5C 667.745,852.659 675.745,867.659 684,882.5C 692.177,868.148 699.843,853.482 707,838.5C 708.41,837.213 709.91,836.046 711.5,835C 717.872,833.78 723.872,834.613 729.5,837.5C 730.666,861.826 730.833,886.16 730,910.5C 729.5,911.667 728.667,912.5 727.5,913C 723.5,913.667 719.5,913.667 715.5,913C 714.667,912.167 713.833,911.333 713,910.5C 712.667,896.833 712.333,883.167 712,869.5C 704.729,883.042 697.729,896.708 691,910.5C 686.206,915.78 681.373,915.78 676.5,910.5C 669.883,897.601 663.55,884.601 657.5,871.5 Z"/></g>
<g><path style="opacity:1" fill="#fef9f8" d="M 283.5,835.5 C 301.89,832.769 314.056,840.102 320,857.5C 320.839,862.921 320.506,868.254 319,873.5C 312.667,886.167 306.333,898.833 300,911.5C 299.097,912.701 297.931,913.535 296.5,914C 291.249,914.804 286.082,914.637 281,913.5C 280.333,911.833 280.333,910.167 281,908.5C 284.321,903.526 286.821,898.193 288.5,892.5C 265.539,885.228 258.705,870.228 268,847.5C 272.211,842.106 277.377,838.106 283.5,835.5 Z"/></g>
<g><path style="opacity:1" fill="#fef5f5" d="M 358.5,835.5 C 362.514,835.334 366.514,835.501 370.5,836C 371.667,836.5 372.5,837.333 373,838.5C 373.667,862.833 373.667,887.167 373,911.5C 372.167,912.333 371.333,913.167 370.5,914C 366.833,914.667 363.167,914.667 359.5,914C 358.333,912.833 357.167,911.667 356,910.5C 355.333,886.833 355.333,863.167 356,839.5C 357.095,838.307 357.928,836.973 358.5,835.5 Z"/></g>
<g><path style="opacity:1" fill="#fef9f7" d="M 479.5,835.5 C 484.762,835.195 489.928,835.529 495,836.5C 495.667,838.167 495.667,839.833 495,841.5C 492.5,846.5 490,851.5 487.5,856.5C 495.454,858.903 502.287,863.236 508,869.5C 515.115,883.693 513.282,896.526 502.5,908C 487.105,918.085 473.271,916.251 461,902.5C 456.711,894.347 455.378,885.681 457,876.5C 463.589,864.323 469.922,851.99 476,839.5C 477.376,838.295 478.542,836.962 479.5,835.5 Z"/></g>
<g><path style="opacity:1" fill="#fd1910" d="M 286.5,853.5 C 298.009,851.518 303.176,856.185 302,867.5C 296.48,875.955 290.146,876.622 283,869.5C 280.248,863.236 281.414,857.903 286.5,853.5 Z"/></g>
<g><path style="opacity:1" fill="#fd170f" d="M 479.5,875.5 C 493.76,875.203 497.76,881.37 491.5,894C 480.436,899.055 474.602,895.555 474,883.5C 475.273,880.403 477.107,877.736 479.5,875.5 Z"/></g>
<g><path style="opacity:1" fill="#feacae" d="M 657.5,871.5 C 656.732,872.263 656.232,873.263 656,874.5C 655.83,883.343 655.33,892.01 654.5,900.5C 654.334,890.161 654.5,879.828 655,869.5C 656.308,868.849 657.141,869.515 657.5,871.5 Z"/></g>
<g><path style="opacity:1" fill="#ffefee" d="M 413.5,895.5 C 422.555,895.382 426.389,899.715 425,908.5C 421.458,914.876 416.624,916.043 410.5,912C 406.015,905.449 407.015,899.949 413.5,895.5 Z"/></g>
</svg>
