<?xml version="1.0" encoding="UTF-8"?>
<!DOCTYPE svg PUBLIC "-//W3C//DTD SVG 1.1//EN" "http://www.w3.org/Graphics/SVG/1.1/DTD/svg11.dtd">
<svg xmlns="http://www.w3.org/2000/svg" version="1.1" width="1826px" height="600px" style="shape-rendering:geometricPrecision; text-rendering:geometricPrecision; image-rendering:optimizeQuality; fill-rule:evenodd; clip-rule:evenodd" xmlns:xlink="http://www.w3.org/1999/xlink">
<g><path style="opacity:0.993" fill="#b89d72" d="M 148.5,-0.5 C 167.5,-0.5 186.5,-0.5 205.5,-0.5C 233.187,1.75966 256.02,13.4263 274,34.5C 283.079,47.4012 288.413,61.7346 290,77.5C 290.832,90.8674 290.499,104.201 289,117.5C 283.539,145.343 276.206,172.676 267,199.5C 243.835,254.373 202.335,284.207 142.5,289C 122.832,290.951 103.165,290.951 83.5,289C 35.643,284.298 7.64296,258.465 -0.5,211.5C -0.5,200.833 -0.5,190.167 -0.5,179.5C 4.57272,151.541 11.4061,123.874 20,96.5C 42.2881,37.0557 85.1214,4.72233 148.5,-0.5 Z M 148.5,60.5 C 162.545,60.1123 176.545,60.6123 190.5,62C 206.565,65.3985 215.732,75.2318 218,91.5C 218.923,105.045 217.589,118.378 214,131.5C 210.133,146.635 205.8,161.635 201,176.5C 183.603,218.793 152.103,235.96 106.5,228C 85.6219,225.789 74.1219,214.289 72,193.5C 73.9207,163.146 80.5874,133.812 92,105.5C 102.813,80.1633 121.647,65.1633 148.5,60.5 Z"/></g>
<g><path style="opacity:0.99" fill="#b89d72" d="M 328.5,4.5 C 352.5,4.5 376.5,4.5 400.5,4.5C 396.946,73.1872 393.446,141.854 390,210.5C 428.833,142.167 467.667,73.8333 506.5,5.5C 531.158,4.50024 555.824,4.16691 580.5,4.5C 582.267,73.5102 584.434,142.51 587,211.5C 620,142.833 653,74.1667 686,5.5C 711.768,4.1727 737.601,4.1727 763.5,5.5C 715.167,98.8333 666.833,192.167 618.5,285.5C 590.175,286.5 561.841,286.833 533.5,286.5C 530.566,222.825 527.4,159.158 524,95.5C 487.293,159.082 450.46,222.582 413.5,286C 383.502,286.5 353.502,286.667 323.5,286.5C 324.857,192.492 326.524,98.4924 328.5,4.5 Z"/></g>
<g><path style="opacity:0.991" fill="#b89d72" d="M 794.5,4.5 C 818.075,4.1725 841.575,4.50584 865,5.5C 887,61.5 909,117.5 931,173.5C 946.165,117.506 961.332,61.5056 976.5,5.5C 999.49,4.50028 1022.49,4.16695 1045.5,4.5C 1021.2,98.5228 996.203,192.356 970.5,286C 947.261,286.827 924.094,286.66 901,285.5C 879.785,228.017 858.285,170.684 836.5,113.5C 820.527,170.724 804.86,228.058 789.5,285.5C 766.51,286.5 743.51,286.833 720.5,286.5C 745.165,192.509 769.831,98.5088 794.5,4.5 Z"/></g>
<g><path style="opacity:0.988" fill="#b99d72" d="M 1096.5,4.5 C 1165.83,4.33334 1235.17,4.5 1304.5,5C 1299.17,24.6667 1293.83,44.3333 1288.5,64C 1242.5,64.5 1196.5,64.6667 1150.5,64.5C 1146.64,80.95 1142.3,97.2833 1137.5,113.5C 1181.49,114.5 1225.49,114.833 1269.5,114.5C 1264.66,134.203 1259.66,153.87 1254.5,173.5C 1210.17,173.333 1165.83,173.5 1121.5,174C 1116.6,191.426 1111.94,208.926 1107.5,226.5C 1153.17,226.5 1198.83,226.5 1244.5,226.5C 1239.5,246.5 1234.5,266.5 1229.5,286.5C 1160.17,286.5 1090.83,286.5 1021.5,286.5C 1046.5,192.501 1071.5,98.5007 1096.5,4.5 Z"/></g>
<g><path style="opacity:0.991" fill="#b89d72" d="M 1349.5,4.5 C 1395.83,4.33334 1442.17,4.50001 1488.5,5C 1507.13,5.52426 1524.79,9.8576 1541.5,18C 1562.58,31.6745 1571.75,51.1745 1569,76.5C 1566.64,105.274 1556.64,130.941 1539,153.5C 1527.07,165.385 1512.91,173.552 1496.5,178C 1488.71,179.522 1481.05,181.355 1473.5,183.5C 1492.5,217.5 1511.5,251.5 1530.5,285.5C 1504.5,286.833 1478.5,286.833 1452.5,285.5C 1433.47,252.295 1414.63,218.962 1396,185.5C 1387.67,184.167 1379.33,184.167 1371,185.5C 1362.06,219.094 1352.89,252.594 1343.5,286C 1320.5,286.5 1297.5,286.667 1274.5,286.5C 1298.88,192.317 1323.88,98.3173 1349.5,4.5 Z M 1404.5,61.5 C 1425.5,61.3334 1446.5,61.5 1467.5,62C 1475.79,62.3231 1483.45,64.6565 1490.5,69C 1497.03,74.7948 1499.2,81.9615 1497,90.5C 1494.82,112.731 1482.66,124.564 1460.5,126C 1435.85,127.316 1411.19,127.816 1386.5,127.5C 1392.19,105.397 1398.19,83.3967 1404.5,61.5 Z"/></g>
<g><path style="opacity:0.99" fill="#b89d72" d="M 1703.5,4.5 C 1743.83,4.5 1784.17,4.5 1824.5,4.5C 1820.2,24.518 1815.2,44.3514 1809.5,64C 1770.5,64.3333 1731.5,64.6667 1692.5,65C 1676,69.4667 1668.5,80.3001 1670,97.5C 1671.59,102.052 1674.75,104.885 1679.5,106C 1703.11,111.736 1726.45,118.403 1749.5,126C 1782.14,139.446 1795.31,163.613 1789,198.5C 1785.75,219.661 1778.08,238.994 1766,256.5C 1753.27,270.615 1737.44,279.115 1718.5,282C 1706.27,284.285 1693.94,285.618 1681.5,286C 1638.5,286.833 1595.5,286.667 1552.5,285.5C 1557.74,265.95 1563.07,246.45 1568.5,227C 1612.2,226.973 1655.87,226.307 1699.5,225C 1707.89,222.941 1713.39,217.775 1716,209.5C 1722.19,198.446 1720.03,189.613 1709.5,183C 1687.31,176.536 1664.98,170.536 1642.5,165C 1607.9,152.971 1593.4,128.804 1599,92.5C 1602.54,71.5167 1610.54,52.5167 1623,35.5C 1637.8,19.8859 1655.96,10.7192 1677.5,8C 1686.29,6.65238 1694.96,5.48572 1703.5,4.5 Z"/></g>
<g><path style="opacity:0.993" fill="#b89d72" d="M 580.5,313.5 C 613.167,313.5 645.833,313.5 678.5,313.5C 673.71,333.827 668.377,353.994 662.5,374C 632.167,374.333 601.833,374.667 571.5,375C 547.06,375.297 528.56,385.797 516,406.5C 503.962,431.98 495.628,458.647 491,486.5C 486.149,514.604 497.649,530.438 525.5,534C 556.832,534.5 588.165,534.667 619.5,534.5C 614.784,554.651 609.451,574.651 603.5,594.5C 571.172,595.667 538.838,595.833 506.5,595C 440.932,588.712 412.432,552.879 421,487.5C 426.196,457.381 434.196,428.048 445,399.5C 462.645,356.932 493.811,330.099 538.5,319C 552.512,316.094 566.512,314.261 580.5,313.5 Z"/></g>
<g><path style="opacity:0.989" fill="#b99d72" d="M 718.5,313.5 C 741.983,313.011 765.317,313.511 788.5,315C 768.532,388.406 748.865,461.906 729.5,535.5C 769.5,535.5 809.5,535.5 849.5,535.5C 844.5,555.5 839.5,575.5 834.5,595.5C 770.833,595.5 707.167,595.5 643.5,595.5C 668.5,501.501 693.5,407.501 718.5,313.5 Z"/></g>
<g><path style="opacity:0.993" fill="#b89d72" d="M 997.5,599.5 C 981.5,599.5 965.5,599.5 949.5,599.5C 897.792,592.281 871.792,562.447 871.5,510C 871.657,493.894 873.823,478.06 878,462.5C 892,413.167 906,363.833 920,314.5C 943.092,313.506 966.258,313.173 989.5,313.5C 976.473,362.607 962.973,411.607 949,460.5C 944.757,474.545 942.257,488.878 941.5,503.5C 940.594,514.281 943.594,523.781 950.5,532C 960.043,538.73 970.71,541.563 982.5,540.5C 1009.41,540.965 1029.58,529.632 1043,506.5C 1049.38,494.733 1054.38,482.4 1058,469.5C 1072.35,417.783 1086.85,366.117 1101.5,314.5C 1124.49,313.5 1147.49,313.167 1170.5,313.5C 1155.48,371.263 1139.98,428.93 1124,486.5C 1115.07,519.897 1097.9,548.064 1072.5,571C 1050.12,587.513 1025.12,597.013 997.5,599.5 Z"/></g>
<g><path style="opacity:0.993" fill="#b89d72" d="M 1213.5,313.5 C 1258.83,313.333 1304.17,313.5 1349.5,314C 1369.94,313.685 1389.61,317.351 1408.5,325C 1427.75,334.257 1437.08,349.591 1436.5,371C 1436.22,393.5 1429.39,413.666 1416,431.5C 1404.71,441.065 1391.87,447.899 1377.5,452C 1391.73,456.899 1402.23,466.065 1409,479.5C 1413.42,494.131 1413.42,508.798 1409,523.5C 1404.91,539.338 1397.91,553.671 1388,566.5C 1378.28,577.111 1366.45,584.278 1352.5,588C 1337.43,592.066 1322.1,594.4 1306.5,595C 1250.5,595.5 1194.5,595.667 1138.5,595.5C 1163.1,501.378 1188.1,407.378 1213.5,313.5 Z M 1268.5,370.5 C 1289.17,370.333 1309.84,370.5 1330.5,371C 1363.19,371.993 1371.36,386.827 1355,415.5C 1350.93,420.285 1345.76,423.119 1339.5,424C 1332.87,425.045 1326.21,425.711 1319.5,426C 1297.5,426.5 1275.5,426.667 1253.5,426.5C 1257.88,407.65 1262.88,388.983 1268.5,370.5 Z M 1239.5,478.5 C 1269.2,478.049 1298.87,478.549 1328.5,480C 1339.02,481.69 1344.36,487.857 1344.5,498.5C 1343.58,508.105 1340.74,517.105 1336,525.5C 1328.08,533.925 1318.25,538.091 1306.5,538C 1278.84,538.5 1251.17,538.667 1223.5,538.5C 1228.23,518.321 1233.56,498.321 1239.5,478.5 Z"/></g>
</svg>
