<?xml version="1.0" encoding="UTF-8"?>
<!DOCTYPE svg PUBLIC "-//W3C//DTD SVG 1.1//EN" "http://www.w3.org/Graphics/SVG/1.1/DTD/svg11.dtd">
<svg xmlns="http://www.w3.org/2000/svg" version="1.1" width="1000px" height="1000px" style="shape-rendering:geometricPrecision; text-rendering:geometricPrecision; image-rendering:optimizeQuality; fill-rule:evenodd; clip-rule:evenodd" xmlns:xlink="http://www.w3.org/1999/xlink">
<g><path style="opacity:0.988" fill="#315ba8" d="M 236.5,298.5 C 285.192,295.005 329.858,306.505 370.5,333C 411.392,364.604 433.559,406.438 437,458.5C 440.527,501.896 430.194,541.562 406,577.5C 375.432,615.999 335.598,638.499 286.5,645C 248.275,650.239 210.942,646.573 174.5,634C 115.011,609.899 80.1778,566.066 70,502.5C 62.0192,449.085 74.3525,401.085 107,358.5C 142.034,321.068 185.201,301.068 236.5,298.5 Z M 241.5,390.5 C 291.768,387.704 321.268,411.038 330,460.5C 333.918,491.419 324.752,517.585 302.5,539C 275.883,557.422 247.55,560.422 217.5,548C 193.37,534.607 179.536,514.107 176,486.5C 172.177,457.264 180.01,431.764 199.5,410C 211.673,399.411 225.673,392.911 241.5,390.5 Z"/></g>
<g><path style="opacity:0.988" fill="#315ba8" d="M 518.5,307.5 C 552.502,307.333 586.502,307.5 620.5,308C 621.931,308.465 623.097,309.299 624,310.5C 642.135,371.238 660.468,431.904 679,492.5C 697.204,431.35 715.87,370.35 735,309.5C 735.75,308.874 736.584,308.374 737.5,308C 754.5,307.833 771.5,307.667 788.5,307.5C 806.255,307.346 823.921,307.846 841.5,309C 871.202,412.304 900.369,515.804 929,619.5C 931.152,624.739 931.652,630.072 930.5,635.5C 929.5,636.333 928.5,637.167 927.5,638C 893.167,638.667 858.833,638.667 824.5,638C 822.714,637.215 821.214,636.049 820,634.5C 805.333,580.5 790.667,526.5 776,472.5C 759.692,525.73 743.692,579.064 728,632.5C 727.315,635.057 725.815,636.891 723.5,638C 693.833,638.667 664.167,638.667 634.5,638C 633.584,637.626 632.75,637.126 632,636.5C 615.398,582.86 598.898,529.193 582.5,475.5C 567.236,528.793 552.069,582.127 537,635.5C 536.097,636.701 534.931,637.535 533.5,638C 499.167,638.667 464.833,638.667 430.5,638C 427.617,636.568 426.283,634.235 426.5,631C 455.478,523.589 485.311,416.422 516,309.5C 516.995,308.934 517.828,308.267 518.5,307.5 Z"/></g>
</svg>
