<?xml version="1.0" encoding="UTF-8"?>
<!DOCTYPE svg PUBLIC "-//W3C//DTD SVG 1.1//EN" "http://www.w3.org/Graphics/SVG/1.1/DTD/svg11.dtd">
<svg xmlns="http://www.w3.org/2000/svg" version="1.1" width="1000px" height="1000px" style="shape-rendering:geometricPrecision; text-rendering:geometricPrecision; image-rendering:optimizeQuality; fill-rule:evenodd; clip-rule:evenodd" xmlns:xlink="http://www.w3.org/1999/xlink">
<g><path style="opacity:0.667" fill="#ee5d5c" d="M 678.5,69.5 C 671.779,71.2607 664.779,72.9273 657.5,74.5C 664.059,71.4548 671.059,69.7881 678.5,69.5 Z"/></g>
<g><path style="opacity:1" fill="#e20c14" d="M 678.5,69.5 C 689.376,68.7022 699.709,70.3689 709.5,74.5C 714.412,78.7912 720.079,81.7912 726.5,83.5C 740.812,93.4995 749.479,107.166 752.5,124.5C 752.666,131.841 752.5,139.174 752,146.5C 751.626,147.416 751.126,148.25 750.5,149C 751.423,151.041 751.756,153.208 751.5,155.5C 743.889,182.11 726.555,198.444 699.5,204.5C 696.123,204.068 693.123,204.735 690.5,206.5C 689.5,206.5 688.5,206.5 687.5,206.5C 679.686,205.115 671.686,204.115 663.5,203.5C 647.452,199.099 634.786,190.099 625.5,176.5C 625.657,175.127 625.49,173.793 625,172.5C 622.155,169.659 620.655,166.492 620.5,163C 619.473,162.487 618.473,161.987 617.5,161.5C 608.145,133.082 614.145,108.249 635.5,87C 642.108,81.5302 649.441,77.3636 657.5,74.5C 664.779,72.9273 671.779,71.2607 678.5,69.5 Z"/></g>
<g><path style="opacity:1" fill="#e9473d" d="M 709.5,74.5 C 715.924,76.2103 721.591,79.2103 726.5,83.5C 720.079,81.7912 714.412,78.7912 709.5,74.5 Z"/></g>
<g><path style="opacity:0.773" fill="#ef5d5a" d="M 752.5,124.5 C 755.251,134.918 754.917,145.251 751.5,155.5C 751.756,153.208 751.423,151.041 750.5,149C 751.126,148.25 751.626,147.416 752,146.5C 752.5,139.174 752.666,131.841 752.5,124.5 Z"/></g>
<g><path style="opacity:1" fill="#ef5f51" d="M 617.5,161.5 C 618.473,161.987 619.473,162.487 620.5,163C 620.655,166.492 622.155,169.659 625,172.5C 625.49,173.793 625.657,175.127 625.5,176.5C 621.55,172.271 618.883,167.271 617.5,161.5 Z"/></g>
<g><path style="opacity:1" fill="#ec5453" d="M 663.5,203.5 C 671.686,204.115 679.686,205.115 687.5,206.5C 679.171,207.008 671.171,206.008 663.5,203.5 Z"/></g>
<g><path style="opacity:0.145" fill="#f17272" d="M 699.5,204.5 C 696.727,205.657 693.727,206.324 690.5,206.5C 693.123,204.735 696.123,204.068 699.5,204.5 Z"/></g>
<g><path style="opacity:1" fill="#020202" d="M 414.5,235.5 C 416.988,237.388 419.988,238.055 423.5,237.5C 464.183,243.16 496.849,262.16 521.5,294.5C 521.427,296.027 522.094,297.027 523.5,297.5C 535.527,313.229 543.527,330.896 547.5,350.5C 547.898,355.412 548.898,360.079 550.5,364.5C 552.916,375.339 553.75,386.339 553,397.5C 523.477,421.551 504.977,452.218 497.5,489.5C 495.999,495.613 494.999,501.947 494.5,508.5C 494.511,510.045 494.844,511.378 495.5,512.5C 495.269,520.209 495.602,527.876 496.5,535.5C 495.167,537.833 495.167,540.167 496.5,542.5C 496.5,542.833 496.5,543.167 496.5,543.5C 496.215,546.829 496.882,549.829 498.5,552.5C 499.986,558.112 501.319,563.778 502.5,569.5C 502.229,571.38 502.896,572.713 504.5,573.5C 513.986,599.477 529.986,620.477 552.5,636.5C 552.5,642.5 552.5,648.5 552.5,654.5C 533.326,654.17 514.326,654.503 495.5,655.5C 478.348,657.42 465.515,651.087 457,636.5C 453.333,627.167 449.667,617.833 446,608.5C 431.437,622.191 415.271,633.525 397.5,642.5C 395.973,642.427 394.973,643.094 394.5,644.5C 381.736,651.533 368.069,656.2 353.5,658.5C 349.236,658.344 345.236,659.011 341.5,660.5C 306.032,665.655 272.365,660.155 240.5,644C 218.791,630.79 204.458,611.956 197.5,587.5C 196.943,582.948 195.943,578.615 194.5,574.5C 193.691,572.708 193.191,570.708 193,568.5C 192.5,558.172 192.334,547.839 192.5,537.5C 194.011,534.456 194.678,531.122 194.5,527.5C 194.232,525.901 194.566,524.568 195.5,523.5C 196.924,521.485 197.59,519.152 197.5,516.5C 202.761,498.815 212.428,483.982 226.5,472C 246.015,455.739 268.015,443.906 292.5,436.5C 296.915,436.139 300.915,434.806 304.5,432.5C 334.992,423.028 366.325,417.528 398.5,416C 409.154,415.167 419.82,414.667 430.5,414.5C 431.209,415.404 432.209,415.737 433.5,415.5C 433.825,407.648 433.492,399.982 432.5,392.5C 432.04,388.063 431.707,383.396 431.5,378.5C 431.678,374.878 431.011,371.544 429.5,368.5C 423.59,347.097 409.59,334.597 387.5,331C 373.77,330.111 360.103,330.611 346.5,332.5C 343.084,332.528 340.084,333.528 337.5,335.5C 335.786,336.738 333.786,337.405 331.5,337.5C 328.759,337.707 326.426,338.707 324.5,340.5C 311.452,348.855 297.452,355.355 282.5,360C 267.465,363.466 254.132,360.299 242.5,350.5C 242.5,348.5 241.5,347.5 239.5,347.5C 229.092,332.364 219.426,316.697 210.5,300.5C 262.026,256.205 322.026,234.205 390.5,234.5C 398.513,234.667 406.513,235 414.5,235.5 Z M 430.5,486.5 C 431.5,486.5 432.5,486.5 433.5,486.5C 433.833,506.511 433.5,526.511 432.5,546.5C 403.507,577.326 368.507,587.16 327.5,576C 314.234,569.145 308.234,558.145 309.5,543C 309.05,527.561 315.383,515.895 328.5,508C 346.102,498.931 364.769,493.265 384.5,491C 399.954,489.159 415.287,487.659 430.5,486.5 Z"/></g>
<g><path style="opacity:0.067" fill="#676767" d="M 414.5,235.5 C 417.655,235.99 420.655,236.656 423.5,237.5C 419.988,238.055 416.988,237.388 414.5,235.5 Z"/></g>
<g><path style="opacity:0.373" fill="#f7bbbf" d="M 722.5,282.5 C 694.069,281.172 665.736,281.172 637.5,282.5C 637.167,282.5 636.833,282.5 636.5,282.5C 650.484,281.167 664.817,280.501 679.5,280.5C 694.183,280.501 708.516,281.167 722.5,282.5 Z"/></g>
<g><path style="opacity:1" fill="#e20b14" d="M 722.5,282.5 C 722.5,283.5 722.5,284.5 722.5,285.5C 722.156,290.122 722.823,294.455 724.5,298.5C 725.477,301.287 725.81,304.287 725.5,307.5C 725.636,315.088 726.636,322.422 728.5,329.5C 728.335,333.182 728.501,336.848 729,340.5C 729.278,341.416 729.778,342.082 730.5,342.5C 732.039,349.677 732.372,357.01 731.5,364.5C 730.232,366.905 729.565,369.572 729.5,372.5C 725.713,383.407 719.88,393.074 712,401.5C 705.833,407 699.667,412.5 693.5,418C 678.118,428.027 663.451,439.027 649.5,451C 635.595,463.563 625.762,478.73 620,496.5C 614.615,518.112 619.782,536.612 635.5,552C 640.27,555.381 645.27,558.214 650.5,560.5C 654.318,561.736 657.318,563.402 659.5,565.5C 663.094,564.574 666.76,564.241 670.5,564.5C 701.535,564.988 729.868,556.488 755.5,539C 761.022,536.524 766.688,535.691 772.5,536.5C 774.905,537.768 777.572,538.435 780.5,538.5C 787.833,541.167 792.833,546.167 795.5,553.5C 795.427,555.027 796.094,556.027 797.5,556.5C 797.427,558.027 798.094,559.027 799.5,559.5C 799.427,561.027 800.094,562.027 801.5,562.5C 804.996,566.819 807.996,571.485 810.5,576.5C 810.427,578.027 811.094,579.027 812.5,579.5C 812.427,581.027 813.094,582.027 814.5,582.5C 817.978,587.434 821.478,592.434 825,597.5C 826.187,599.044 826.52,600.711 826,602.5C 767,651.296 699.5,669.629 623.5,657.5C 617.09,655.231 610.423,653.564 603.5,652.5C 600.495,650.723 597.162,649.723 593.5,649.5C 579.121,644.814 566.121,637.814 554.5,628.5C 554.027,627.094 553.027,626.427 551.5,626.5C 536.097,614.768 524.43,600.101 516.5,582.5C 517.342,578.379 516.009,575.379 512.5,573.5C 512.813,570.428 512.146,567.595 510.5,565C 511.754,563.047 511.087,561.88 508.5,561.5C 507.566,560.432 507.232,559.099 507.5,557.5C 506.989,551.951 505.989,546.617 504.5,541.5C 502.443,529.901 502.109,518.235 503.5,506.5C 505.117,501.084 505.784,495.417 505.5,489.5C 505.5,489.167 505.5,488.833 505.5,488.5C 507.04,486.162 507.706,483.495 507.5,480.5C 516.151,448.344 533.484,421.844 559.5,401C 576.892,388.308 593.892,375.142 610.5,361.5C 613.167,360.833 614.833,359.167 615.5,356.5C 618.592,352.749 621.259,348.749 623.5,344.5C 627.762,342.687 628.762,339.687 626.5,335.5C 626.325,333.379 626.659,331.379 627.5,329.5C 628.913,326.781 629.58,323.781 629.5,320.5C 629.325,318.379 629.659,316.379 630.5,314.5C 631.913,311.781 632.58,308.781 632.5,305.5C 632.325,303.379 632.659,301.379 633.5,299.5C 634.913,296.781 635.58,293.781 635.5,290.5C 636.768,288.095 637.435,285.428 637.5,282.5C 665.736,281.172 694.069,281.172 722.5,282.5 Z"/></g>
<g><path style="opacity:0.651" fill="#ef686b" d="M 636.5,282.5 C 636.833,282.5 637.167,282.5 637.5,282.5C 637.435,285.428 636.768,288.095 635.5,290.5C 635.575,287.794 635.908,285.127 636.5,282.5 Z"/></g>
<g><path style="opacity:0.914" fill="#ef696a" d="M 722.5,285.5 C 723.709,289.618 724.376,293.951 724.5,298.5C 722.823,294.455 722.156,290.122 722.5,285.5 Z"/></g>
<g><path style="opacity:0.706" fill="#808080" d="M 521.5,294.5 C 522.906,294.973 523.573,295.973 523.5,297.5C 522.094,297.027 521.427,296.027 521.5,294.5 Z"/></g>
<g><path style="opacity:0.459" fill="#f28487" d="M 635.5,290.5 C 635.58,293.781 634.913,296.781 633.5,299.5C 633.42,296.219 634.087,293.219 635.5,290.5 Z"/></g>
<g><path style="opacity:0.459" fill="#f28487" d="M 632.5,305.5 C 632.58,308.781 631.913,311.781 630.5,314.5C 630.42,311.219 631.087,308.219 632.5,305.5 Z"/></g>
<g><path style="opacity:0.98" fill="#ef6565" d="M 725.5,307.5 C 727.344,314.586 728.344,321.92 728.5,329.5C 726.636,322.422 725.636,315.088 725.5,307.5 Z"/></g>
<g><path style="opacity:0.459" fill="#f28487" d="M 629.5,320.5 C 629.58,323.781 628.913,326.781 627.5,329.5C 627.42,326.219 628.087,323.219 629.5,320.5 Z"/></g>
<g><path style="opacity:0.02" fill="#797979" d="M 346.5,332.5 C 343.785,334.072 340.785,335.072 337.5,335.5C 340.084,333.528 343.084,332.528 346.5,332.5 Z"/></g>
<g><path style="opacity:0.451" fill="#6b6b6b" d="M 331.5,337.5 C 329.574,339.293 327.241,340.293 324.5,340.5C 326.426,338.707 328.759,337.707 331.5,337.5 Z"/></g>
<g><path style="opacity:0.998" fill="#ed5855" d="M 728.5,329.5 C 729.709,333.618 730.376,337.951 730.5,342.5C 729.778,342.082 729.278,341.416 729,340.5C 728.501,336.848 728.335,333.182 728.5,329.5 Z"/></g>
<g><path style="opacity:1" fill="#ee5d53" d="M 626.5,335.5 C 628.762,339.687 627.762,342.687 623.5,344.5C 624.331,341.341 625.331,338.341 626.5,335.5 Z"/></g>
<g><path style="opacity:0.804" fill="#b0b0b0" d="M 239.5,347.5 C 241.5,347.5 242.5,348.5 242.5,350.5C 241.167,349.833 240.167,348.833 239.5,347.5 Z"/></g>
<g><path style="opacity:0.941" fill="#646464" d="M 547.5,350.5 C 549.049,354.847 550.382,359.347 551.5,364C 551.272,364.399 550.938,364.565 550.5,364.5C 548.898,360.079 547.898,355.412 547.5,350.5 Z"/></g>
<g><path style="opacity:0.933" fill="#f3716e" d="M 615.5,356.5 C 614.833,359.167 613.167,360.833 610.5,361.5C 611.833,359.5 613.5,357.833 615.5,356.5 Z"/></g>
<g><path style="opacity:0.012" fill="#f7aaad" d="M 731.5,364.5 C 731.706,367.495 731.04,370.162 729.5,372.5C 729.565,369.572 730.232,366.905 731.5,364.5 Z"/></g>
<g><path style="opacity:0.306" fill="#8e8e8e" d="M 429.5,368.5 C 431.011,371.544 431.678,374.878 431.5,378.5C 430.215,375.411 429.549,372.078 429.5,368.5 Z"/></g>
<g><path style="opacity:0.651" fill="#565656" d="M 432.5,392.5 C 433.492,399.982 433.825,407.648 433.5,415.5C 432.209,415.737 431.209,415.404 430.5,414.5C 432.463,407.576 433.13,400.243 432.5,392.5 Z"/></g>
<g><path style="opacity:1" fill="#434343" d="M 304.5,432.5 C 300.915,434.806 296.915,436.139 292.5,436.5C 296.216,434.595 300.216,433.261 304.5,432.5 Z"/></g>
<g><path style="opacity:0.584" fill="#f38588" d="M 507.5,480.5 C 507.706,483.495 507.04,486.162 505.5,488.5C 505.565,485.572 506.232,482.905 507.5,480.5 Z"/></g>
<g><path style="opacity:0.667" fill="#646464" d="M 497.5,489.5 C 496.953,497.179 496.287,504.846 495.5,512.5C 494.844,511.378 494.511,510.045 494.5,508.5C 494.999,501.947 495.999,495.613 497.5,489.5 Z"/></g>
<g><path style="opacity:1" fill="#ee605e" d="M 505.5,489.5 C 505.784,495.417 505.117,501.084 503.5,506.5C 503.658,502.788 503.658,499.288 503.5,496C 504.117,493.723 504.784,491.556 505.5,489.5 Z"/></g>
<g><path style="opacity:0.941" fill="#696969" d="M 197.5,516.5 C 197.59,519.152 196.924,521.485 195.5,523.5C 195.41,520.848 196.076,518.515 197.5,516.5 Z"/></g>
<g><path style="opacity:0.667" fill="#757575" d="M 194.5,527.5 C 194.678,531.122 194.011,534.456 192.5,537.5C 192.549,533.922 193.215,530.589 194.5,527.5 Z"/></g>
<g><path style="opacity:0.647" fill="#ee6466" d="M 772.5,536.5 C 775.495,536.294 778.162,536.96 780.5,538.5C 777.572,538.435 774.905,537.768 772.5,536.5 Z"/></g>
<g><path style="opacity:0.455" fill="#717171" d="M 496.5,535.5 C 496.715,538.144 496.715,540.477 496.5,542.5C 495.167,540.167 495.167,537.833 496.5,535.5 Z"/></g>
<g><path style="opacity:0.325" fill="#f28083" d="M 504.5,541.5 C 505.989,546.617 506.989,551.951 507.5,557.5C 505.862,552.501 504.529,547.334 503.5,542C 503.728,541.601 504.062,541.435 504.5,541.5 Z"/></g>
<g><path style="opacity:0.475" fill="#7a7a7a" d="M 496.5,543.5 C 497.657,546.273 498.324,549.273 498.5,552.5C 496.882,549.829 496.215,546.829 496.5,543.5 Z"/></g>
<g><path style="opacity:0.725" fill="#f78f8d" d="M 795.5,553.5 C 796.906,553.973 797.573,554.973 797.5,556.5C 796.094,556.027 795.427,555.027 795.5,553.5 Z"/></g>
<g><path style="opacity:0.627" fill="#f68a8a" d="M 797.5,556.5 C 798.906,556.973 799.573,557.973 799.5,559.5C 798.094,559.027 797.427,558.027 797.5,556.5 Z"/></g>
<g><path style="opacity:0.616" fill="#f99d9e" d="M 799.5,559.5 C 800.906,559.973 801.573,560.973 801.5,562.5C 800.094,562.027 799.427,561.027 799.5,559.5 Z"/></g>
<g><path style="opacity:1" fill="#e94540" d="M 650.5,560.5 C 657.227,562.188 663.894,563.522 670.5,564.5C 666.76,564.241 663.094,564.574 659.5,565.5C 657.318,563.402 654.318,561.736 650.5,560.5 Z"/></g>
<g><path style="opacity:1" fill="#ef6054" d="M 508.5,561.5 C 511.087,561.88 511.754,563.047 510.5,565C 512.146,567.595 512.813,570.428 512.5,573.5C 510.595,569.784 509.261,565.784 508.5,561.5 Z"/></g>
<g><path style="opacity:0.267" fill="#a7a7a7" d="M 502.5,569.5 C 503.674,570.514 504.34,571.847 504.5,573.5C 502.896,572.713 502.229,571.38 502.5,569.5 Z"/></g>
<g><path style="opacity:1" fill="#ef5d4d" d="M 512.5,573.5 C 516.009,575.379 517.342,578.379 516.5,582.5C 514.796,579.744 513.463,576.744 512.5,573.5 Z"/></g>
<g><path style="opacity:0.243" fill="#868686" d="M 194.5,574.5 C 195.943,578.615 196.943,582.948 197.5,587.5C 195.425,583.526 194.425,579.192 194.5,574.5 Z"/></g>
<g><path style="opacity:0.651" fill="#f68b8a" d="M 810.5,576.5 C 811.906,576.973 812.573,577.973 812.5,579.5C 811.094,579.027 810.427,578.027 810.5,576.5 Z"/></g>
<g><path style="opacity:0.635" fill="#f89c9c" d="M 812.5,579.5 C 813.906,579.973 814.573,580.973 814.5,582.5C 813.094,582.027 812.427,581.027 812.5,579.5 Z"/></g>
<g><path style="opacity:0.631" fill="#f38789" d="M 551.5,626.5 C 553.027,626.427 554.027,627.094 554.5,628.5C 552.973,628.573 551.973,627.906 551.5,626.5 Z"/></g>
<g><path style="opacity:0.094" fill="#9c9c9c" d="M 397.5,642.5 C 397.027,643.906 396.027,644.573 394.5,644.5C 394.973,643.094 395.973,642.427 397.5,642.5 Z"/></g>
<g><path style="opacity:0.878" fill="#ef6c6d" d="M 593.5,649.5 C 597.162,649.723 600.495,650.723 603.5,652.5C 599.838,652.277 596.505,651.277 593.5,649.5 Z"/></g>
<g><path style="opacity:0.741" fill="#ed5c5e" d="M 603.5,652.5 C 610.423,653.564 617.09,655.231 623.5,657.5C 616.493,656.748 609.827,655.082 603.5,652.5 Z"/></g>
<g><path style="opacity:0.753" fill="#808080" d="M 552.5,636.5 C 553.49,642.645 553.823,648.978 553.5,655.5C 534.167,655.5 514.833,655.5 495.5,655.5C 514.326,654.503 533.326,654.17 552.5,654.5C 552.5,648.5 552.5,642.5 552.5,636.5 Z"/></g>
<g><path style="opacity:0.463" fill="#717171" d="M 353.5,658.5 C 349.733,659.795 345.733,660.461 341.5,660.5C 345.236,659.011 349.236,658.344 353.5,658.5 Z"/></g>
<g><path style="opacity:1" fill="#0c0c0c" d="M 397.5,723.5 C 393.167,723.5 388.833,723.5 384.5,723.5C 378.604,721.939 374.604,718.272 372.5,712.5C 372.5,707.833 372.5,703.167 372.5,698.5C 375.723,690.127 381.89,685.794 391,685.5C 409.003,689.178 414.67,699.512 408,716.5C 405.388,720.219 401.888,722.552 397.5,723.5 Z"/></g>
<g><path style="opacity:0.356" fill="#313131" d="M 532.5,686.5 C 532.5,738.833 532.5,791.167 532.5,843.5C 543.167,843.5 553.833,843.5 564.5,843.5C 564.5,827.5 564.5,811.5 564.5,795.5C 567.385,795.194 570.052,795.527 572.5,796.5C 570.167,796.5 567.833,796.5 565.5,796.5C 565.5,812.5 565.5,828.5 565.5,844.5C 554.167,844.5 542.833,844.5 531.5,844.5C 531.168,791.664 531.501,738.997 532.5,686.5 Z"/></g>
<g><path style="opacity:0.998" fill="#040404" d="M 532.5,686.5 C 543.167,686.5 553.833,686.5 564.5,686.5C 564.5,716.167 564.5,745.833 564.5,775.5C 566.735,775.795 568.735,775.461 570.5,774.5C 573.643,773.866 576.143,772.2 578,769.5C 584.883,758.231 592.383,747.398 600.5,737C 602.65,735.589 604.984,734.755 607.5,734.5C 617.5,735.167 627.5,735.833 637.5,736.5C 628.353,749.442 619.186,762.442 610,775.5C 607.463,778.372 604.63,780.872 601.5,783C 604.665,785.171 606.998,788.005 608.5,791.5C 608.427,793.027 609.094,794.027 610.5,794.5C 611.338,794.842 611.672,795.508 611.5,796.5C 611.427,798.027 612.094,799.027 613.5,799.5C 614.338,799.842 614.672,800.508 614.5,801.5C 614.427,803.027 615.094,804.027 616.5,804.5C 624.335,816.832 631.668,829.498 638.5,842.5C 627.346,843.495 616.012,843.828 604.5,843.5C 602.284,842.797 600.451,841.464 599,839.5C 591.921,825.674 584.588,812.008 577,798.5C 575.67,797.418 574.17,796.751 572.5,796.5C 570.052,795.527 567.385,795.194 564.5,795.5C 564.5,811.5 564.5,827.5 564.5,843.5C 553.833,843.5 543.167,843.5 532.5,843.5C 532.5,791.167 532.5,738.833 532.5,686.5 Z"/></g>
<g><path style="opacity:0.359" fill="#555555" d="M 564.5,686.5 C 565.498,715.662 565.831,744.995 565.5,774.5C 567.167,774.5 568.833,774.5 570.5,774.5C 568.735,775.461 566.735,775.795 564.5,775.5C 564.5,745.833 564.5,716.167 564.5,686.5 Z"/></g>
<g><path style="opacity:1" fill="#040404" d="M 333.5,735.5 C 342.167,735.5 350.833,735.5 359.5,735.5C 359.5,742.833 359.5,750.167 359.5,757.5C 350.5,757.5 341.5,757.5 332.5,757.5C 332.333,776.503 332.5,795.503 333,814.5C 333.278,815.416 333.778,816.082 334.5,816.5C 335.692,818.922 337.692,819.922 340.5,819.5C 344.108,818.352 347.775,817.852 351.5,818C 353.232,819.972 354.565,822.139 355.5,824.5C 355.427,826.027 356.094,827.027 357.5,827.5C 359.725,830.262 361.725,833.262 363.5,836.5C 353.091,844.021 341.424,847.354 328.5,846.5C 324.416,844.674 320.083,843.34 315.5,842.5C 307.978,838.821 303.312,832.821 301.5,824.5C 300.594,802.849 300.261,781.183 300.5,759.5C 296.688,758.676 292.688,758.176 288.5,758C 287.333,756.833 286.167,755.667 285,754.5C 284.333,749.167 284.333,743.833 285,738.5C 290.073,737.084 295.24,735.918 300.5,735C 301.897,733.69 302.897,732.19 303.5,730.5C 305.281,726.8 306.281,722.8 306.5,718.5C 306.466,713.605 307.8,709.272 310.5,705.5C 317.777,704.57 325.11,704.236 332.5,704.5C 332.172,715.014 332.506,725.347 333.5,735.5 Z"/></g>
<g><path style="opacity:1" fill="#505050" d="M 372.5,698.5 C 372.5,703.167 372.5,707.833 372.5,712.5C 369.833,707.833 369.833,703.167 372.5,698.5 Z"/></g>
<g><path style="opacity:0.718" fill="#3f3f3f" d="M 333.5,734.5 C 333.5,734.833 333.5,735.167 333.5,735.5C 332.506,725.347 332.172,715.014 332.5,704.5C 325.11,704.236 317.777,704.57 310.5,705.5C 310.611,704.883 310.944,704.383 311.5,704C 318.826,703.5 326.159,703.334 333.5,703.5C 333.5,713.833 333.5,724.167 333.5,734.5 Z"/></g>
<g><path style="opacity:0.322" fill="#6c6c6c" d="M 306.5,718.5 C 306.281,722.8 305.281,726.8 303.5,730.5C 303.719,726.2 304.719,722.2 306.5,718.5 Z"/></g>
<g><path style="opacity:1" fill="#494949" d="M 384.5,723.5 C 388.833,723.5 393.167,723.5 397.5,723.5C 393.167,726.167 388.833,726.167 384.5,723.5 Z"/></g>
<g><path style="opacity:1" fill="#040404" d="M 823.5,763.5 C 819.958,763.187 816.625,763.521 813.5,764.5C 802.653,763.371 794.987,767.704 790.5,777.5C 789.503,799.327 789.169,821.327 789.5,843.5C 778.833,843.5 768.167,843.5 757.5,843.5C 757.5,807.5 757.5,771.5 757.5,735.5C 764.354,735.824 771.021,735.491 777.5,734.5C 781.47,734.35 784.137,736.017 785.5,739.5C 785.788,742.939 786.454,746.272 787.5,749.5C 787.833,750.833 788.167,750.833 788.5,749.5C 792.695,742.809 798.361,737.642 805.5,734C 812.581,731.692 819.414,732.192 826,735.5C 826.645,744.199 826.312,752.865 825,761.5C 824.722,762.416 824.222,763.082 823.5,763.5 Z"/></g>
<g><path style="opacity:0.094" fill="#6b6b6b" d="M 485.5,733.5 C 489.122,733.322 492.456,733.989 495.5,735.5C 491.922,735.451 488.589,734.785 485.5,733.5 Z"/></g>
<g><path style="opacity:1" fill="#0b0b0b" d="M 265.5,762.5 C 262.482,762.296 259.482,761.963 256.5,761.5C 249.237,757.875 241.57,756.708 233.5,758C 228.383,759.732 226.55,763.232 228,768.5C 230.408,770.956 233.241,772.789 236.5,774C 245.205,776.508 253.539,779.675 261.5,783.5C 261.973,784.906 262.973,785.573 264.5,785.5C 269.533,788.202 273.2,792.202 275.5,797.5C 275.565,800.428 276.232,803.095 277.5,805.5C 277.5,807.833 277.5,810.167 277.5,812.5C 276.336,816.011 275.336,819.677 274.5,823.5C 269.129,835.691 259.796,842.858 246.5,845C 231.068,848.275 216.402,846.442 202.5,839.5C 202.027,838.094 201.027,837.427 199.5,837.5C 191.493,835.154 190.493,831.154 196.5,825.5C 197.906,825.027 198.573,824.027 198.5,822.5C 199.08,820.251 200.413,818.585 202.5,817.5C 205.764,816.676 209.098,816.342 212.5,816.5C 216.328,818.579 220.328,820.412 224.5,822C 232.08,824.702 238.913,823.535 245,818.5C 247.178,812.049 245.011,807.882 238.5,806C 228.522,803.119 218.855,799.452 209.5,795C 197.565,786.547 193.065,775.047 196,760.5C 199.907,746.927 208.741,738.427 222.5,735C 243.083,729.898 261.416,734.065 277.5,747.5C 274.75,751.332 272.25,755.332 270,759.5C 268.871,761.141 267.371,762.141 265.5,762.5 Z"/></g>
<g><path style="opacity:1" fill="#0a0a0a" d="M 485.5,733.5 C 488.589,734.785 491.922,735.451 495.5,735.5C 504.715,738.04 512.715,742.707 519.5,749.5C 516.048,755.448 511.714,760.615 506.5,765C 504.167,765.667 501.833,765.667 499.5,765C 496.3,762.901 492.967,761.067 489.5,759.5C 489.389,758.883 489.056,758.383 488.5,758C 484.973,757.192 481.64,757.359 478.5,758.5C 471.72,758.804 466.554,761.804 463,767.5C 459.105,777.109 457.605,787.109 458.5,797.5C 458.215,800.829 458.882,803.829 460.5,806.5C 465.933,818.715 475.266,823.215 488.5,820C 493.104,817.201 497.771,814.701 502.5,812.5C 504.379,813.341 506.379,813.675 508.5,813.5C 512.822,817.827 516.822,822.494 520.5,827.5C 505.346,843.107 487.013,849.107 465.5,845.5C 463.485,844.076 461.152,843.41 458.5,843.5C 439.514,836.84 428.514,823.507 425.5,803.5C 424.24,794.17 424.24,784.836 425.5,775.5C 425.232,773.901 425.566,772.568 426.5,771.5C 427.738,769.786 428.405,767.786 428.5,765.5C 428.796,763.597 429.463,761.93 430.5,760.5C 431.906,760.027 432.573,759.027 432.5,757.5C 437.279,748.721 444.279,742.388 453.5,738.5C 457.784,737.739 461.784,736.405 465.5,734.5C 472.078,733.54 478.745,733.207 485.5,733.5 Z"/></g>
<g><path style="opacity:0.424" fill="#bcbcbc" d="M 607.5,734.5 C 617.855,734.168 628.188,734.501 638.5,735.5C 638.376,736.107 638.043,736.44 637.5,736.5C 627.5,735.833 617.5,735.167 607.5,734.5 Z"/></g>
<g><path style="opacity:1" fill="#070707" d="M 698.5,733.5 C 701.589,734.785 704.922,735.451 708.5,735.5C 726.433,740.94 737.266,752.94 741,771.5C 743.45,779.485 742.95,787.152 739.5,794.5C 716.682,795.114 694.015,795.781 671.5,796.5C 674.581,815.41 685.581,823.243 704.5,820C 709.968,818.097 715.301,815.93 720.5,813.5C 723.5,813.5 726.5,813.5 729.5,813.5C 733.299,817.091 736.633,821.091 739.5,825.5C 740.833,826.5 740.833,827.5 739.5,828.5C 732.844,836.172 724.511,841.338 714.5,844C 702.718,847.011 691.052,847.178 679.5,844.5C 676.785,842.928 673.785,841.928 670.5,841.5C 665.321,840.083 660.988,837.417 657.5,833.5C 656.415,831.413 654.749,830.08 652.5,829.5C 639.902,813.841 635.569,796.174 639.5,776.5C 640.768,774.095 641.435,771.428 641.5,768.5C 645.279,756.886 652.279,747.72 662.5,741C 673.625,734.386 685.625,731.886 698.5,733.5 Z M 687.5,755.5 C 704.032,753.705 712.365,761.039 712.5,777.5C 698.833,777.5 685.167,777.5 671.5,777.5C 671.522,766.067 676.855,758.734 687.5,755.5 Z"/></g>
<g><path style="opacity:0.227" fill="#646464" d="M 698.5,733.5 C 702.122,733.322 705.456,733.989 708.5,735.5C 704.922,735.451 701.589,734.785 698.5,733.5 Z"/></g>
<g><path style="opacity:1" fill="#010101" d="M 375.5,735.5 C 386.167,735.5 396.833,735.5 407.5,735.5C 407.5,771.5 407.5,807.5 407.5,843.5C 396.833,843.5 386.167,843.5 375.5,843.5C 375.5,807.5 375.5,771.5 375.5,735.5 Z"/></g>
<g><path style="opacity:0.165" fill="#e3e3e3" d="M 374.5,735.5 C 385.654,734.505 396.988,734.172 408.5,734.5C 408.832,771.337 408.498,808.004 407.5,844.5C 407.5,844.167 407.5,843.833 407.5,843.5C 407.5,807.5 407.5,771.5 407.5,735.5C 396.833,735.5 386.167,735.5 375.5,735.5C 375.167,735.5 374.833,735.5 374.5,735.5 Z"/></g>
<g><path style="opacity:0.929" fill="#585858" d="M 465.5,734.5 C 461.784,736.405 457.784,737.739 453.5,738.5C 457.085,736.194 461.085,734.861 465.5,734.5 Z"/></g>
<g><path style="opacity:0.835" fill="#494949" d="M 374.5,735.5 C 374.833,735.5 375.167,735.5 375.5,735.5C 375.5,771.5 375.5,807.5 375.5,843.5C 386.167,843.5 396.833,843.5 407.5,843.5C 407.5,843.833 407.5,844.167 407.5,844.5C 396.5,844.5 385.5,844.5 374.5,844.5C 374.5,808.167 374.5,771.833 374.5,735.5 Z"/></g>
<g><path style="opacity:0.586" fill="#717171" d="M 785.5,739.5 C 786.993,742.583 787.993,745.917 788.5,749.5C 788.167,749.5 787.833,749.5 787.5,749.5C 786.454,746.272 785.788,742.939 785.5,739.5 Z"/></g>
<g><path style="opacity:1" fill="#696969" d="M 478.5,758.5 C 481.64,757.359 484.973,757.192 488.5,758C 489.056,758.383 489.389,758.883 489.5,759.5C 485.901,758.656 482.234,758.323 478.5,758.5 Z"/></g>
<g><path style="opacity:0.718" fill="#4f4f4f" d="M 333.5,735.5 C 333.5,735.167 333.5,734.833 333.5,734.5C 342.5,734.5 351.5,734.5 360.5,734.5C 360.5,742.5 360.5,750.5 360.5,758.5C 351.5,758.5 342.5,758.5 333.5,758.5C 333.204,777.867 333.537,797.2 334.5,816.5C 333.778,816.082 333.278,815.416 333,814.5C 332.5,795.503 332.333,776.503 332.5,757.5C 341.5,757.5 350.5,757.5 359.5,757.5C 359.5,750.167 359.5,742.833 359.5,735.5C 350.833,735.5 342.167,735.5 333.5,735.5 Z"/></g>
<g><path style="opacity:0.459" fill="#969696" d="M 432.5,757.5 C 432.573,759.027 431.906,760.027 430.5,760.5C 430.427,758.973 431.094,757.973 432.5,757.5 Z"/></g>
<g><path style="opacity:0.031" fill="#2d2d2d" d="M 300.5,759.5 C 300.261,781.183 300.594,802.849 301.5,824.5C 300.698,823.048 300.198,821.382 300,819.5C 299.171,799.329 299.338,779.329 300.5,759.5 Z"/></g>
<g><path style="opacity:0.282" fill="#5f5f5f" d="M 256.5,761.5 C 259.482,761.963 262.482,762.296 265.5,762.5C 262.373,763.815 259.373,763.482 256.5,761.5 Z"/></g>
<g><path style="opacity:1" fill="#414141" d="M 813.5,764.5 C 816.625,763.521 819.958,763.187 823.5,763.5C 820.437,765.697 817.104,766.03 813.5,764.5 Z"/></g>
<g><path style="opacity:0.133" fill="#8e8e8e" d="M 428.5,765.5 C 428.405,767.786 427.738,769.786 426.5,771.5C 426.259,769.102 426.926,767.102 428.5,765.5 Z"/></g>
<g><path style="opacity:0.961" fill="#666666" d="M 641.5,768.5 C 641.435,771.428 640.768,774.095 639.5,776.5C 639.294,773.505 639.96,770.838 641.5,768.5 Z"/></g>
<g><path style="opacity:0.671" fill="#434343" d="M 777.5,734.5 C 771.021,735.491 764.354,735.824 757.5,735.5C 757.5,771.5 757.5,807.5 757.5,843.5C 768.167,843.5 778.833,843.5 789.5,843.5C 789.169,821.327 789.503,799.327 790.5,777.5C 790.5,799.833 790.5,822.167 790.5,844.5C 779.167,844.5 767.833,844.5 756.5,844.5C 756.5,807.833 756.5,771.167 756.5,734.5C 763.5,734.5 770.5,734.5 777.5,734.5 Z"/></g>
<g><path style="opacity:0.29" fill="#888888" d="M 261.5,783.5 C 263.027,783.427 264.027,784.094 264.5,785.5C 262.973,785.573 261.973,784.906 261.5,783.5 Z"/></g>
<g><path style="opacity:0.102" fill="#484848" d="M 425.5,775.5 C 424.24,784.836 424.24,794.17 425.5,803.5C 422.833,794.167 422.833,784.833 425.5,775.5 Z"/></g>
<g><path style="opacity:0.58" fill="#828282" d="M 608.5,791.5 C 609.906,791.973 610.573,792.973 610.5,794.5C 609.094,794.027 608.427,793.027 608.5,791.5 Z"/></g>
<g><path style="opacity:0.204" fill="#606060" d="M 739.5,794.5 C 738.737,795.268 737.737,795.768 736.5,796C 714.836,796.5 693.169,796.667 671.5,796.5C 694.015,795.781 716.682,795.114 739.5,794.5 Z"/></g>
<g><path style="opacity:0.522" fill="#8d8d8d" d="M 611.5,796.5 C 612.906,796.973 613.573,797.973 613.5,799.5C 612.094,799.027 611.427,798.027 611.5,796.5 Z"/></g>
<g><path style="opacity:0.537" fill="#787878" d="M 275.5,797.5 C 277.04,799.838 277.706,802.505 277.5,805.5C 276.232,803.095 275.565,800.428 275.5,797.5 Z"/></g>
<g><path style="opacity:0.165" fill="#838383" d="M 458.5,797.5 C 459.657,800.273 460.324,803.273 460.5,806.5C 458.882,803.829 458.215,800.829 458.5,797.5 Z"/></g>
<g><path style="opacity:0.463" fill="#979797" d="M 614.5,801.5 C 615.906,801.973 616.573,802.973 616.5,804.5C 615.094,804.027 614.427,803.027 614.5,801.5 Z"/></g>
<g><path style="opacity:0.957" fill="#626262" d="M 502.5,812.5 C 504.598,811.516 506.598,811.849 508.5,813.5C 506.379,813.675 504.379,813.341 502.5,812.5 Z"/></g>
<g><path style="opacity:0.876" fill="#626262" d="M 729.5,813.5 C 726.5,813.5 723.5,813.5 720.5,813.5C 723.5,810.833 726.5,810.833 729.5,813.5 Z"/></g>
<g><path style="opacity:0.439" fill="#626262" d="M 212.5,816.5 C 209.098,816.342 205.764,816.676 202.5,817.5C 202.611,816.883 202.944,816.383 203.5,816C 206.696,815.195 209.696,815.362 212.5,816.5 Z"/></g>
<g><path style="opacity:0.031" fill="#959595" d="M 277.5,812.5 C 277.874,816.647 276.874,820.314 274.5,823.5C 275.336,819.677 276.336,816.011 277.5,812.5 Z"/></g>
<g><path style="opacity:0.647" fill="#898989" d="M 198.5,822.5 C 198.573,824.027 197.906,825.027 196.5,825.5C 196.427,823.973 197.094,822.973 198.5,822.5 Z"/></g>
<g><path style="opacity:0.616" fill="#8e8e8e" d="M 355.5,824.5 C 356.906,824.973 357.573,825.973 357.5,827.5C 356.094,827.027 355.427,826.027 355.5,824.5 Z"/></g>
<g><path style="opacity:0.027" fill="#9d9d9d" d="M 739.5,825.5 C 742.167,826.5 742.167,827.5 739.5,828.5C 740.833,827.5 740.833,826.5 739.5,825.5 Z"/></g>
<g><path style="opacity:0.808" fill="#999999" d="M 652.5,829.5 C 654.749,830.08 656.415,831.413 657.5,833.5C 655.251,832.92 653.585,831.587 652.5,829.5 Z"/></g>
<g><path style="opacity:0.482" fill="#878787" d="M 199.5,837.5 C 201.027,837.427 202.027,838.094 202.5,839.5C 200.973,839.573 199.973,838.906 199.5,837.5 Z"/></g>
<g><path style="opacity:1" fill="#505050" d="M 315.5,842.5 C 320.083,843.34 324.416,844.674 328.5,846.5C 323.736,846.231 319.403,844.898 315.5,842.5 Z"/></g>
<g><path style="opacity:0.337" fill="#676767" d="M 670.5,841.5 C 673.785,841.928 676.785,842.928 679.5,844.5C 676.084,844.472 673.084,843.472 670.5,841.5 Z"/></g>
<g><path style="opacity:0.769" fill="#494949" d="M 638.5,842.5 C 640.225,842.843 640.725,843.843 640,845.5C 628.069,844.843 616.235,844.176 604.5,843.5C 616.012,843.828 627.346,843.495 638.5,842.5 Z"/></g>
<g><path style="opacity:0.631" fill="#646464" d="M 458.5,843.5 C 461.152,843.41 463.485,844.076 465.5,845.5C 462.848,845.59 460.515,844.924 458.5,843.5 Z"/></g>
</svg>
