<?xml version="1.0" encoding="UTF-8"?>
<!DOCTYPE svg PUBLIC "-//W3C//DTD SVG 1.1//EN" "http://www.w3.org/Graphics/SVG/1.1/DTD/svg11.dtd">
<svg xmlns="http://www.w3.org/2000/svg" version="1.1" width="514px" height="175px" style="shape-rendering:geometricPrecision; text-rendering:geometricPrecision; image-rendering:optimizeQuality; fill-rule:evenodd; clip-rule:evenodd" xmlns:xlink="http://www.w3.org/1999/xlink">
<g><path style="opacity:1" fill="#f4192e" d="M 14.5,-0.5 C 175.833,-0.5 337.167,-0.5 498.5,-0.5C 501.404,1.29483 504.404,3.12816 507.5,5C 509.662,8.17962 511.662,11.3463 513.5,14.5C 513.5,62.8333 513.5,111.167 513.5,159.5C 510.167,166.167 505.167,171.167 498.5,174.5C 337.167,174.5 175.833,174.5 14.5,174.5C 7.5,171.5 2.5,166.5 -0.5,159.5C -0.5,111.167 -0.5,62.8333 -0.5,14.5C 1.29483,11.5964 3.12816,8.59643 5,5.5C 8.17962,3.33769 11.3463,1.33769 14.5,-0.5 Z"/></g>
<g><path style="opacity:1" fill="#fffafa" d="M 256.5,46.5 C 262.842,46.3338 269.175,46.5005 275.5,47C 279.538,47.8993 283.205,49.566 286.5,52C 284.663,56.1838 282.829,60.3505 281,64.5C 275.002,60.7879 268.502,59.6212 261.5,61C 257.708,63.0527 256.542,66.2194 258,70.5C 264.577,75.8755 271.744,80.3755 279.5,84C 293.728,96.9641 294.061,110.297 280.5,124C 266.346,130.667 252.679,129.834 239.5,121.5C 240.678,117.104 242.511,113.104 245,109.5C 250.027,112.176 255.36,113.843 261,114.5C 269.663,114.83 273.996,110.83 274,102.5C 272.542,100.04 270.709,97.8734 268.5,96C 257.968,92.4451 249.468,86.2784 243,77.5C 238.306,62.9073 242.806,52.574 256.5,46.5 Z"/></g>
<g><path style="opacity:1" fill="#fffbfb" d="M 125.5,125.5 C 120.36,126.488 115.026,126.821 109.5,126.5C 108.587,122.841 107.254,119.341 105.5,116C 94.1716,115.5 82.8382,115.333 71.5,115.5C 70.7033,119.223 69.7033,122.89 68.5,126.5C 62.9738,126.821 57.6405,126.488 52.5,125.5C 61.5572,99.8306 70.7239,74.164 80,48.5C 82.9136,47.8553 85.9136,47.522 89,47.5C 92.276,47.5577 95.276,48.2243 98,49.5C 107.459,74.7464 116.625,100.08 125.5,125.5 Z"/></g>
<g><path style="opacity:1" fill="#fefefe" d="M 143.5,47.5 C 158.833,47.5 174.167,47.5 189.5,47.5C 189.5,52.1667 189.5,56.8333 189.5,61.5C 179.167,61.5 168.833,61.5 158.5,61.5C 158.5,67.8333 158.5,74.1667 158.5,80.5C 165.5,80.5 172.5,80.5 179.5,80.5C 179.5,85.1667 179.5,89.8333 179.5,94.5C 172.5,94.5 165.5,94.5 158.5,94.5C 158.5,105.167 158.5,115.833 158.5,126.5C 153.5,126.5 148.5,126.5 143.5,126.5C 143.5,100.167 143.5,73.8333 143.5,47.5 Z"/></g>
<g><path style="opacity:1" fill="#fffefe" d="M 206.5,47.5 C 211.5,47.5 216.5,47.5 221.5,47.5C 221.5,74.1667 221.5,100.833 221.5,127.5C 216.5,127.5 211.5,127.5 206.5,127.5C 206.5,100.833 206.5,74.1667 206.5,47.5 Z"/></g>
<g><path style="opacity:1" fill="#fffdfd" d="M 325.5,94.5 C 324.506,104.987 324.172,115.654 324.5,126.5C 319.5,126.5 314.5,126.5 309.5,126.5C 309.5,100.167 309.5,73.8333 309.5,47.5C 314.833,47.5 320.167,47.5 325.5,47.5C 325.5,58.5 325.5,69.5 325.5,80.5C 334.5,80.5 343.5,80.5 352.5,80.5C 352.5,69.5 352.5,58.5 352.5,47.5C 357.833,47.5 363.167,47.5 368.5,47.5C 368.5,74.1667 368.5,100.833 368.5,127.5C 363.167,127.5 357.833,127.5 352.5,127.5C 352.5,116.5 352.5,105.5 352.5,94.5C 343.5,94.5 334.5,94.5 325.5,94.5 Z"/></g>
<g><path style="opacity:1" fill="#fffbfb" d="M 401.5,126.5 C 396.056,127.108 391.056,126.442 386.5,124.5C 395.697,98.9087 404.697,73.242 413.5,47.5C 419.5,47.5 425.5,47.5 431.5,47.5C 441.031,74.0914 450.364,100.758 459.5,127.5C 454.125,127.828 448.792,127.495 443.5,126.5C 442.362,123.087 441.029,119.754 439.5,116.5C 428.167,115.167 416.833,115.167 405.5,116.5C 404.151,119.859 402.818,123.192 401.5,126.5 Z"/></g>
<g><path style="opacity:1" fill="#f42433" d="M 88.5,70.5 C 92.9998,80.1858 96.9998,90.1858 100.5,100.5C 92.8333,101.833 85.1667,101.833 77.5,100.5C 81.1752,90.4715 84.8419,80.4715 88.5,70.5 Z"/></g>
<g><path style="opacity:1" fill="#f42333" d="M 421.5,70.5 C 422.497,70.4701 423.164,70.9701 423.5,72C 427.141,81.757 430.474,91.5903 433.5,101.5C 426.167,101.5 418.833,101.5 411.5,101.5C 414.833,91.1667 418.167,80.8333 421.5,70.5 Z"/></g>
<g><path style="opacity:1" fill="#fccdd2" d="M 325.5,94.5 C 325.5,105.5 325.5,116.5 325.5,127.5C 319.974,127.821 314.64,127.488 309.5,126.5C 314.5,126.5 319.5,126.5 324.5,126.5C 324.172,115.654 324.506,104.987 325.5,94.5 Z"/></g>
<g><path style="opacity:1" fill="#fcbbc0" d="M 52.5,125.5 C 57.6405,126.488 62.9738,126.821 68.5,126.5C 62.9871,127.816 57.3204,127.816 51.5,126.5C 51.6236,125.893 51.9569,125.56 52.5,125.5 Z"/></g>
<g><path style="opacity:1" fill="#fcb9be" d="M 125.5,125.5 C 126.043,125.56 126.376,125.893 126.5,126.5C 120.68,127.816 115.013,127.816 109.5,126.5C 115.026,126.821 120.36,126.488 125.5,125.5 Z"/></g>
<g><path style="opacity:1" fill="#fca0a7" d="M 143.5,47.5 C 143.5,73.8333 143.5,100.167 143.5,126.5C 148.5,126.5 153.5,126.5 158.5,126.5C 153.36,127.488 148.026,127.821 142.5,127.5C 142.169,100.661 142.502,73.9948 143.5,47.5 Z"/></g>
<g><path style="opacity:1" fill="#fcc3c8" d="M 386.5,124.5 C 391.056,126.442 396.056,127.108 401.5,126.5C 396.36,127.488 391.026,127.821 385.5,127.5C 385.263,126.209 385.596,125.209 386.5,124.5 Z"/></g>
</svg>
