<?xml version="1.0" encoding="UTF-8"?>
<!DOCTYPE svg PUBLIC "-//W3C//DTD SVG 1.1//EN" "http://www.w3.org/Graphics/SVG/1.1/DTD/svg11.dtd">
<svg xmlns="http://www.w3.org/2000/svg" version="1.1" width="1000px" height="1000px" style="shape-rendering:geometricPrecision; text-rendering:geometricPrecision; image-rendering:optimizeQuality; fill-rule:evenodd; clip-rule:evenodd" xmlns:xlink="http://www.w3.org/1999/xlink">
<g><path style="opacity:1" fill="#fdfdfd" d="M 823.5,271.5 C 829.833,271.5 836.167,271.5 842.5,271.5C 842.512,277.871 842.012,284.204 841,290.5C 834.126,325.41 827.793,360.41 822,395.5C 818.061,413.148 814.228,430.815 810.5,448.5C 808.383,450.831 805.716,451.997 802.5,452C 793.524,453.207 784.524,453.54 775.5,453C 774.789,451.745 773.956,450.579 773,449.5C 766.954,414.921 761.454,380.254 756.5,345.5C 753.528,381.752 748.694,417.752 742,453.5C 741.535,454.931 740.701,456.097 739.5,457C 730.497,457.803 721.497,458.637 712.5,459.5C 710.571,459.46 708.738,459.127 707,458.5C 706.77,449.856 708.104,441.19 711,432.5C 719.566,382.056 728.566,331.723 738,281.5C 738.833,280.667 739.667,279.833 740.5,279C 749.837,278.192 759.17,277.359 768.5,276.5C 770.693,276.326 772.527,276.993 774,278.5C 782.292,316.836 788.626,355.502 793,394.5C 795.365,355.585 800.365,316.918 808,278.5C 809.141,276.391 810.641,274.558 812.5,273C 816.356,272.823 820.023,272.323 823.5,271.5 Z"/></g>
<g><path style="opacity:1" fill="#fdfdfd" d="M 700.5,285.5 C 703.572,285.183 706.572,285.516 709.5,286.5C 709.931,287.293 710.265,288.127 710.5,289C 700.93,342.394 691.763,395.894 683,449.5C 682.348,451.723 680.848,452.89 678.5,453C 668.833,453.667 659.167,453.667 649.5,453C 648.903,451.938 648.57,450.772 648.5,449.5C 657.475,397.128 666.641,344.795 676,292.5C 676.833,290.333 678.333,288.833 680.5,288C 687.329,287.27 693.996,286.437 700.5,285.5 Z"/></g>
<g><path style="opacity:1" fill="#fdfdfd" d="M 517.5,290.5 C 519.722,290.178 521.556,290.845 523,292.5C 525.832,350.802 527.665,409.135 528.5,467.5C 517.492,468.214 506.492,468.714 495.5,469C 494.516,460.251 494.183,451.418 494.5,442.5C 485.52,443.181 476.52,443.681 467.5,444C 463.167,453.667 458.833,463.333 454.5,473C 442.506,473.7 430.506,474.2 418.5,474.5C 423.147,459.179 428.981,444.179 436,429.5C 452.149,383.561 469.983,338.228 489.5,293.5C 498.982,292.495 508.316,291.495 517.5,290.5 Z M 494.5,354.5 C 495.825,358.445 496.492,362.778 496.5,367.5C 495.976,381.166 495.476,394.832 495,408.5C 489.865,409.19 484.698,409.857 479.5,410.5C 478.119,410 477.453,409 477.5,407.5C 482.894,389.72 488.561,372.053 494.5,354.5 Z"/></g>
<g><path style="opacity:1" fill="#fdfdfd" d="M 593.5,293.5 C 603.839,293.334 614.172,293.5 624.5,294C 640.339,297.655 647.673,307.655 646.5,324C 646.373,341.019 641.54,356.519 632,370.5C 627.517,375.831 622.35,380.164 616.5,383.5C 622.562,405.974 628.562,428.474 634.5,451C 634.18,452.653 633.18,453.653 631.5,454C 623.706,455.425 615.873,456.592 608,457.5C 606.5,457.167 605,456.833 603.5,456.5C 596.8,435.838 591.3,414.838 587,393.5C 586.632,392.09 585.799,391.09 584.5,390.5C 582.548,392.337 581.548,394.671 581.5,397.5C 578.469,418.147 575.636,438.814 573,459.5C 562.624,461.278 552.124,462.278 541.5,462.5C 544.747,439.524 547.914,416.524 551,393.5C 556.704,361.571 562.038,329.571 567,297.5C 567.75,296.874 568.584,296.374 569.5,296C 577.651,295.163 585.651,294.33 593.5,293.5 Z M 595.5,319.5 C 611.478,317.661 617.311,324.661 613,340.5C 611.416,344.425 610.083,348.425 609,352.5C 604.166,359.387 597.666,362.554 589.5,362C 588.941,361.275 588.608,360.442 588.5,359.5C 590.607,348.584 592.107,337.584 593,326.5C 593.379,323.97 594.213,321.637 595.5,319.5 Z"/></g>
<g><path style="opacity:1" fill="#fdfdfd" d="M 178.5,299.5 C 186.84,299.334 195.173,299.5 203.5,300C 221.383,303.568 228.383,314.401 224.5,332.5C 224.726,342.264 223.893,351.931 222,361.5C 221.167,362.333 220.333,363.167 219.5,364C 209.522,365.332 199.522,365.999 189.5,366C 188.903,364.938 188.57,363.772 188.5,362.5C 190.606,353.133 190.772,343.799 189,334.5C 182.54,331.142 176.874,332.142 172,337.5C 170,342.167 168,346.833 166,351.5C 156.395,384.517 151.062,418.184 150,452.5C 151.122,454.624 152.622,456.457 154.5,458C 164.687,461.149 171.853,457.983 176,448.5C 179.46,440.214 180.96,431.714 180.5,423C 177.563,423.011 174.73,422.845 172,422.5C 171.959,411.955 173.459,401.622 176.5,391.5C 189.137,389.835 201.803,388.502 214.5,387.5C 215.736,388.246 217.07,388.579 218.5,388.5C 216.734,411.098 213.234,433.431 208,455.5C 202.218,481.272 186.051,494.772 159.5,496C 130.794,499.832 114.461,487.499 110.5,459C 112.54,432.642 116.04,406.475 121,380.5C 123.912,365.851 127.912,351.517 133,337.5C 136.069,328.192 140.569,319.692 146.5,312C 155.985,304.565 166.651,300.398 178.5,299.5 Z"/></g>
<g><path style="opacity:1" fill="#fdfdfd" d="M 395.5,305.5 C 404.415,305.636 413.081,307.136 421.5,310C 428.687,316.548 431.354,324.715 429.5,334.5C 429.409,342.194 428.909,349.861 428,357.5C 427.654,359.848 426.487,361.681 424.5,363C 416.157,363.648 407.823,363.981 399.5,364C 398.786,357.043 399.119,350.043 400.5,343C 400.534,338.202 398.2,335.368 393.5,334.5C 390.453,334.968 387.619,335.968 385,337.5C 379.806,347.59 376.14,358.257 374,369.5C 368.87,389.871 365.704,410.537 364.5,431.5C 364.286,444.443 370.286,448.276 382.5,443C 385.782,439.847 387.948,436.013 389,431.5C 390.302,425.985 391.469,420.485 392.5,415C 389.722,413.608 386.722,413.108 383.5,413.5C 383.765,404.144 385.098,394.978 387.5,386C 399.452,384.289 411.452,383.622 423.5,384C 422.57,405.255 419.236,426.255 413.5,447C 407.782,465.554 395.115,475.554 375.5,477C 363.217,479.202 351.884,477.035 341.5,470.5C 334.83,463.219 331.164,454.552 330.5,444.5C 332.629,415.13 337.129,386.13 344,357.5C 347.409,346.27 351.409,335.27 356,324.5C 360.723,317.112 367.223,311.945 375.5,309C 382.257,307.502 388.923,306.335 395.5,305.5 Z"/></g>
<g><path style="opacity:1" fill="#fdfdfd" d="M 294.5,315.5 C 299.648,314.926 304.482,315.593 309,317.5C 311.681,371.229 313.347,424.896 314,478.5C 303.941,480.289 293.774,481.122 283.5,481C 282.683,473.246 282.183,465.412 282,457.5C 273.299,456.359 264.633,456.692 256,458.5C 252.905,467.186 249.405,475.686 245.5,484C 243.782,484.346 242.115,484.846 240.5,485.5C 239.914,485.291 239.414,484.957 239,484.5C 229.913,485.535 220.746,486.202 211.5,486.5C 216.292,471.966 221.792,457.632 228,443.5C 243.043,401.193 259.543,359.527 277.5,318.5C 278.333,318.167 279.167,317.833 280,317.5C 284.996,316.966 289.83,316.3 294.5,315.5 Z M 282.5,374.5 C 283.117,374.611 283.617,374.944 284,375.5C 283.86,391.821 283.527,408.155 283,424.5C 277.977,425.873 272.81,426.373 267.5,426C 266.715,423.557 266.881,421.057 268,418.5C 272.559,403.657 277.392,388.991 282.5,374.5 Z"/></g>
<g><path style="opacity:1" fill="#f3f3f3" d="M 837.5,412.5 C 849.489,411.323 854.322,416.656 852,428.5C 847.66,434.864 842.16,436.031 835.5,432C 829.752,424.753 830.418,418.253 837.5,412.5 Z M 839.5,414.5 C 847.812,414.311 851.312,418.311 850,426.5C 847.459,431.069 843.625,432.569 838.5,431C 834.672,427.736 833.505,423.569 835,418.5C 836.397,416.93 837.897,415.596 839.5,414.5 Z M 841.5,419.5 C 844.861,420.203 845.194,421.537 842.5,423.5C 841.571,422.311 841.238,420.978 841.5,419.5 Z"/></g>
<g><path style="opacity:1" fill="#f4f4f4" d="M 838.5,417.5 C 841.119,417.232 843.619,417.565 846,418.5C 846.019,421.994 845.852,425.327 845.5,428.5C 844.281,427.737 843.281,426.737 842.5,425.5C 841.719,426.737 840.719,427.737 839.5,428.5C 838.511,424.893 838.177,421.226 838.5,417.5 Z M 841.5,419.5 C 841.238,420.978 841.571,422.311 842.5,423.5C 845.194,421.537 844.861,420.203 841.5,419.5 Z"/></g>
<g><path style="opacity:1" fill="#fdfdfd" d="M 868.5,462.5 C 875.508,462.334 882.508,462.5 889.5,463C 890.097,464.062 890.43,465.228 890.5,466.5C 882.602,520.627 873.269,574.46 862.5,628C 852.007,630.23 841.507,630.73 831,629.5C 833.368,607.422 836.535,585.422 840.5,563.5C 833.515,564.089 826.515,564.422 819.5,564.5C 814.838,586.814 810.338,609.147 806,631.5C 795.628,633.481 785.128,634.314 774.5,634C 773.919,633.107 773.585,632.107 773.5,631C 784.413,577.234 793.913,523.4 802,469.5C 802.75,468.874 803.584,468.374 804.5,468C 814.829,467.039 825.162,466.205 835.5,465.5C 835.286,467.144 835.62,468.644 836.5,470C 833.112,490.05 829.445,510.05 825.5,530C 826.416,530.374 827.25,530.874 828,531.5C 834.746,530.423 841.579,529.757 848.5,529.5C 852.046,508.515 855.546,487.515 859,466.5C 859.5,465.333 860.333,464.5 861.5,464C 864.036,463.814 866.369,463.314 868.5,462.5 Z"/></g>
<g><path style="opacity:1" fill="#fdfdfd" d="M 725.5,463.5 C 760.074,458.244 775.574,472.911 772,507.5C 771.9,510.903 771.066,514.07 769.5,517C 760.557,518.606 751.557,519.273 742.5,519C 741.196,518.196 740.529,517.029 740.5,515.5C 741.139,510.324 741.806,505.158 742.5,500C 740.314,491.421 735.314,489.254 727.5,493.5C 722.938,501.238 722.104,509.238 725,517.5C 727,520.833 729,524.167 731,527.5C 737.911,535.151 744.911,542.818 752,550.5C 764.601,572.03 766.934,594.696 759,618.5C 754.026,628.142 746.526,634.975 736.5,639C 723.973,642.561 711.306,643.227 698.5,641C 687.816,636.175 680.983,628.009 678,616.5C 675.837,604.43 676.004,592.43 678.5,580.5C 688.068,578.572 697.735,577.738 707.5,578C 709.767,583.489 710.101,589.155 708.5,595C 708.801,599.801 709.967,604.301 712,608.5C 717.575,612.655 722.575,611.988 727,606.5C 732.06,589.856 729.06,574.856 718,561.5C 711,553.833 704,546.167 697,538.5C 686.851,516.674 688.851,496.007 703,476.5C 709.525,470.39 717.025,466.056 725.5,463.5 Z"/></g>
<g><path style="opacity:1" fill="#fdfdfd" d="M 642.5,479.5 C 647.43,479.197 652.263,479.531 657,480.5C 660.216,534.783 662.049,589.116 662.5,643.5C 652.167,644.167 641.833,644.833 631.5,645.5C 630.282,638.146 630.282,630.813 631.5,623.5C 631.167,622.833 630.833,622.167 630.5,621.5C 628.667,621.167 626.833,620.833 625,620.5C 618.506,621.071 612.006,621.571 605.5,622C 601.948,629.32 598.781,636.82 596,644.5C 595.215,646.286 594.049,647.786 592.5,649C 581.825,649.637 571.158,649.97 560.5,650C 559.978,649.439 559.645,648.772 559.5,648C 575.177,610.971 589.677,573.471 603,535.5C 611.002,517.649 618.502,499.649 625.5,481.5C 631.36,481.283 637.027,480.617 642.5,479.5 Z M 630.5,538.5 C 631.828,543.456 632.495,548.789 632.5,554.5C 632.259,565.845 631.759,577.178 631,588.5C 626.246,589.658 621.412,590.158 616.5,590C 615.572,589.612 614.905,588.945 614.5,588C 619.744,571.435 625.077,554.935 630.5,538.5 Z"/></g>
<g><path style="opacity:1" fill="#fdfdfd" d="M 586.5,483.5 C 590.677,482.842 592.177,484.508 591,488.5C 571.252,543.082 551.918,597.748 533,652.5C 524.596,653.749 516.096,654.416 507.5,654.5C 506.521,635.331 505.521,616.164 504.5,597C 505.049,592.518 505.382,588.018 505.5,583.5C 505.632,579.651 505.132,575.984 504,572.5C 498.294,586.918 492.294,601.251 486,615.5C 481.465,628.937 476.632,642.27 471.5,655.5C 470.975,656.192 470.308,656.692 469.5,657C 461.25,657.534 453.083,658.367 445,659.5C 444.333,658.833 443.667,658.167 443,657.5C 443.275,603.75 444.609,550.083 447,496.5C 447.839,495.376 449.006,494.709 450.5,494.5C 459.691,492.758 468.857,492.424 478,493.5C 477.873,519.866 476.706,546.2 474.5,572.5C 474.833,574.833 475.167,577.167 475.5,579.5C 479.275,571.617 482.775,563.617 486,555.5C 492.951,537.265 499.618,518.932 506,500.5C 506.903,499.299 508.069,498.465 509.5,498C 515.198,497.458 520.864,497.125 526.5,497C 527,497.5 527.5,498 528,498.5C 528.658,521.245 528.492,543.912 527.5,566.5C 527.737,569.924 528.404,573.257 529.5,576.5C 538.7,547.02 548.2,517.687 558,488.5C 558.903,487.299 560.069,486.465 561.5,486C 570.012,485.438 578.345,484.605 586.5,483.5 Z"/></g>
<g><path style="opacity:1" fill="#fe0801" d="M 334.5,576.5 C 336.847,575.393 337.18,573.726 335.5,571.5C 338.164,546.998 342.164,522.831 347.5,499C 367.374,495.961 387.374,494.961 407.5,496C 424.041,499.885 431.707,510.385 430.5,527.5C 430.754,547.571 424.754,565.405 412.5,581C 408.252,584.603 403.919,587.937 399.5,591C 405.665,614.817 411.665,638.651 417.5,662.5C 417.548,665.766 415.882,667.266 412.5,667C 404.704,668.426 396.871,669.593 389,670.5C 387.289,670.561 385.956,669.894 385,668.5C 378.249,646.584 372.416,624.417 367.5,602C 366.404,599.853 364.904,599.353 363,600.5C 359.051,624.477 355.384,648.477 352,672.5C 349.931,673.264 347.764,673.764 345.5,674C 336.84,674.5 328.173,674.666 319.5,674.5C 323.2,641.634 328.2,608.967 334.5,576.5 Z M 377.5,523.5 C 383.335,523.124 389.002,523.79 394.5,525.5C 397.907,539.701 395.24,552.534 386.5,564C 381.777,568.012 376.444,569.512 370.5,568.5C 370.167,567.333 369.833,566.167 369.5,565C 371.146,554.185 372.646,543.352 374,532.5C 374.119,528.985 375.286,525.985 377.5,523.5 Z"/></g>
<g><path style="opacity:1" fill="#fd0b01" d="M 198.5,582.5 C 191.242,582.298 184.075,581.632 177,580.5C 176.617,581.056 176.117,581.389 175.5,581.5C 175.018,580.584 174.685,579.584 174.5,578.5C 176.11,570.614 177.777,562.781 179.5,555C 180.577,547.845 177.577,544.012 170.5,543.5C 166.417,543.537 162.917,544.87 160,547.5C 147.87,584.214 141.537,621.881 141,660.5C 146.949,662.963 152.783,662.63 158.5,659.5C 160.198,656.288 161.698,652.954 163,649.5C 164.529,640.98 166.696,632.647 169.5,624.5C 179.43,622.67 189.43,622.17 199.5,623C 200.687,624.019 201.687,625.186 202.5,626.5C 200.695,639.304 198.195,651.97 195,664.5C 191.469,673.735 186.302,681.902 179.5,689C 168.177,694.492 156.177,697.659 143.5,698.5C 119.112,698.276 106.446,686.109 105.5,662C 107.901,627.425 113.068,593.259 121,559.5C 123.943,550.003 127.276,540.669 131,531.5C 141.159,517.922 154.825,511.255 172,511.5C 180.884,511.884 189.717,512.718 198.5,514C 205.305,517.437 209.305,522.937 210.5,530.5C 212.063,547.005 210.896,563.338 207,579.5C 204.646,581.637 201.812,582.637 198.5,582.5 Z"/></g>
<g><path style="opacity:1" fill="#fd0b01" d="M 204.5,681.5 C 205.5,679.167 204.833,678.5 202.5,679.5C 223.182,623.805 244.849,568.472 267.5,513.5C 277.298,513.07 287.132,512.07 297,510.5C 298.887,512.026 299.887,514.026 300,516.5C 302.043,568.563 303.877,620.73 305.5,673C 304.833,673.667 304.167,674.333 303.5,675C 293.839,676.134 284.172,676.8 274.5,677C 273.002,674.583 272.335,671.917 272.5,669C 273.3,663.842 273.467,658.675 273,653.5C 264.539,652.289 256.039,652.456 247.5,654C 247,654.5 246.5,655 246,655.5C 243.28,663.87 240.114,672.037 236.5,680C 226.503,680.966 216.503,681.8 206.5,682.5C 205.584,682.457 204.917,682.124 204.5,681.5 Z M 271.5,571.5 C 274.465,571.73 275.798,573.397 275.5,576.5C 274.921,591.183 274.088,605.85 273,620.5C 271.562,621.718 269.895,622.385 268,622.5C 264.543,621.694 261.043,621.694 257.5,622.5C 259.888,609.048 263.722,596.048 269,583.5C 269.798,579.465 270.631,575.465 271.5,571.5 Z"/></g>
<g><path style="opacity:1" fill="#e73e53" d="M 335.5,571.5 C 337.18,573.726 336.847,575.393 334.5,576.5C 334.216,574.585 334.549,572.919 335.5,571.5 Z"/></g>
<g><path style="opacity:1" fill="#df361e" d="M 198.5,582.5 C 191.345,583.655 184.012,583.822 176.5,583C 175.944,582.617 175.611,582.117 175.5,581.5C 176.117,581.389 176.617,581.056 177,580.5C 184.075,581.632 191.242,582.298 198.5,582.5 Z"/></g>
<g><path style="opacity:1" fill="#ffa989" d="M 204.5,681.5 C 203.167,681.5 202.5,680.833 202.5,679.5C 204.833,678.5 205.5,679.167 204.5,681.5 Z"/></g>
</svg>
