<?xml version="1.0" encoding="UTF-8"?>
<!DOCTYPE svg PUBLIC "-//W3C//DTD SVG 1.1//EN" "http://www.w3.org/Graphics/SVG/1.1/DTD/svg11.dtd">
<svg xmlns="http://www.w3.org/2000/svg" version="1.1" width="8187px" height="7222px" style="shape-rendering:geometricPrecision; text-rendering:geometricPrecision; image-rendering:optimizeQuality; fill-rule:evenodd; clip-rule:evenodd" xmlns:xlink="http://www.w3.org/1999/xlink">
<g><path style="opacity:0.999" fill="#fd78f5" d="M 5022.5,-0.5 C 5061.17,-0.5 5099.83,-0.5 5138.5,-0.5C 5366.06,8.80716 5583.06,61.6405 5789.5,158C 5931.99,225.356 6064.99,307.022 6188.5,403C 6298.33,488.636 6401.33,582.469 6497.5,684.5C 6653.53,851.305 6793.37,1030.31 6917,1221.5C 6960.67,1289.02 7002.51,1357.68 7042.5,1427.5C 6888.83,1320.45 6725.49,1228.95 6552.5,1153C 6300.73,1043.29 6043.73,946.957 5781.5,864C 5576,799.374 5367,749.041 5154.5,713C 4961.13,681.108 4766.46,666.441 4570.5,669C 4343.13,673.074 4119.47,703.574 3899.5,760.5C 3868.04,757.736 3836.37,755.569 3804.5,754C 3674.56,747.935 3544.56,745.935 3414.5,748C 3292.68,749.943 3171.35,758.61 3050.5,774C 2961.67,785.3 2874.33,803.633 2788.5,829C 2738.01,844.579 2689.34,864.579 2642.5,889C 2460.46,990.679 2291.79,1111.01 2136.5,1250C 1869.67,1491.67 1648,1768.17 1471.5,2079.5C 1348.43,2186.07 1231.93,2299.73 1122,2420.5C 1006.75,2548.72 903.42,2685.72 812,2831.5C 712.126,2992.94 634.126,3164.6 578,3346.5C 486.107,3658.05 472.773,3973.05 538,4291.5C 572.64,4446.75 621.306,4597.42 684,4743.5C 710.661,4806.16 739.494,4867.82 770.5,4928.5C 767.786,5018.53 770.786,5108.53 779.5,5198.5C 635.716,5066.24 503.216,4924.24 382,4772.5C 298.905,4667.34 225.238,4555.67 161,4437.5C 108.296,4339.09 66.9622,4236.09 37,4128.5C 16.3327,4050.98 3.83273,3972.31 -0.5,3892.5C -0.5,3862.83 -0.5,3833.17 -0.5,3803.5C 6.44543,3680.96 33.6121,3562.96 81,3449.5C 101.42,3400.99 123.754,3353.32 148,3306.5C 171.604,3260.96 195.437,3215.62 219.5,3170.5C 340.782,2948.52 473.615,2734.18 618,2527.5C 814.752,2247.95 1034.09,1985.95 1276,1741.5C 1716.18,1300.58 2213.02,937.75 2766.5,653C 3084.24,490.308 3413.57,355.974 3754.5,250C 3755.06,249.617 3755.39,249.117 3755.5,248.5C 4074.66,149.966 4399.66,77.1326 4730.5,30C 4788.72,21.7642 4847.05,14.4308 4905.5,8C 4944.59,4.20818 4983.59,1.37485 5022.5,-0.5 Z"/></g>
<g><path style="opacity:0.999" fill="#ffbefa" d="M 3755.5,248.5 C 3755.39,249.117 3755.06,249.617 3754.5,250C 3413.57,355.974 3084.24,490.308 2766.5,653C 2213.02,937.75 1716.18,1300.58 1276,1741.5C 1034.09,1985.95 814.752,2247.95 618,2527.5C 473.615,2734.18 340.782,2948.52 219.5,3170.5C 209.472,2973.78 210.306,2777.12 222,2580.5C 234.142,2372.03 263.475,2166.03 310,1962.5C 358.071,1752.94 431.071,1552.61 529,1361.5C 739.714,960.79 1052.21,668.957 1466.5,486C 1628.28,416.075 1795.61,363.409 1968.5,328C 2182.76,283.677 2399.1,254.677 2617.5,241C 2830.3,227.227 3043.3,222.56 3256.5,227C 3423,230.42 3589.33,237.587 3755.5,248.5 Z"/></g>
<g><path style="opacity:0.448" fill="#000000" d="M 7042.5,1427.5 C 7406.77,1685.92 7683.6,2017.25 7873,2421.5C 7999.49,2696.11 8081.82,2983.45 8120,3283.5C 8138.57,3425.57 8146.57,3568.24 8144,3711.5C 8142.55,3755.73 8138.55,3799.73 8132,3843.5C 8098.35,4070.11 8040.02,4290.11 7957,4503.5C 7925.3,4584.56 7891.13,4664.56 7854.5,4743.5C 7712.59,5039.59 7538.76,5314.26 7333,5567.5C 7067.45,5893.45 6762.61,6175.28 6418.5,6413C 6160.64,6590.4 5884.64,6735.74 5590.5,6849C 5223.83,6989.4 4844.16,7067.07 4451.5,7082C 4275.24,7087.17 4099.57,7079.5 3924.5,7059C 3580.45,7018.42 3246.11,6937.76 2921.5,6817C 2388.38,6614.8 1918.05,6316.8 1510.5,5923C 1276.18,5695.04 1073.68,5442.88 903,5166.5C 856.032,5088.91 811.865,5009.58 770.5,4928.5C 739.494,4867.82 710.661,4806.16 684,4743.5C 621.306,4597.42 572.64,4446.75 538,4291.5C 472.773,3973.05 486.107,3658.05 578,3346.5C 634.126,3164.6 712.126,2992.94 812,2831.5C 903.42,2685.72 1006.75,2548.72 1122,2420.5C 1231.93,2299.73 1348.43,2186.07 1471.5,2079.5C 1657.66,1921.27 1853,1775.43 2057.5,1642C 2196.6,1551.3 2338.6,1464.96 2483.5,1383C 2658.82,1283.16 2837.15,1188.16 3018.5,1098C 3170.56,1022.8 3325.56,954.464 3483.5,893C 3619.64,840.474 3758.3,796.307 3899.5,760.5C 4119.47,703.574 4343.13,673.074 4570.5,669C 4766.46,666.441 4961.13,681.108 5154.5,713C 5367,749.041 5576,799.374 5781.5,864C 6043.73,946.957 6300.73,1043.29 6552.5,1153C 6725.49,1228.95 6888.83,1320.45 7042.5,1427.5 Z"/></g>
<g><path style="opacity:0.998" fill="#febefa" d="M 6497.5,684.5 C 6580.67,704.21 6663.67,724.71 6746.5,746C 7168.37,880.003 7499.2,1132.17 7739,1502.5C 7833.91,1652.66 7911.58,1811.66 7972,1979.5C 8046.84,2191.88 8100.51,2409.54 8133,2632.5C 8164.97,2852.17 8182.81,3072.84 8186.5,3294.5C 8186.5,3369.5 8186.5,3444.5 8186.5,3519.5C 8178.99,3842.9 8152.49,4164.9 8107,4485.5C 8046.85,4913.92 7959.18,5336.59 7844,5753.5C 7811.69,5870.43 7775.36,5986.1 7735,6100.5C 7613.34,6420.78 7409.18,6674.28 7122.5,6861C 6966.96,6960 6800.62,7036.33 6623.5,7090C 6443.38,7144.22 6259.72,7180.89 6072.5,7200C 5959.63,7211.68 5846.63,7218.84 5733.5,7221.5C 5669.5,7221.5 5605.5,7221.5 5541.5,7221.5C 5245.06,7213.26 4950.39,7184.92 4657.5,7136.5C 5005.53,7107.14 5350.2,7054.97 5691.5,6980C 5885.39,6936.03 6075.06,6878.37 6260.5,6807C 6460.42,6729.71 6649.76,6633.04 6828.5,6517C 7006.08,6400.17 7166.24,6262 7309,6102.5C 7555.99,5819.2 7720.66,5492.53 7803,5122.5C 7830.49,4997.58 7847.65,4871.25 7854.5,4743.5C 7891.13,4664.56 7925.3,4584.56 7957,4503.5C 8040.02,4290.11 8098.35,4070.11 8132,3843.5C 8138.55,3799.73 8142.55,3755.73 8144,3711.5C 8146.57,3568.24 8138.57,3425.57 8120,3283.5C 8081.82,2983.45 7999.49,2696.11 7873,2421.5C 7683.6,2017.25 7406.77,1685.92 7042.5,1427.5C 7002.51,1357.68 6960.67,1289.02 6917,1221.5C 6793.37,1030.31 6653.53,851.305 6497.5,684.5 Z"/></g>
<g><path style="opacity:1" fill="#fd00f2" d="M 3899.5,760.5 C 3758.3,796.307 3619.64,840.474 3483.5,893C 3325.56,954.464 3170.56,1022.8 3018.5,1098C 2837.15,1188.16 2658.82,1283.16 2483.5,1383C 2338.6,1464.96 2196.6,1551.3 2057.5,1642C 1853,1775.43 1657.66,1921.27 1471.5,2079.5C 1648,1768.17 1869.67,1491.67 2136.5,1250C 2291.79,1111.01 2460.46,990.679 2642.5,889C 2689.34,864.579 2738.01,844.579 2788.5,829C 2874.33,803.633 2961.67,785.3 3050.5,774C 3171.35,758.61 3292.68,749.943 3414.5,748C 3544.56,745.935 3674.56,747.935 3804.5,754C 3836.37,755.569 3868.04,757.736 3899.5,760.5 Z"/></g>
<g><path style="opacity:1" fill="#303030" d="M 1704.5,2678.5 C 1704.67,2848.5 1704.5,3018.5 1704,3188.5C 1703.28,3187.96 1702.78,3187.29 1702.5,3186.5C 1703.17,3017.17 1703.83,2847.83 1704.5,2678.5 Z"/></g>
<g><path style="opacity:1" fill="#fefefe" d="M 1704.5,2678.5 C 1832.83,2678.5 1961.17,2678.5 2089.5,2678.5C 2089.5,3164.5 2089.5,3650.5 2089.5,4136.5C 1961.17,4136.5 1832.83,4136.5 1704.5,4136.5C 1704.67,4105.5 1704.5,4074.5 1704,4043.5C 1703.28,4044.04 1702.78,4044.71 1702.5,4045.5C 1647.3,4111.62 1576.64,4150.45 1490.5,4162C 1293.51,4184.4 1141.68,4112.9 1035,3947.5C 988.368,3870.6 960.702,3787.27 952,3697.5C 941.485,3603.7 948.819,3511.37 974,3420.5C 1008.82,3304.1 1074.99,3210.27 1172.5,3139C 1248.54,3089.23 1332.21,3064.73 1423.5,3065.5C 1488.74,3064.31 1550.41,3078.48 1608.5,3108C 1644.8,3128.13 1676.13,3154.29 1702.5,3186.5C 1702.78,3187.29 1703.28,3187.96 1704,3188.5C 1704.5,3018.5 1704.67,2848.5 1704.5,2678.5 Z"/></g>
<g><path style="opacity:1" fill="#fefefe" d="M 3080.5,3187.5 C 3080.56,3188.04 3080.89,3188.38 3081.5,3188.5C 3082.5,3157.51 3082.83,3126.51 3082.5,3095.5C 3210.83,3095.5 3339.17,3095.5 3467.5,3095.5C 3467.5,3442.5 3467.5,3789.5 3467.5,4136.5C 3339.17,4136.5 3210.83,4136.5 3082.5,4136.5C 3082.83,4105.49 3082.5,4074.49 3081.5,4043.5C 3080.89,4043.62 3080.56,4043.96 3080.5,4044.5C 3028.09,4107.72 2961.09,4146.22 2879.5,4160C 2662.08,4187.21 2500.25,4105.71 2394,3915.5C 2346.13,3820.97 2323.29,3720.64 2325.5,3614.5C 2323.48,3508.57 2346.65,3408.57 2395,3314.5C 2433.64,3243.77 2485.8,3184.94 2551.5,3138C 2634.82,3084.33 2726.15,3060.33 2825.5,3066C 2896.38,3068.41 2961.05,3089.41 3019.5,3129C 3042.26,3145.93 3062.59,3165.43 3080.5,3187.5 Z"/></g>
<g><path style="opacity:1" fill="#fefefe" d="M 4794.5,3508.5 C 4794.5,3717.83 4794.5,3927.17 4794.5,4136.5C 4666.17,4136.5 4537.83,4136.5 4409.5,4136.5C 4409.67,3943.17 4409.5,3749.83 4409,3556.5C 4402.75,3476.09 4359.25,3436.09 4278.5,3436.5C 4209.58,3437.94 4165.41,3471.61 4146,3537.5C 4142.37,3551.28 4140.04,3565.28 4139,3579.5C 4138.5,3765.17 4138.33,3950.83 4138.5,4136.5C 4010.17,4136.5 3881.83,4136.5 3753.5,4136.5C 3753.5,3789.5 3753.5,3442.5 3753.5,3095.5C 3881.83,3095.5 4010.17,3095.5 4138.5,3095.5C 4138.33,3129.17 4138.5,3162.83 4139,3196.5C 4192.19,3124.79 4263.35,3082.63 4352.5,3070C 4410.76,3061.78 4468.43,3064.78 4525.5,3079C 4637.56,3112.72 4714.73,3184.22 4757,3293.5C 4781.8,3362.99 4794.3,3434.65 4794.5,3508.5 Z"/></g>
<g><path style="opacity:1" fill="#fefefe" d="M 5553.5,3065.5 C 5707.06,3060.95 5841.06,3109.12 5955.5,3210C 5995.9,3247.54 6029.23,3290.37 6055.5,3338.5C 5947.41,3400.63 5839.25,3462.63 5731,3524.5C 5695.76,3465.78 5643.6,3436.45 5574.5,3436.5C 5510.52,3438.7 5462.02,3467.04 5429,3521.5C 5408.77,3559.42 5401.44,3599.75 5407,3642.5C 5415.67,3705.05 5447.83,3750.89 5503.5,3780C 5544.07,3797.16 5585.74,3800.16 5628.5,3789C 5674.95,3776.22 5709.11,3748.39 5731,3705.5C 5839.25,3768.04 5947.42,3830.71 6055.5,3893.5C 6009.53,3977.96 5944.86,4044.13 5861.5,4092C 5754.12,4151.68 5639.12,4175.68 5516.5,4164C 5351.03,4148.04 5218.87,4073.88 5120,3941.5C 5068.1,3868.65 5036.43,3787.65 5025,3698.5C 5014.09,3615.74 5019.42,3534.08 5041,3453.5C 5070.59,3353.31 5124.42,3268.81 5202.5,3200C 5303.17,3113.59 5420.17,3068.76 5553.5,3065.5 Z"/></g>
<g><path style="opacity:1" fill="#fefefe" d="M 6725.5,3065.5 C 6789.09,3063.46 6851.75,3069.96 6913.5,3085C 7044.12,3121.99 7145.95,3197.49 7219,3311.5C 7275.08,3403.98 7301.91,3504.48 7299.5,3613C 7299.67,3658.5 7294.33,3703.33 7283.5,3747.5C 7052.83,3747.33 6822.17,3747.5 6591.5,3748C 6616.49,3795.64 6655.16,3826.3 6707.5,3840C 6765.23,3855.13 6822.89,3855.13 6880.5,3840C 6918.01,3828.34 6951.51,3809.84 6981,3784.5C 7064.67,3855.17 7148.33,3925.83 7232,3996.5C 7231.25,3998.98 7229.92,4001.31 7228,4003.5C 7153.91,4078.14 7065.08,4126.64 6961.5,4149C 6847.42,4172.63 6733.42,4172.29 6619.5,4148C 6469.41,4112.15 6353.91,4028.98 6273,3898.5C 6229.45,3821.65 6205.78,3738.98 6202,3650.5C 6196.4,3553.09 6213.73,3460.09 6254,3371.5C 6305.9,3267.6 6382.4,3187.1 6483.5,3130C 6546.83,3096.56 6614.17,3076.22 6685.5,3069C 6699.02,3068.2 6712.35,3067.03 6725.5,3065.5 Z"/></g>
<g><path style="opacity:1" fill="#929292" d="M 3467.5,3095.5 C 3339.17,3095.5 3210.83,3095.5 3082.5,3095.5C 3082.83,3126.51 3082.5,3157.51 3081.5,3188.5C 3080.89,3188.38 3080.56,3188.04 3080.5,3187.5C 3081.5,3156.67 3081.83,3125.67 3081.5,3094.5C 3210.33,3094.17 3339,3094.5 3467.5,3095.5 Z"/></g>
<g><path style="opacity:1" fill="#9a9a9a" d="M 4138.5,3095.5 C 4010.17,3095.5 3881.83,3095.5 3753.5,3095.5C 3753.5,3442.5 3753.5,3789.5 3753.5,4136.5C 3881.83,4136.5 4010.17,4136.5 4138.5,4136.5C 4010,4137.5 3881.33,4137.83 3752.5,4137.5C 3752.5,3789.83 3752.5,3442.17 3752.5,3094.5C 3881.33,3094.17 4010,3094.5 4138.5,3095.5 Z"/></g>
<g><path style="opacity:1" fill="#000000" d="M 6934.5,3498.5 C 6818.16,3499.16 6702.16,3498.5 6586.5,3496.5C 6617.27,3415.67 6676.11,3375 6763,3374.5C 6803.02,3372.78 6839.86,3382.62 6873.5,3404C 6904.75,3428.3 6925.08,3459.8 6934.5,3498.5 Z"/></g>
<g><path style="opacity:1" fill="#000000" d="M 1496.5,3420.5 C 1589.47,3413.7 1654.3,3452.7 1691,3537.5C 1710.54,3595.26 1708.54,3652.26 1685,3708.5C 1645.51,3784.51 1582.68,3818.68 1496.5,3811C 1428.39,3802.2 1379.89,3766.7 1351,3704.5C 1328,3646.28 1327.67,3587.94 1350,3529.5C 1378.76,3466.05 1427.59,3429.72 1496.5,3420.5 Z"/></g>
<g><path style="opacity:1" fill="#000000" d="M 2872.5,3420.5 C 2914.55,3416.73 2954.21,3424.56 2991.5,3444C 3051.66,3484.3 3081.66,3540.96 3081.5,3614C 3082.9,3686.19 3054.57,3743.19 2996.5,3785C 2958.07,3806.95 2916.74,3815.62 2872.5,3811C 2812.41,3803.55 2767.24,3773.71 2737,3721.5C 2715.45,3680.09 2707.12,3636.09 2712,3589.5C 2719.13,3527.69 2748.3,3479.53 2799.5,3445C 2822.25,3431.76 2846.58,3423.6 2872.5,3420.5 Z"/></g>
<g><path style="opacity:1" fill="#3f3f3f" d="M 6586.5,3496.5 C 6702.16,3498.5 6818.16,3499.16 6934.5,3498.5C 6818.33,3499.5 6702,3499.83 6585.5,3499.5C 6585.26,3498.21 6585.6,3497.21 6586.5,3496.5 Z"/></g>
<g><path style="opacity:1" fill="#313131" d="M 1704.5,4136.5 C 1703.83,4106.17 1703.17,4075.83 1702.5,4045.5C 1702.78,4044.71 1703.28,4044.04 1704,4043.5C 1704.5,4074.5 1704.67,4105.5 1704.5,4136.5 Z"/></g>
<g><path style="opacity:1" fill="#818181" d="M 2089.5,2678.5 C 2090.5,3164.67 2090.83,3651 2090.5,4137.5C 1961.67,4137.83 1833,4137.5 1704.5,4136.5C 1832.83,4136.5 1961.17,4136.5 2089.5,4136.5C 2089.5,3650.5 2089.5,3164.5 2089.5,2678.5 Z"/></g>
<g><path style="opacity:1" fill="#929292" d="M 3080.5,4044.5 C 3080.56,4043.96 3080.89,4043.62 3081.5,4043.5C 3082.5,4074.49 3082.83,4105.49 3082.5,4136.5C 3210.83,4136.5 3339.17,4136.5 3467.5,4136.5C 3339,4137.5 3210.33,4137.83 3081.5,4137.5C 3081.83,4106.33 3081.5,4075.33 3080.5,4044.5 Z"/></g>
<g><path style="opacity:1" fill="#838383" d="M 4794.5,3508.5 C 4795.5,3718 4795.83,3927.67 4795.5,4137.5C 4666.67,4137.83 4538,4137.5 4409.5,4136.5C 4537.83,4136.5 4666.17,4136.5 4794.5,4136.5C 4794.5,3927.17 4794.5,3717.83 4794.5,3508.5 Z"/></g>
<g><path style="opacity:1" fill="#fd78f5" d="M 5268.5,4363.5 C 5453.18,4363.02 5637.85,4363.52 5822.5,4365C 5871.01,4374.51 5904.84,4402.01 5924,4447.5C 5936.77,4486.62 5933.44,4524.29 5914,4560.5C 5891.47,4596.03 5859.3,4616.86 5817.5,4623C 5682.5,4623.5 5547.5,4623.67 5412.5,4623.5C 5412.5,4666.83 5412.5,4710.17 5412.5,4753.5C 5503.5,4753.33 5594.5,4753.5 5685.5,4754C 5738.39,4761.57 5774.89,4790.07 5795,4839.5C 5809.66,4888 5800.99,4931.66 5769,4970.5C 5746.83,4994.83 5719.33,5009 5686.5,5013C 5595.17,5013.5 5503.83,5013.67 5412.5,5013.5C 5412.67,5102.5 5412.5,5191.5 5412,5280.5C 5406.23,5338.94 5375.73,5378.1 5320.5,5398C 5257.65,5413.14 5207.82,5394.31 5171,5341.5C 5161.42,5325.41 5155.42,5308.08 5153,5289.5C 5152.33,5018.17 5152.33,4746.83 5153,4475.5C 5160.71,4430.22 5184.87,4397.06 5225.5,4376C 5239.38,4369.79 5253.71,4365.62 5268.5,4363.5 Z"/></g>
<g><path style="opacity:1" fill="#fd78f5" d="M 6452.5,4363.5 C 6495.44,4360.53 6531.6,4374.53 6561,4405.5C 6573.33,4422.49 6583.33,4440.82 6591,4460.5C 6635.8,4595.9 6680.8,4731.23 6726,4866.5C 6770.87,4732.23 6815.53,4597.9 6860,4463.5C 6867.65,4441.23 6878.65,4420.89 6893,4402.5C 6935.04,4363.02 6983.21,4353.52 7037.5,4374C 7064.16,4385.66 7084,4404.5 7097,4430.5C 7104.37,4444.26 7110.37,4458.6 7115,4473.5C 7179.21,4736.69 7243.88,4999.69 7309,5262.5C 7313.11,5310.17 7296.28,5348.67 7258.5,5378C 7224.08,5401.85 7186.41,5408.85 7145.5,5399C 7120.37,5391.82 7099.53,5378.32 7083,5358.5C 7067.33,5335.15 7055.99,5309.82 7049,5282.5C 7022.8,5171.41 6996.3,5060.41 6969.5,4949.5C 6927.2,5074.24 6886.03,5199.24 6846,5324.5C 6815.77,5384.34 6767.27,5409.84 6700.5,5401C 6655.37,5390.37 6623.54,5363.87 6605,5321.5C 6601.72,5312.39 6599.39,5303.06 6598,5293.5C 6559.68,5179.21 6521.35,5064.88 6483,4950.5C 6481.03,4955.68 6479.37,4961.02 6478,4966.5C 6452.82,5073.54 6427.49,5180.54 6402,5287.5C 6394.08,5315.65 6381.41,5341.32 6364,5364.5C 6334.89,5393.45 6299.73,5406.28 6258.5,5403C 6212.17,5396.76 6177.67,5373.26 6155,5332.5C 6144.9,5312.35 6140.57,5291.02 6142,5268.5C 6207.65,5002.58 6272.98,4736.58 6338,4470.5C 6345.59,4446.99 6356.59,4425.33 6371,4405.5C 6393.21,4381.81 6420.38,4367.81 6452.5,4363.5 Z"/></g>
<g><path style="opacity:1" fill="#fefefe" d="M 3184.5,4383.5 C 3211.5,4383.33 3238.5,4383.5 3265.5,4384C 3295.81,4389.31 3314.97,4406.81 3323,4436.5C 3323.67,4576.17 3323.67,4715.83 3323,4855.5C 3316.12,4886.05 3297.29,4903.88 3266.5,4909C 3231.47,4911.4 3207.64,4896.24 3195,4863.5C 3194.01,4859.56 3193.34,4855.56 3193,4851.5C 3192.5,4739.5 3192.33,4627.5 3192.5,4515.5C 3163.39,4514.03 3142.89,4500.03 3131,4473.5C 3120.14,4434.72 3132.64,4406.22 3168.5,4388C 3173.87,4386.16 3179.21,4384.66 3184.5,4383.5 Z"/></g>
<g><path style="opacity:1" fill="#fefefe" d="M 3664.5,4384.5 C 3776.93,4377.63 3862.76,4421.63 3922,4516.5C 3955.17,4577 3964.17,4641 3949,4708.5C 3929.57,4782.25 3887.07,4838.41 3821.5,4877C 3756.87,4910.87 3689.2,4918.53 3618.5,4900C 3539.61,4874.12 3483.11,4823.28 3449,4747.5C 3429.59,4696.88 3424.92,4644.88 3435,4591.5C 3448.7,4530.91 3479.53,4481.07 3527.5,4442C 3567.52,4409.49 3613.19,4390.32 3664.5,4384.5 Z"/></g>
<g><path style="opacity:1" fill="#fefefe" d="M 4119.5,4383.5 C 4146.5,4383.33 4173.5,4383.5 4200.5,4384C 4230.8,4389.3 4249.97,4406.8 4258,4436.5C 4258.67,4575.83 4258.67,4715.17 4258,4854.5C 4251.58,4885.59 4232.74,4903.76 4201.5,4909C 4170.25,4911.79 4147.41,4899.29 4133,4871.5C 4131.67,4867.5 4130.33,4863.5 4129,4859.5C 4127.51,4744.87 4127.01,4630.2 4127.5,4515.5C 4090.81,4512.98 4068.97,4493.64 4062,4457.5C 4060.04,4424.93 4073.87,4401.76 4103.5,4388C 4108.87,4386.16 4114.21,4384.66 4119.5,4383.5 Z"/></g>
<g><path style="opacity:1" fill="#fefefe" d="M 4768.5,4383.5 C 4787.17,4383.33 4805.84,4383.5 4824.5,4384C 4882.7,4388.5 4927.2,4415.34 4958,4464.5C 4987.63,4519.61 4987.97,4574.94 4959,4630.5C 4955.56,4636.28 4951.72,4641.78 4947.5,4647C 4973.98,4681.73 4984.48,4720.89 4979,4764.5C 4971.62,4817.45 4945.45,4858.28 4900.5,4887C 4879.71,4898.93 4857.38,4906.26 4833.5,4909C 4806.8,4909.93 4780.14,4909.59 4753.5,4908C 4706.42,4900.22 4666.92,4878.72 4635,4843.5C 4626.95,4833.78 4619.28,4823.78 4612,4813.5C 4593.24,4775.14 4601.41,4743.97 4636.5,4720C 4657.49,4710.11 4678.49,4710.11 4699.5,4720C 4706.54,4724.04 4712.71,4729.2 4718,4735.5C 4724.79,4744.62 4731.95,4753.46 4739.5,4762C 4756.62,4775.45 4776.12,4780.95 4798,4778.5C 4815.12,4781.82 4829.79,4777.49 4842,4765.5C 4852.47,4748.2 4850.3,4732.7 4835.5,4719C 4831.55,4716.19 4827.21,4714.19 4822.5,4713C 4805.5,4712.67 4788.5,4712.33 4771.5,4712C 4732.46,4700.94 4714.63,4675.11 4718,4634.5C 4724.72,4606.78 4741.89,4589.28 4769.5,4582C 4786.5,4581.67 4803.5,4581.33 4820.5,4581C 4841.16,4575.33 4850.33,4561.83 4848,4540.5C 4843.74,4527.9 4835.24,4519.74 4822.5,4516C 4805.5,4515.33 4788.5,4515.33 4771.5,4516C 4756.18,4519.24 4743.34,4526.74 4733,4538.5C 4726.76,4545.99 4720.76,4553.65 4715,4561.5C 4691.16,4583.28 4664.66,4587.11 4635.5,4573C 4605.15,4552.44 4595.65,4524.61 4607,4489.5C 4642.91,4426.96 4696.74,4391.62 4768.5,4383.5 Z"/></g>
<g><path style="opacity:1" fill="#000000" d="M 3676.5,4515.5 C 3742.12,4512.21 3788.62,4540.21 3816,4599.5C 3834.04,4656.02 3821.87,4704.85 3779.5,4746C 3742.48,4776 3700.81,4785 3654.5,4773C 3600.98,4754.14 3570.14,4716.64 3562,4660.5C 3558.79,4602.75 3581.95,4559.25 3631.5,4530C 3645.87,4522.82 3660.87,4517.99 3676.5,4515.5 Z"/></g>
<g><path style="opacity:0.998" fill="#fd00f2" d="M 7854.5,4743.5 C 7847.65,4871.25 7830.49,4997.58 7803,5122.5C 7720.66,5492.53 7555.99,5819.2 7309,6102.5C 7166.24,6262 7006.08,6400.17 6828.5,6517C 6649.76,6633.04 6460.42,6729.71 6260.5,6807C 6075.06,6878.37 5885.39,6936.03 5691.5,6980C 5350.2,7054.97 5005.53,7107.14 4657.5,7136.5C 4431.82,7154.53 4205.82,7160.37 3979.5,7154C 3655.38,7145.47 3335.38,7104.8 3019.5,7032C 2674.39,6951.86 2346.72,6826.86 2036.5,6657C 1796.66,6523.47 1574.32,6365.47 1369.5,6183C 1283.83,6107 1201.66,6027.16 1123,5943.5C 1051.48,5865.42 988.478,5781.09 934,5690.5C 856.717,5555.99 807.717,5411.66 787,5257.5C 784.252,5237.85 781.752,5218.18 779.5,5198.5C 770.786,5108.53 767.786,5018.53 770.5,4928.5C 811.865,5009.58 856.032,5088.91 903,5166.5C 1073.68,5442.88 1276.18,5695.04 1510.5,5923C 1918.05,6316.8 2388.38,6614.8 2921.5,6817C 3246.11,6937.76 3580.45,7018.42 3924.5,7059C 4099.57,7079.5 4275.24,7087.17 4451.5,7082C 4844.16,7067.07 5223.83,6989.4 5590.5,6849C 5884.64,6735.74 6160.64,6590.4 6418.5,6413C 6762.61,6175.28 7067.45,5893.45 7333,5567.5C 7538.76,5314.26 7712.59,5039.59 7854.5,4743.5 Z"/></g>
<g><path style="opacity:1" fill="#fdfdfd" d="M 4417.5,4778.5 C 4456.55,4774.93 4482.39,4791.6 4495,4828.5C 4500.62,4868.45 4484.45,4894.95 4446.5,4908C 4411.91,4913.79 4386.41,4901.29 4370,4870.5C 4357.36,4832.73 4368.2,4803.9 4402.5,4784C 4407.57,4782.04 4412.57,4780.2 4417.5,4778.5 Z"/></g>
</svg>
