<svg width="1839" height="389" viewBox="0 0 1839 389" fill="none" xmlns="http://www.w3.org/2000/svg">
<path d="M35.1179 97.0793C40.1023 64.7506 53.7046 40.4808 75.785 24.3164C97.912 8.1521 127.679 0.0466309 165.038 0.0466309C204.913 0.0466309 232.491 9.31668 247.77 27.8102C263.049 46.3037 267.801 73.5548 262.071 109.517L261.559 115.433H181.249L181.762 109.517C182.88 104.812 183.392 100.107 183.392 95.216C183.392 90.3248 182.46 85.8528 180.69 81.7535C178.92 77.6542 176.032 74.207 172.072 71.5518C168.113 68.8499 162.15 67.4524 154.278 67.4524C142.073 67.4524 132.896 70.4338 126.794 76.3498C120.645 82.2659 116.871 89.5328 115.474 98.1973C114.356 103.927 115.008 109.424 117.337 114.641C119.666 119.812 122.694 124.936 126.467 130.014C130.241 135.091 134.666 139.982 139.697 144.827C144.681 149.672 149.573 154.097 154.231 158.01L184.417 184.423C192.336 191.597 199.743 198.817 206.544 205.944C213.392 213.118 219.028 220.99 223.5 229.422C228.019 237.854 231.14 247.03 232.91 256.906C234.727 266.782 234.54 277.822 232.398 290.027C227.367 321.657 213.205 346.02 189.821 363.069C166.482 380.165 136.809 388.69 100.893 388.69C62.0896 388.69 34.4658 379.187 18.1617 360.134C1.81099 341.128 -3.49948 313.644 2.23024 277.682L3.86065 269.018H84.17L82.5396 279.266C81.4216 284.25 81.1887 289.235 81.7477 294.033C82.2601 298.924 83.6576 303.303 86.0333 307.262C88.3625 311.222 91.6699 314.436 96.0021 316.952C100.288 319.467 106.064 320.725 113.238 320.725C126.188 320.725 135.691 317.651 141.84 311.548C147.942 305.446 151.716 297.899 153.16 288.909C153.858 283.179 152.694 277.31 149.666 271.347C146.591 265.431 142.539 259.608 137.508 253.832C132.523 248.102 126.747 242.512 120.272 237.108C113.843 231.705 107.881 226.534 102.524 221.503L92.2754 212.838C83.6576 204.593 75.3658 196.395 67.4932 188.336C59.6207 180.277 52.9127 171.706 47.5091 162.715C42.1054 153.771 38.1458 143.849 35.6769 133.088C33.1614 122.281 32.9751 110.216 35.1645 96.9396L35.1179 97.0793Z" fill="white"/>
<path d="M258.854 384.963L319.226 3.82007H412.439C432.563 3.82007 450.218 5.35731 465.311 8.4318C480.404 11.5063 492.935 17.0031 503.043 24.8756C514.549 33.4935 522.422 44.7201 526.754 58.5553C531.086 72.3905 531.785 89.1604 528.944 108.958L524.611 135.371C518.882 172.358 503.23 199.842 477.702 217.87C452.221 235.804 418.448 244.795 376.384 244.795H360.778L338.651 384.963H258.854ZM371.539 177.435H390.918C408.153 177.435 420.824 173.662 428.93 166.116C437.035 158.569 442.113 148.368 444.302 135.417L448.075 112.778C449.892 99.8279 447.982 89.6728 442.439 82.2661C436.895 74.8594 425.482 71.2259 408.2 71.2259H388.216L371.539 177.435Z" fill="white"/>
<path d="M769.362 279.313C763.633 315.228 749.984 342.433 728.369 360.973C706.848 379.466 675.917 388.736 635.669 388.736C595.421 388.736 568.543 379.466 552.937 360.973C537.285 342.479 532.347 315.275 538.124 279.313L564.536 109.47C570.266 73.5548 584.008 46.3036 605.762 27.7636C627.517 9.27005 658.122 0 697.671 0C737.22 0 765.776 9.27005 781.241 27.7636C796.707 46.2571 801.505 73.5082 795.775 109.47L769.362 279.313ZM617.874 279.313C616.803 284.297 616.383 289.281 616.57 294.079C616.756 298.971 617.781 303.349 619.784 307.309C621.74 311.269 624.815 314.483 628.961 316.998C633.107 319.514 638.976 320.772 646.523 320.772C654.069 320.772 660.963 319.514 666.181 316.998C671.398 314.436 675.544 311.269 678.618 307.309C681.646 303.303 684.022 298.924 685.653 294.079C687.236 289.235 688.587 284.297 689.705 279.313L716.118 109.47C717.189 104.439 717.655 99.5016 717.469 94.6569C717.236 89.7657 716.211 85.3869 714.208 81.4739C712.205 77.5609 709.177 74.2069 705.031 71.5051C700.885 68.8033 694.876 67.4058 686.957 67.4058C679.038 67.4058 673.029 68.7567 667.811 71.5051C662.594 74.1604 658.448 77.5143 655.374 81.4739C652.346 85.4335 650.016 89.8123 648.386 94.6569C646.756 99.5016 645.405 104.439 644.333 109.47L617.874 279.313Z" fill="white"/>
<path d="M1029.71 384.963H946.143L931.05 243.723H900.352L878.225 384.963H798.428L858.846 3.82007H952.059C972.183 3.82007 989.698 5.45048 1004.6 8.7113C1019.51 11.9721 1032.04 17.5155 1042.1 25.4346C1053.61 33.6799 1061.58 44.8132 1066.05 58.8813C1070.57 72.8563 1071.17 89.766 1067.91 109.564L1063.63 137.048C1057.52 176.923 1039.03 205.478 1008.1 222.714L1029.67 385.01L1029.71 384.963ZM911.159 176.364H930.538C947.447 176.364 959.932 172.777 967.99 165.557C976.049 158.336 981.36 148.321 983.875 135.371L987.649 110.03C989.465 97.0795 987.369 87.3902 981.453 80.9618C975.537 74.4867 964.124 71.2259 947.214 71.2259H927.789L911.112 176.364H911.159Z" fill="white"/>
<path d="M1334.32 71.2259H1255.6L1205.99 385.01H1126.24L1175.8 71.2259H1098.19L1109 3.82007H1345.13L1334.32 71.2259Z" fill="white"/>
<path d="M1319.7 384.963L1380.11 3.82007H1587.08L1576.28 71.2259H1449.06L1434.52 160.712H1533.14L1522.38 228.63H1423.72L1409.69 317.604H1536.91L1526.71 385.01H1319.7V384.963Z" fill="white"/>
<path d="M1798.48 384.963H1714.91L1699.81 243.723H1669.11L1646.99 384.963H1567.19L1627.61 3.82007H1720.82C1740.95 3.82007 1758.46 5.45048 1773.37 8.7113C1788.27 11.9721 1800.8 17.5155 1810.87 25.4346C1822.37 33.6799 1830.34 44.8132 1834.81 58.8813C1839.33 72.8563 1839.93 89.766 1836.67 109.564L1832.39 137.048C1826.29 176.923 1807.79 205.478 1776.86 222.714L1798.43 385.01L1798.48 384.963ZM1679.88 176.364H1699.25C1716.16 176.364 1728.65 172.777 1736.71 165.557C1744.77 158.383 1750.08 148.321 1752.59 135.371L1756.36 110.03C1758.18 97.0795 1756.09 87.3902 1750.17 80.9618C1744.25 74.4867 1732.84 71.2259 1715.93 71.2259H1696.51L1679.83 176.364H1679.88Z" fill="white"/>
</svg>
