<?xml version="1.0" encoding="UTF-8"?>
<!DOCTYPE svg PUBLIC "-//W3C//DTD SVG 1.1//EN" "http://www.w3.org/Graphics/SVG/1.1/DTD/svg11.dtd">
<svg xmlns="http://www.w3.org/2000/svg" version="1.1" width="1000px" height="1000px" style="shape-rendering:geometricPrecision; text-rendering:geometricPrecision; image-rendering:optimizeQuality; fill-rule:evenodd; clip-rule:evenodd" xmlns:xlink="http://www.w3.org/1999/xlink">
<g><path style="opacity:0.944" fill="#fefffe" d="M 211.5,297.5 C 297.776,322.48 383.776,348.48 469.5,375.5C 477.246,369.929 484.579,363.762 491.5,357C 503.5,356.333 515.5,356.333 527.5,357C 534.333,363.167 541.167,369.333 548,375.5C 632.805,349.677 717.638,323.844 802.5,298C 804.259,297.202 805.926,297.369 807.5,298.5C 768.943,313.778 730.61,329.611 692.5,346C 651.458,363.675 613.125,385.675 577.5,412C 565.132,422.701 553.799,434.367 543.5,447C 520.833,447.667 498.167,447.667 475.5,447C 463.378,431.208 449.044,417.875 432.5,407C 397.202,383.845 360.202,363.512 321.5,346C 284.527,330.002 247.861,313.836 211.5,297.5 Z M 503.5,376.5 C 527.179,377.854 533.012,388.854 521,409.5C 510.69,420.885 501.69,419.885 494,406.5C 486.634,392.761 489.801,382.761 503.5,376.5 Z"/></g>
<g><path style="opacity:0.958" fill="#fefffe" d="M 52.5,480.5 C 90.1681,480.333 127.835,480.5 165.5,481C 183.498,480.648 190.998,489.148 188,506.5C 183.448,522.509 176.781,537.509 168,551.5C 160.661,559.586 151.494,564.086 140.5,565C 146.726,578.847 152.06,593.014 156.5,607.5C 140.833,607.5 125.167,607.5 109.5,607.5C 105.773,594.32 101.44,581.32 96.5,568.5C 84.8333,567.167 73.1667,567.167 61.5,568.5C 56.7894,581.468 51.7894,594.302 46.5,607C 33.1708,607.5 19.8375,607.667 6.5,607.5C 20.6582,564.688 35.9915,522.355 52.5,480.5 Z M 81.5,511.5 C 101.503,511.333 121.503,511.5 141.5,512C 142.804,512.804 143.471,513.971 143.5,515.5C 141.296,522.277 138.796,528.944 136,535.5C 134.581,536.46 133.081,537.293 131.5,538C 111.594,538.173 91.7602,538.673 72,539.5C 75.0322,530.239 78.1989,520.905 81.5,511.5 Z"/></g>
<g><path style="opacity:0.949" fill="#fefffe" d="M 213.5,480.5 C 257.167,480.5 300.833,480.5 344.5,480.5C 341.779,491.831 337.779,502.665 332.5,513C 302.494,513.167 272.494,513.667 242.5,514.5C 240.593,519.391 238.593,524.224 236.5,529C 264.498,529.5 292.498,529.667 320.5,529.5C 317.594,538.481 314.261,547.315 310.5,556C 282.494,556.167 254.494,556.667 226.5,557.5C 224.651,563.549 222.318,569.383 219.5,575C 250.505,575.167 281.505,575.667 312.5,576.5C 308.231,586.641 304.564,596.975 301.5,607.5C 256.833,607.5 212.167,607.5 167.5,607.5C 182.437,565.021 197.771,522.687 213.5,480.5 Z"/></g>
<g><path style="opacity:0.956" fill="#fefffe" d="M 392.5,480.5 C 422.192,480.085 451.858,480.585 481.5,482C 495.353,485.56 500.52,494.393 497,508.5C 495.285,515.646 492.785,522.479 489.5,529C 476.487,529.833 463.487,529.666 450.5,528.5C 451.654,525.548 452.654,522.548 453.5,519.5C 452.96,518.252 452.293,517.085 451.5,516C 430.436,515.034 409.436,515.368 388.5,517C 386.044,519.408 384.211,522.241 383,525.5C 377.803,539.424 372.803,553.424 368,567.5C 367.257,569.441 367.424,571.274 368.5,573C 387.768,574.629 407.102,574.962 426.5,574C 433.625,572.293 437.958,567.793 439.5,560.5C 452.483,559.501 465.483,559.168 478.5,559.5C 475.289,576.517 466.956,590.351 453.5,601C 449.581,602.862 445.581,604.529 441.5,606C 407.2,607.625 372.867,607.958 338.5,607C 324.624,604.095 319.124,595.595 322,581.5C 329.979,554.874 339.646,528.874 351,503.5C 360.726,488.388 374.559,480.721 392.5,480.5 Z"/></g>
<g><path style="opacity:0.962" fill="#fefffe" d="M 556.5,480.5 C 584.169,480.333 611.835,480.5 639.5,481C 647.97,480.82 655.47,483.32 662,488.5C 665.356,494.721 666.356,501.388 665,508.5C 656.897,532.706 648.23,556.706 639,580.5C 632.864,593.304 623.031,601.804 609.5,606C 590.702,607.127 571.869,607.627 553,607.5C 534.131,607.627 515.298,607.127 496.5,606C 486.154,600.987 482.321,592.82 485,581.5C 492.606,558.682 500.606,536.016 509,513.5C 517.652,491.995 533.485,480.995 556.5,480.5 Z M 558.5,515.5 C 577.17,515.333 595.836,515.5 614.5,516C 616.101,516.273 617.601,516.773 619,517.5C 619.809,522.363 619.142,527.03 617,531.5C 612.667,543.167 608.333,554.833 604,566.5C 602.437,569.728 599.937,571.895 596.5,573C 575.167,573.667 553.833,573.667 532.5,573C 530.675,571.534 530.175,569.701 531,567.5C 536.582,551.082 542.749,534.916 549.5,519C 552.35,517.209 555.35,516.042 558.5,515.5 Z"/></g>
<g><path style="opacity:0.958" fill="#fefffe" d="M 691.5,480.5 C 729.168,480.333 766.835,480.5 804.5,481C 822.84,480.325 830.34,488.825 827,506.5C 823.319,519.211 818.652,531.545 813,543.5C 805.563,555.757 794.73,563.09 780.5,565.5C 786.078,579.317 791.078,593.317 795.5,607.5C 780.163,607.667 764.83,607.5 749.5,607C 744.989,594.137 740.322,581.304 735.5,568.5C 723.833,567.167 712.167,567.167 700.5,568.5C 695.789,581.468 690.789,594.302 685.5,607C 671.821,607.833 658.154,607.666 644.5,606.5C 660.185,564.438 675.852,522.438 691.5,480.5 Z M 720.5,511.5 C 740.503,511.333 760.503,511.5 780.5,512C 781.578,512.674 782.245,513.674 782.5,515C 780.688,522.081 778.188,528.914 775,535.5C 773.829,536.893 772.329,537.727 770.5,538C 750.5,538.667 730.5,538.667 710.5,538C 714.33,529.343 717.663,520.51 720.5,511.5 Z"/></g>
<g><path style="opacity:0.956" fill="#fefffe" d="M 853.5,480.5 C 889.168,480.333 924.835,480.5 960.5,481C 984.576,481.065 995.076,492.898 992,516.5C 985.701,533.78 979.368,551.113 973,568.5C 962.945,592.271 945.111,605.438 919.5,608C 881.835,608.5 844.168,608.667 806.5,608.5C 821.005,565.311 836.671,522.644 853.5,480.5 Z M 880.5,515.5 C 901.169,515.333 921.836,515.5 942.5,516C 946.102,516.85 947.769,519.183 947.5,523C 943.739,535.615 939.573,548.115 935,560.5C 932.807,566.693 928.641,570.859 922.5,573C 901.594,573.173 880.76,573.673 860,574.5C 866.356,554.783 873.189,535.117 880.5,515.5 Z"/></g>
<g><path style="opacity:0.938" fill="#fefffe" d="M 109.5,636.5 C 129.503,636.333 149.503,636.5 169.5,637C 178.58,639.991 181.747,646.157 179,655.5C 175.635,666.602 171.302,677.268 166,687.5C 162.097,692.868 156.93,696.368 150.5,698C 129.5,698.667 108.5,698.667 87.5,698C 95.5237,677.734 102.857,657.234 109.5,636.5 Z M 124.5,653.5 C 134.839,653.334 145.172,653.5 155.5,654C 156,654.5 156.5,655 157,655.5C 155.779,661.176 154.112,666.843 152,672.5C 151.237,675.47 149.737,677.97 147.5,680C 136.598,681.62 125.598,681.954 114.5,681C 118.528,672.082 121.861,662.916 124.5,653.5 Z"/></g>
<g><path style="opacity:0.932" fill="#fefffe" d="M 213.5,636.5 C 221.42,636.185 229.253,636.518 237,637.5C 239.277,657.791 242.111,677.957 245.5,698C 237.479,698.832 229.479,698.665 221.5,697.5C 220.607,694.916 220.274,692.249 220.5,689.5C 210.161,689.334 199.828,689.5 189.5,690C 187.402,692.854 185.069,695.521 182.5,698C 174.833,698.667 167.167,698.667 159.5,698C 178.023,677.976 196.023,657.476 213.5,636.5 Z M 217.5,654.5 C 218.515,660.987 219.182,667.654 219.5,674.5C 213.491,674.666 207.491,674.499 201.5,674C 206.961,667.561 212.294,661.061 217.5,654.5 Z"/></g>
<g><path style="opacity:0.932" fill="#fefffe" d="M 269.5,636.5 C 275.537,636.171 281.537,636.504 287.5,637.5C 295.667,649.167 303.833,660.833 312,672.5C 316.668,660.663 320.834,648.663 324.5,636.5C 331.532,636.17 338.532,636.503 345.5,637.5C 337.97,657.423 330.637,677.423 323.5,697.5C 317.167,698.833 310.833,698.833 304.5,697.5C 296.889,685.889 288.889,674.556 280.5,663.5C 276.169,674.824 271.836,686.157 267.5,697.5C 260.833,698.833 254.167,698.833 247.5,697.5C 254.844,677.132 262.177,656.799 269.5,636.5 Z"/></g>
<g><path style="opacity:0.932" fill="#fefffe" d="M 362.5,636.5 C 380.236,636.041 397.902,636.541 415.5,638C 418.904,640.062 420.57,643.062 420.5,647C 420.213,652.195 418.547,656.862 415.5,661C 409.175,661.5 402.842,661.666 396.5,661.5C 397.45,658.932 397.45,656.432 396.5,654C 387.167,653.333 377.833,653.333 368.5,654C 366.185,655.109 364.685,656.943 364,659.5C 361.401,666.462 358.901,673.462 356.5,680.5C 357.025,681.192 357.692,681.692 358.5,682C 367.5,682.667 376.5,682.667 385.5,682C 388.9,680.868 390.9,678.535 391.5,675C 398.192,674.169 404.858,674.336 411.5,675.5C 404.018,697.429 388.851,705.096 366,698.5C 356.072,698.643 346.238,698.143 336.5,697C 335.667,696.167 334.833,695.333 334,694.5C 333.333,690.833 333.333,687.167 334,683.5C 337.663,673.178 341.33,662.844 345,652.5C 348.503,644.492 354.336,639.159 362.5,636.5 Z"/></g>
<g><path style="opacity:0.926" fill="#fefffe" d="M 429.5,636.5 C 451.51,636.167 473.51,636.5 495.5,637.5C 493.353,642.291 491.353,647.125 489.5,652C 474.504,652.5 459.504,652.667 444.5,652.5C 444.244,654.937 443.577,657.271 442.5,659.5C 455.817,660.499 469.15,660.833 482.5,660.5C 480.968,665.097 479.635,669.764 478.5,674.5C 464.817,674.167 451.15,674.501 437.5,675.5C 436.399,677.642 435.399,679.808 434.5,682C 449.496,682.5 464.496,682.667 479.5,682.5C 477.833,687.833 476.167,693.167 474.5,698.5C 452.164,698.667 429.831,698.5 407.5,698C 415.138,677.584 422.471,657.084 429.5,636.5 Z"/></g>
<g><path style="opacity:0.932" fill="#fefffe" d="M 526.5,636.5 C 546.836,636.333 567.169,636.5 587.5,637C 594.406,639.811 596.239,644.645 593,651.5C 590.787,660.429 586.62,668.262 580.5,675C 577.212,676.582 573.879,677.915 570.5,679C 573.129,685.095 575.629,691.262 578,697.5C 595.5,677.333 613,657.167 630.5,637C 638.493,636.5 646.493,636.334 654.5,636.5C 656.833,657.166 659.166,677.832 661.5,698.5C 653.833,698.5 646.167,698.5 638.5,698.5C 638.037,695.518 637.704,692.518 637.5,689.5C 627.161,689.334 616.828,689.5 606.5,690C 604.402,692.854 602.069,695.521 599.5,698C 584.5,698.667 569.5,698.667 554.5,698C 552.076,691.981 550.076,685.815 548.5,679.5C 542.794,679.171 537.128,679.505 531.5,680.5C 528.92,686.323 526.92,692.323 525.5,698.5C 518.159,698.666 510.826,698.5 503.5,698C 511.268,677.527 518.935,657.027 526.5,636.5 Z M 541.5,651.5 C 550.839,651.334 560.173,651.5 569.5,652C 570.398,656.337 569.398,660.337 566.5,664C 556.839,664.5 547.172,664.666 537.5,664.5C 538.829,660.178 540.163,655.845 541.5,651.5 Z M 633.5,655.5 C 634.268,656.263 634.768,657.263 635,658.5C 635.567,663.834 636.067,669.167 636.5,674.5C 630.158,674.666 623.825,674.5 617.5,674C 623.203,668.051 628.537,661.884 633.5,655.5 Z"/></g>
<g><path style="opacity:0.936" fill="#fefffe" d="M 686.5,636.5 C 706.503,636.333 726.503,636.5 746.5,637C 752.982,638.649 756.316,642.816 756.5,649.5C 753.291,662.293 748.791,674.626 743,686.5C 738.714,692.724 732.881,696.557 725.5,698C 705.158,698.833 684.825,698.666 664.5,697.5C 671.841,677.143 679.174,656.81 686.5,636.5 Z M 701.5,653.5 C 711.886,653.191 722.219,653.524 732.5,654.5C 733.641,656.421 733.808,658.421 733,660.5C 730.543,667.217 727.71,673.717 724.5,680C 718.772,681.123 712.939,681.623 707,681.5C 701.833,681.167 696.667,680.833 691.5,680.5C 695.125,671.588 698.458,662.588 701.5,653.5 Z"/></g>
<g><path style="opacity:0.921" fill="#fefffe" d="M 768.5,636.5 C 775.532,636.17 782.532,636.503 789.5,637.5C 782.041,657.041 774.875,676.707 768,696.5C 764.429,697.792 760.595,698.458 756.5,698.5C 752.833,698.333 749.167,698.167 745.5,698C 753.275,677.505 760.942,657.005 768.5,636.5 Z"/></g>
<g><path style="opacity:0.934" fill="#fefffe" d="M 806.5,636.5 C 823.837,636.333 841.17,636.5 858.5,637C 861.548,637.606 864.048,639.106 866,641.5C 866.751,646.572 866.418,651.572 865,656.5C 861.115,668.156 856.448,679.489 851,690.5C 848.795,693.04 846.295,695.207 843.5,697C 823.231,698.631 802.898,698.964 782.5,698C 781.069,697.535 779.903,696.701 779,695.5C 777.48,691.625 777.146,687.625 778,683.5C 781.8,672.435 785.8,661.435 790,650.5C 793.561,643.431 799.061,638.764 806.5,636.5 Z M 811.5,654.5 C 822.167,654.5 832.833,654.5 843.5,654.5C 841.776,663.17 838.943,671.504 835,679.5C 834.5,680 834,680.5 833.5,681C 822.833,681.667 812.167,681.667 801.5,681C 801.043,680.586 800.709,680.086 800.5,679.5C 803.616,670.782 807.282,662.449 811.5,654.5 Z"/></g>
</svg>
