<?xml version="1.0" encoding="UTF-8"?>
<!DOCTYPE svg PUBLIC "-//W3C//DTD SVG 1.1//EN" "http://www.w3.org/Graphics/SVG/1.1/DTD/svg11.dtd">
<svg xmlns="http://www.w3.org/2000/svg" version="1.1" width="512px" height="512px" style="shape-rendering:geometricPrecision; text-rendering:geometricPrecision; image-rendering:optimizeQuality; fill-rule:evenodd; clip-rule:evenodd" xmlns:xlink="http://www.w3.org/1999/xlink">
<g><path style="opacity:0.994" fill="#ef4926" d="M 233.5,136.5 C 291.597,132.1 324.431,158.766 332,216.5C 334.784,245.362 328.451,272.029 313,296.5C 288.752,334.072 255.252,359.572 212.5,373C 207.56,374.041 202.894,373.374 198.5,371C 192,363.833 185.5,356.667 179,349.5C 176.129,343.587 177.629,339.087 183.5,336C 204.767,323.4 221.267,306.233 233,284.5C 235.466,278.268 237.633,271.934 239.5,265.5C 222.166,263.006 206.833,256.173 193.5,245C 178.304,228.729 172.804,209.563 177,187.5C 180.975,166.856 192.475,152.022 211.5,143C 218.77,140.188 226.104,138.021 233.5,136.5 Z"/></g>
<g><path style="opacity:0.994" fill="#fcba2a" d="M 108.5,172.5 C 139.099,171.702 158.266,186.035 166,215.5C 171.134,242.631 165.134,266.964 148,288.5C 132.664,307.157 113.498,320.323 90.5,328C 87.5,328.667 84.5,328.667 81.5,328C 76.3,323.135 71.4666,317.968 67,312.5C 66.3333,310.5 66.3333,308.5 67,306.5C 71.7449,302.878 76.5782,299.378 81.5,296C 93.967,286.226 102.3,273.726 106.5,258.5C 69.7484,250 57.9151,228 71,192.5C 80.3817,179.894 92.8817,173.227 108.5,172.5 Z"/></g>
<g><path style="opacity:0.992" fill="#acb44e" d="M 385.5,172.5 C 416.295,172.132 435.462,186.799 443,216.5C 448.064,243.863 441.731,268.196 424,289.5C 408.987,307.83 390.154,320.664 367.5,328C 364.5,328.667 361.5,328.667 358.5,328C 352.291,322.622 346.958,316.455 342.5,309.5C 343.592,306.906 345.259,304.739 347.5,303C 365.837,293.004 377.837,278.004 383.5,258C 369.631,256.15 358.131,249.984 349,239.5C 339.143,223.189 339.143,206.856 349,190.5C 358.676,179.245 370.842,173.245 385.5,172.5 Z"/></g>
</svg>
