<svg width="139" height="61" viewBox="0 0 139 61" fill="none" xmlns="http://www.w3.org/2000/svg">
<path d="M25.1469 10.2313C24.9252 10.4161 24.7235 10.6297 24.3776 10.7725C24.3101 10.5382 24.2492 10.3684 24.2127 10.1935C24.0384 9.358 23.6995 8.6034 23.1639 7.93989C23.0224 7.76442 22.8932 7.5776 22.7716 7.38733C22.5121 6.98163 22.1783 6.64936 21.7987 6.36294C21.2776 5.97002 20.7504 5.58522 20.2288 5.19271C20.0278 5.04139 19.8122 4.93914 19.5651 4.88153C18.8668 4.71885 18.1699 4.54846 17.4774 4.36285C16.7254 4.16143 15.9697 4.16244 15.2129 4.29896C14.7284 4.38639 14.2533 4.52898 13.768 4.61073C12.8166 4.77078 11.9858 5.16309 11.2316 5.77671C10.3315 6.509 9.67947 7.3922 9.35666 8.52044C9.09516 9.43488 8.81684 10.3443 8.55354 11.2581C8.10229 12.8251 7.64142 14.3897 7.21341 15.9632C6.81506 17.4275 6.45378 18.9024 6.07666 20.3727C5.58173 22.3036 5.08339 24.2337 4.59407 26.1662C4.35502 27.1103 4.12879 28.0576 3.90497 29.0055C3.31666 31.4973 2.7041 33.9838 2.15586 36.4848C1.62246 38.9177 1.04256 41.3414 0.621169 43.7991C0.464072 44.7143 0.266301 45.6227 0.0777451 46.5321C0.0028037 46.8927 -0.0234483 47.2497 0.0571038 47.611C0.22462 48.3624 0.384121 49.1157 0.566265 49.8636C0.613153 50.0564 0.71615 50.2416 0.821348 50.4126C1.41827 51.3826 2.09836 52.2747 3.09464 52.8693C3.30624 52.9956 3.49479 53.1605 3.69898 53.3003C4.54017 53.876 5.44087 54.3255 6.42653 54.5852C6.94651 54.7219 7.46749 54.8574 7.99408 54.9631C8.27682 55.0197 8.5828 55.0724 8.85952 55.0219C9.62977 54.8813 10.3902 54.6864 11.154 54.5111C11.1969 54.5012 11.2408 54.4817 11.2763 54.4555C11.8103 54.064 12.3434 53.671 12.8764 53.2782L13.0146 53.1764C13.5844 52.4189 14.1577 51.6771 14.3653 50.7016C14.7661 48.8178 15.2235 46.9463 15.6451 45.0667C15.7383 44.6517 15.8964 44.266 16.0455 43.7869C16.2238 43.9956 16.3589 44.1374 16.4761 44.293C17.8485 46.114 19.2167 47.938 20.7213 49.6519C21.824 50.9081 22.975 52.1175 24.2343 53.2115C26.3642 55.0616 28.6066 56.7544 31.1023 58.0802C31.8355 58.4699 32.5867 58.8423 33.2626 59.3198C33.8489 59.7341 34.4588 60.0124 35.1503 60.1406C35.3044 60.1692 35.4575 60.2061 35.6084 60.2485C36.1184 60.3921 36.6247 60.3848 37.1345 60.2404C37.4363 60.1548 37.743 60.0862 38.0498 60.0211C38.9283 59.8345 39.5705 59.2884 40.1249 58.6172C40.3534 58.3407 40.5501 58.0374 40.7379 57.7786C41.4983 57.6843 42.2089 57.6023 42.9178 57.5066C44.0051 57.3597 45.0885 57.182 46.1782 57.0585C46.9087 56.9757 47.6487 57.0157 48.3811 56.899C48.8652 56.822 49.3612 56.8157 49.8523 56.7883C50.1649 56.7708 50.4839 56.7337 50.7901 56.7775C51.0878 56.8199 51.3671 56.799 51.6535 56.7394C51.8066 56.7076 51.9617 56.6783 52.1172 56.668C53.1223 56.6011 54.1278 56.542 55.1329 56.4755C55.6458 56.4414 56.158 56.3946 56.671 56.3585C57.1617 56.324 57.6528 56.2907 58.1441 56.2664C58.4792 56.2499 58.8194 56.2128 59.1486 56.2548C59.3995 56.2869 59.6301 56.2777 59.8752 56.2339C60.2491 56.167 60.6282 56.1242 61.0069 56.0943C61.3408 56.068 61.6776 56.0832 62.0122 56.0633C63.3744 55.9826 64.7358 55.8895 66.0981 55.8136C66.6548 55.7826 67.2138 55.7953 67.7707 55.7676C68.9545 55.7081 70.1372 55.6211 71.3214 55.5718C72.5507 55.5207 73.7809 55.4884 75.011 55.4696C76.8911 55.441 78.7715 55.4272 80.6518 55.4158C81.0989 55.413 81.5463 55.4572 81.9938 55.458C82.4636 55.459 82.9337 55.4148 83.4032 55.4239C84.6792 55.4489 85.9556 55.4763 87.2306 55.5329C87.9901 55.5665 88.7481 55.5891 89.5079 55.5694C89.6634 55.5653 89.8197 55.5953 89.976 55.6049C90.5343 55.6388 91.0925 55.6874 91.6514 55.6996C92.6587 55.7217 93.6666 55.7126 94.6739 55.7327C95.8144 55.7552 96.9548 55.7976 98.0955 55.8268C98.4536 55.8361 98.8133 55.8116 99.17 55.8367C99.951 55.8919 100.731 55.9688 101.511 56.0371C101.959 56.0765 102.404 56.0832 102.844 55.9568C103.189 55.858 103.538 55.77 103.889 55.7031C104.958 55.5 105.739 54.8375 106.463 54.0792C106.536 54.0026 106.609 53.9257 106.694 53.8362C106.9 53.9926 107.079 54.1259 107.255 54.2638C108.212 55.0136 109.171 55.7601 110.121 56.5179C110.428 56.7627 110.765 56.9165 111.144 56.9999C113.284 57.4711 112.444 57.4871 114.628 56.9964C115.028 56.9066 115.397 56.7587 115.717 56.4917C115.872 56.3621 116.051 56.2613 116.206 56.1313C116.891 55.5566 117.429 54.8791 117.626 53.9738C117.732 53.4869 117.919 52.9995 117.919 52.5126C117.918 52.0025 117.735 51.4927 117.632 50.983C117.618 50.9162 117.599 50.8509 117.587 50.784C117.513 50.3513 117.323 49.9722 117.091 49.6044C116.15 48.1137 115.22 46.616 114.285 45.1214C114.167 44.9338 114.025 44.7583 114.001 44.5581C114.052 44.4817 114.072 44.4399 114.102 44.4082C114.634 43.8512 115.095 43.2561 115.344 42.5015C115.543 41.901 115.812 41.3243 116.055 40.7393L116.057 40.7334C116.088 40.6585 116.127 40.5651 116.28 40.5973C116.334 41.487 116.389 42.3862 116.44 43.2859C116.453 43.5348 116.433 43.7865 116.458 44.034C116.56 45.072 116.746 46.0953 117.005 47.1057C117.124 47.5721 117.297 48.0092 117.592 48.3926C117.716 48.5536 117.834 48.7202 117.944 48.8912C118.49 49.742 119.311 50.2702 120.13 50.7969L120.171 50.8231C120.337 50.9296 120.541 50.9836 120.735 51.0331C121.43 51.2102 122.127 51.3803 122.826 51.541C123.021 51.5858 123.225 51.6088 123.425 51.6071C124.03 51.6025 124.632 51.5621 125.221 51.4029C125.589 51.3037 125.958 51.197 126.333 51.1402C127.297 50.9939 127.974 50.3501 128.7 49.787C129.327 48.9385 130.071 48.1575 130.195 47.0258C130.221 46.7799 130.315 46.5424 130.365 46.2984C130.397 46.1442 130.424 45.985 130.422 45.8284C130.406 44.5358 130.373 43.2433 130.364 41.9507C130.35 40.1547 130.348 38.3585 130.347 36.5623L130.346 36.1643C130.346 36.0127 130.382 35.861 130.405 35.6845C131.198 35.5362 131.97 35.4072 132.734 35.2454C133.917 34.995 135.098 34.734 136.274 34.453C136.769 34.3348 138.17 33.3398 138.481 32.9448C138.961 32.3369 139.376 31.7022 139.46 30.8957C139.488 30.6277 139.586 30.3675 139.646 30.1023C139.742 29.6757 139.744 29.2451 139.653 28.8193C139.543 28.31 139.42 27.8034 139.291 27.2984C139.247 27.1243 139.2 26.9397 139.105 26.7922C138.726 26.2038 138.333 25.6242 137.933 25.0506C137.845 24.9242 137.713 24.8238 137.588 24.7297C137.211 24.4453 136.832 24.1613 136.442 23.8948C136.258 23.7692 136.059 23.6432 135.848 23.5864C134.831 23.3132 133.818 23.0146 132.756 22.9724C132.376 22.9574 131.996 22.9296 131.618 22.8913C131.495 22.8787 131.378 22.8134 131.289 22.7831C131.289 22.4401 131.269 22.144 131.293 21.8515C131.366 20.9719 131.493 20.0966 131.495 19.2112C131.495 19.1211 131.512 19.0308 131.519 18.9406C131.548 18.5803 131.596 18.2203 131.602 17.8596C131.614 17.1336 131.605 16.4074 131.602 15.6812C131.601 15.5001 131.595 15.3181 131.576 15.1382C131.446 13.8941 131.173 12.679 130.829 11.48C130.748 11.1993 130.66 10.9017 130.497 10.668C130.058 10.0396 129.621 9.39898 129.102 8.84074C128.156 7.82346 126.985 7.10496 125.771 6.45666C124.972 6.02987 124.132 5.73066 123.245 5.5627C123.091 5.53349 122.941 5.48704 122.789 5.44972C122.038 5.26634 121.285 5.23835 120.528 5.41401C119.917 5.55601 119.307 5.70084 118.694 5.83391C118.228 5.93493 117.784 6.09761 117.386 6.3528C116.515 6.91225 115.664 7.50031 115.01 8.33199C114.804 8.59448 114.572 8.83587 114.316 9.12716C114.124 8.91519 113.952 8.74054 113.798 8.55148C113.424 8.09426 113.004 7.68896 112.534 7.3358C112.048 6.97087 111.568 6.59743 111.072 6.2465C110.278 5.68461 109.422 5.21319 108.499 4.93752C106.804 4.43121 105.095 3.98149 103.31 3.88413C101.561 3.78879 99.8214 3.7541 98.0819 3.98636C95.5888 4.31924 93.1466 4.87139 90.7715 5.71301C90.1806 5.92255 89.5987 6.15684 89.012 6.37835C88.7631 6.47247 88.5128 6.56315 88.2624 6.65565C88.0584 6.51385 87.8795 6.37754 87.6891 6.2605C87.4601 6.11932 87.2356 5.93959 86.9844 5.87306C86.2273 5.67305 85.4763 5.44119 84.6898 5.36675C83.9506 5.29697 83.2152 5.35519 82.4773 5.36472C81.2243 5.38095 79.9703 5.31644 78.7168 5.2848C78.5823 5.28135 78.44 5.29657 78.3156 5.25742C77.877 5.11908 77.4317 5.15701 76.9839 5.15863C76.2673 5.16106 75.5504 5.12273 74.8336 5.12435C73.5574 5.12739 72.281 5.14098 71.005 5.16248C70.2003 5.17607 69.3916 5.11035 68.5923 5.26715C68.5057 5.28419 68.4133 5.2704 68.324 5.27486C67.409 5.32051 66.4935 5.3562 65.5794 5.41625C64.7089 5.47366 63.8405 5.56128 62.9706 5.6268C62.3471 5.67366 61.7215 5.69313 61.0989 5.74932C60.5435 5.79963 59.9926 5.91627 59.4368 5.94609C58.1385 6.01566 56.8527 6.15948 55.5729 6.39864C54.2726 6.64186 52.9828 6.92463 51.7094 7.28144C51.4818 7.34534 51.274 7.35426 51.0517 7.30233C50.6153 7.2001 50.1803 7.08833 49.7397 7.00922C49.5247 6.97068 49.2894 6.95445 49.0786 7.0005C47.9411 7.24899 46.8057 7.50903 45.676 7.7916C45.3997 7.86057 45.13 8.00074 44.8873 8.15653C44.108 8.65655 43.3685 9.20566 42.9074 10.0505C42.8645 10.1294 42.7954 10.1939 42.7539 10.2735C42.6194 10.5325 42.4878 10.793 42.3646 11.0577C42.3095 11.1759 42.277 11.3051 42.2251 11.4565C42.0035 11.4565 41.8035 11.4441 41.6057 11.4601C41.4242 11.4747 41.244 11.593 41.0174 11.4615C41.1324 11.307 41.2222 11.1814 41.317 11.0597C41.8434 10.383 42.3754 9.71076 42.8966 9.0302C43.2859 8.52186 43.4993 7.94232 43.6718 7.31816C43.9281 6.39013 43.9239 5.50591 43.6642 4.58376C43.5023 4.00848 43.3107 3.47741 42.9446 2.99747C42.169 1.98039 41.2607 1.18827 39.9584 0.975883C39.7378 0.93998 39.521 0.877708 39.3044 0.820301C38.9493 0.726383 38.5968 0.731045 38.2414 0.82111C37.8284 0.925575 37.4144 1.02579 36.999 1.1191C36.6874 1.18909 36.4095 1.31789 36.1564 1.5181C35.6094 1.95118 35.056 2.37615 34.5005 2.79808C33.694 3.41068 32.8784 4.01111 32.0759 4.62899C31.3806 5.1643 30.6963 5.71443 30.0102 6.26172C29.1482 6.94938 28.2852 7.63561 27.4308 8.3326C26.6637 8.95839 25.9073 9.59736 25.1469 10.2313Z" fill="black"/>
<path d="M91.2318 47.2573C91.3001 47.3517 91.3776 47.4586 91.4802 47.6004C92.122 47.6505 92.7905 47.7066 93.4596 47.7541C96.2092 47.9493 98.9589 48.1401 101.708 48.3381C101.93 48.3541 102.154 48.3945 102.368 48.4541C102.726 48.5535 102.966 48.8049 102.989 49.1759C103.017 49.6487 103.003 50.1274 102.965 50.6001C102.937 50.9559 102.696 51.1693 102.352 51.2275C102.156 51.2608 101.949 51.2723 101.752 51.2522C98.871 50.9599 95.9779 50.9743 93.0891 50.8877C91.0731 50.8273 89.0569 50.7719 87.0406 50.7194C85.8085 50.6873 84.5762 50.6463 83.3439 50.6421C80.6997 50.6325 78.0543 50.5995 75.4113 50.6591C72.2978 50.7293 69.1847 50.8557 66.0743 51.0155C62.2479 51.2119 58.4244 51.4671 54.5998 51.6983C52.475 51.8267 50.351 51.9715 48.2254 52.0847C46.298 52.1874 44.3904 52.4535 42.4834 52.733C42.0842 52.7915 41.685 52.8489 41.2859 52.9063C40.3241 53.0444 39.5811 52.7199 39.0507 51.8754C38.7265 51.3595 38.3461 50.8802 38.0041 50.3757C37.7889 50.0585 37.5877 49.7305 37.4004 49.3958C37.3134 49.2406 37.2545 49.0625 37.217 48.8872C37.1425 48.5375 37.2587 48.3024 37.5851 48.1856C37.8145 48.1034 38.0612 48.057 38.3039 48.029C39.7953 47.857 41.2869 47.6831 42.7805 47.5322C44.4747 47.3612 46.1695 47.1914 47.8671 47.0622C49.4086 46.9447 50.9529 46.848 52.4979 46.8023C56.1265 46.6956 59.7558 46.6086 63.3852 46.5445C67.1726 46.4778 70.9595 46.5159 74.7458 46.6533C78.2172 46.7792 81.6895 46.8738 85.1611 46.9928C87.1096 47.0596 89.0573 47.148 91.0053 47.2277C91.0719 47.2304 91.1378 47.2448 91.2318 47.2573Z" fill="white"/>
<path d="M120.957 27.9413C121.087 26.4932 121.15 25.026 121.247 23.5616C121.345 22.0747 121.454 20.5882 121.517 19.1196C121.048 18.8965 121.03 18.8997 120.839 19.2401C120.772 19.3582 120.712 19.4799 120.65 19.6006C119.865 21.1268 119.08 22.6532 118.294 24.1795C117.623 25.485 116.949 26.7895 116.281 28.0971C116.192 28.2707 116.049 28.432 116.096 28.6616C116.163 28.673 116.231 28.7012 116.293 28.692C117.777 28.4792 119.26 28.2632 120.742 28.0439C120.804 28.035 120.86 27.989 120.957 27.9413ZM126.09 27.3946C126.479 27.4186 126.835 27.4407 127.19 27.462C128.643 27.5494 130.097 27.6372 131.55 27.7228C131.953 27.7464 132.356 27.7581 132.759 27.7837C133.005 27.7993 133.252 27.8169 133.494 27.8583C134.372 28.0086 134.729 28.5464 134.927 29.287C135.002 29.5651 134.901 29.8006 134.664 29.9245C134.43 30.0467 134.167 30.1294 133.908 30.1824C133.117 30.3432 132.322 30.4777 131.529 30.6292C129.637 30.9915 127.745 31.3573 125.852 31.723C125.788 31.7356 125.725 31.7613 125.625 31.7922C125.598 31.9037 125.554 32.0279 125.54 32.1557C125.525 32.29 125.538 32.4275 125.539 32.5636C125.573 36.5561 125.608 40.5485 125.638 44.541C125.641 44.9256 125.63 45.3135 125.586 45.6948C125.511 46.334 125.277 46.5796 124.671 46.6902C124.048 46.8038 123.423 46.8052 122.799 46.6916C122.082 46.5612 121.639 46.1244 121.458 45.4262C121.379 45.1214 121.343 44.8009 121.323 44.4852C121.205 42.5837 121.095 40.6816 120.986 38.7795C120.913 37.5113 120.842 36.2431 120.777 34.9747C120.751 34.4765 120.742 33.9773 120.722 33.4787C120.716 33.3237 120.697 33.1693 120.68 32.9671C120.526 32.9671 120.397 32.9506 120.274 32.9695C118.502 33.2389 116.73 33.5129 114.959 33.7864C114.893 33.7967 114.828 33.8188 114.761 33.8251C114.136 33.8844 113.749 34.2497 113.501 34.8087C112.721 36.5672 111.936 38.3235 111.153 40.0806C111.052 40.308 110.967 40.5439 110.849 40.7619C110.575 41.2687 110.133 41.5441 109.574 41.4709C108.274 41.3001 107.122 40.766 106.175 39.8384C105.757 39.428 105.656 38.8913 105.835 38.3261C105.924 38.0468 106.044 37.7754 106.173 37.5125C106.583 36.6804 107.005 35.8544 107.42 35.025C107.501 34.8645 107.573 34.6996 107.643 34.5483C107.523 34.304 107.289 34.2456 107.107 34.1237C106.557 33.7562 106.08 33.3196 105.745 32.7374C105.381 32.1054 105.283 31.5315 105.432 30.8177C105.546 30.7988 105.674 30.7769 105.802 30.757C106.355 30.6708 106.914 30.61 107.461 30.4941C108.803 30.2104 109.764 29.4274 110.33 28.1602C110.792 27.1271 111.243 26.0891 111.707 25.0574C112.935 22.3325 114.288 19.6705 115.636 17.0059C116.29 15.714 116.937 14.4186 117.605 13.1341C117.865 12.6337 118.145 12.139 118.466 11.6769C119.324 10.4399 120.554 10.0328 121.99 10.1448C122.21 10.162 122.436 10.2172 122.639 10.3044C123.423 10.6417 124.204 10.9937 124.901 11.4961C125.244 11.7442 125.563 12.0373 125.855 12.3473C126.299 12.8193 126.539 13.4031 126.644 14.0462C126.824 15.1466 126.915 16.2558 126.857 17.368C126.789 18.6585 126.686 19.948 126.565 21.2347C126.403 22.9502 126.204 24.6622 126.029 26.3765C125.997 26.6891 125.959 27.0076 126.09 27.3946Z" fill="white"/>
<path d="M94.8676 26.0607C95.2944 25.8869 95.5874 25.7786 95.8711 25.6502C97.3824 24.966 98.8968 24.2887 100.4 23.5856C101.578 23.0344 102.735 22.4403 103.841 21.7478C105.384 20.7816 106.675 19.5416 107.764 18.0807C107.924 17.8657 108.063 17.6271 108.17 17.3808C108.295 17.094 108.211 16.8417 107.951 16.6717C107.784 16.5623 107.596 16.4772 107.408 16.411C104.294 15.3189 101.12 15.0633 97.8833 15.7246C97.7585 15.7499 97.6387 15.8007 97.5048 15.8435C97.4896 16.0331 97.4724 16.1889 97.4655 16.3451C97.4227 17.323 97.2686 18.2843 96.9886 19.2191C96.6903 20.2155 96.3563 21.2011 96.0352 22.1904C95.6932 23.2444 95.3445 24.2962 95.0073 25.3516C94.948 25.5374 94.93 25.7368 94.8676 26.0607ZM91.7999 16.4642C91.3751 16.3814 91.0248 16.4767 90.6751 16.5133C90.1183 16.5717 89.564 16.6553 89.0072 16.7137C88.7856 16.7368 88.5581 16.74 88.3363 16.7194C87.7745 16.667 87.4002 16.3678 87.304 15.814C87.2074 15.258 87.1268 14.686 87.1483 14.1251C87.1739 13.4586 87.4484 12.8468 87.8718 12.3289C88.0089 12.1609 88.2115 12.0317 88.4075 11.9313C91.4887 10.3513 94.7164 9.2383 98.1583 8.80603C100.304 8.53644 102.451 8.49506 104.589 8.83686C108.52 9.46508 111.123 11.7343 112.424 15.514C113.115 17.5202 112.795 19.4558 111.768 21.2776C110.853 22.901 109.58 24.196 108.09 25.2834C106.867 26.1754 105.555 26.9103 104.189 27.547C102.847 28.173 101.495 28.7789 100.149 29.3974C99.8448 29.537 99.5479 29.6919 99.2112 29.8577C99.2912 30.0266 99.3431 30.17 99.4216 30.2966C100.184 31.5261 100.95 32.7533 101.716 33.98C104.458 38.3698 107.201 42.7588 109.943 47.1485C110.937 48.7392 111.931 50.3302 112.923 51.9221C113.005 52.0538 113.072 52.195 113.144 52.3278C112.812 52.5964 112.798 52.6094 112.562 52.4262C111.922 51.9294 111.28 51.4347 110.658 50.9152C108.53 49.1368 106.553 47.1955 104.664 45.16C102.5 42.828 100.45 40.3946 98.3797 37.9789C96.8674 36.2141 95.3319 34.47 93.8046 32.7188C93.673 32.5679 93.5245 32.432 93.3874 32.2929C93.1532 32.3754 93.1686 32.5827 93.1272 32.743C92.5523 34.9579 91.9812 37.1736 91.4147 39.3907C91.112 40.576 90.8282 41.7663 90.5168 42.9491C90.4433 43.2284 90.3078 43.4948 90.1738 43.7528C90.0838 43.926 89.9141 43.9952 89.7141 43.95C88.7751 43.7372 87.8344 43.5426 86.9239 43.2073C86.0618 42.8901 85.7316 42.2298 85.6428 41.3898C85.6148 41.1249 85.6613 40.8476 85.7019 40.5804C86.0757 38.1339 86.6592 35.7342 87.3026 33.3489C88.3235 29.565 89.3615 25.7859 90.3806 22.0015C90.8282 20.339 91.2476 18.6685 91.6786 17.0015C91.7179 16.8492 91.7482 16.6944 91.7999 16.4642Z" fill="white"/>
<path d="M78.739 41.3357C78.6076 41.444 78.4875 41.5418 78.3687 41.6408C78.092 41.8708 77.8233 42.1118 77.5377 42.3301C76.429 43.1782 75.1867 43.5088 73.8059 43.3129C73.2278 43.2307 72.6591 43.1187 72.1083 42.9181C70.4472 42.3134 69.316 41.1572 68.6614 39.5127C68.3406 38.7068 68.1871 37.8603 68.1226 36.9957C67.9358 34.4954 68.0917 32.0134 68.464 29.5376C68.8491 26.9748 69.5386 24.4869 70.2047 21.9922C70.3626 21.4013 70.5073 20.8068 70.6736 20.2183C70.7533 19.9364 70.8511 19.6562 70.9727 19.3903C71.1855 18.9252 71.5564 18.6527 72.06 18.5793C73.4691 18.3736 75.2883 19.1116 75.9904 20.6171C76.3539 21.3967 76.3507 22.1947 76.1153 23.0049C75.8245 24.0053 75.5147 25.0003 75.243 26.0058C74.4918 28.7877 73.9105 31.6038 73.6394 34.479C73.5712 35.2011 73.5165 35.9245 73.4588 36.6474C73.4188 37.1507 73.4793 37.6449 73.6215 38.1268C73.7095 38.425 73.9624 38.522 74.1876 38.3307C74.702 37.8935 75.2121 37.4499 75.7009 36.9842C75.8928 36.8012 76.0523 36.5675 76.1764 36.33C76.7837 35.1677 77.3937 34.0057 77.9661 32.8258C79.058 30.5752 79.7553 28.1824 80.3737 25.7652C80.8396 23.9438 81.2784 22.1152 81.7331 20.2909C81.8098 19.9836 81.8857 19.6733 81.9978 19.3783C82.3033 18.574 82.8862 18.0695 83.7228 17.9282C85.2116 17.6762 86.4201 18.2643 87.0858 19.5856C87.4148 20.2388 87.4665 20.919 87.2685 21.6334C86.7 23.6852 86.1458 25.7409 85.5939 27.7974C85.1477 29.4599 84.6792 31.1176 84.2837 32.7927C83.9663 34.1362 83.7434 35.5026 83.4787 36.859C83.3529 37.5039 83.2377 38.1512 83.0992 38.7932C82.9203 39.6228 82.5793 40.3841 82.0945 41.0773C81.5481 41.8588 80.8991 42.1029 79.9904 41.8503C79.7114 41.7728 79.4461 41.644 79.1764 41.5337C79.0334 41.4752 78.8945 41.4065 78.739 41.3357Z" fill="white"/>
<path d="M63.4388 16.0961C63.3192 16.1153 63.2126 16.1216 63.1122 16.15C61.0846 16.7227 59.0579 17.2981 57.0309 17.8724C56.7722 17.9456 56.5166 18.0373 56.2531 18.0834C55.5189 18.2112 55.0388 17.9834 54.7011 17.3105C53.9695 15.852 53.3822 14.3325 52.8781 12.7787C52.7959 12.5253 52.8552 12.3393 53.0179 12.1598C53.3135 11.8338 53.6608 11.5973 54.1002 11.5208C55.049 11.3557 55.9926 11.1427 56.9476 11.0352C58.9061 10.8149 60.8694 10.6364 62.8329 10.4684C64.5291 10.3234 66.2271 10.1909 67.9269 10.099C71.3515 9.91344 74.7784 9.84122 78.2041 10.0812C80.0844 10.2128 81.9654 10.2005 83.8473 10.1601C84.0936 10.1546 84.3415 10.1455 84.5859 10.1682C85.3221 10.2368 85.7343 10.5897 85.9178 11.3034C86.0489 11.8127 86.081 12.334 86.0379 12.8568C85.9932 13.3972 85.805 13.61 85.2714 13.7432C85.0544 13.7976 84.8322 13.8367 84.6102 13.8613C81.6041 14.1944 78.5978 14.5246 75.5916 14.8532C73.8767 15.0406 72.1615 15.224 70.4466 15.4098C70.313 15.4242 70.1795 15.4407 70.0467 15.4616C69.2193 15.592 68.9676 15.8224 68.7861 16.635C68.6725 17.1436 68.5683 17.6543 68.4657 18.1653C67.9307 20.8314 67.3959 23.4974 66.8639 26.1641C65.8752 31.1201 64.8869 36.0761 63.9037 41.0331C63.8201 41.4548 63.7801 41.8852 63.7101 42.3098C63.6586 42.6226 63.6192 42.9415 63.5252 43.2419C63.3599 43.7691 63.007 44.0316 62.4636 43.9957C61.3964 43.9255 60.4572 43.5285 59.73 42.7161C59.2722 42.2043 59.1066 41.5611 59.1331 40.8858C59.1551 40.3213 59.2233 39.7559 59.3078 39.1965C59.6705 36.7984 60.0129 34.3965 60.4269 32.0073C60.9223 29.1494 61.4667 26.2998 62.0203 23.4526C62.453 21.2281 62.9341 19.0134 63.3881 16.7931C63.4318 16.5792 63.5276 16.3626 63.4388 16.0961Z" fill="white"/>
<path d="M47.667 35.9578C48.1463 35.7663 48.496 35.6178 48.8516 35.4861C50.2465 34.9697 51.6904 34.6518 53.1604 34.4715C54.338 34.3269 55.5218 34.2301 56.7047 34.1344C57.5264 34.068 58.0905 34.5313 58.167 35.3657C58.2225 35.9724 58.2241 36.5888 58.1941 37.198C58.1622 37.8459 57.8123 38.2242 57.1779 38.3735C56.7858 38.4656 56.3861 38.5246 55.9911 38.6049C53.1063 39.1914 50.427 40.3129 47.8972 41.814C47.1053 42.2838 46.3385 42.7968 45.5558 43.2828C45.3278 43.4246 45.0931 43.5626 44.8469 43.6658C44.4453 43.8342 44.0484 43.7816 43.6993 43.522C43.4845 43.3621 43.2807 43.178 43.1036 42.9763C42.6423 42.4512 42.2007 41.9081 41.747 41.3761C41.2771 40.8249 41.1208 40.1839 41.2134 39.4752C41.2455 39.2289 41.2986 38.9837 41.3637 38.7439C41.7552 37.3014 42.1834 35.8681 42.5409 34.4169C42.9473 32.7682 43.3224 31.1101 43.6572 29.4449C44.3541 25.9796 45.0138 22.5069 45.6917 19.0377C46.057 17.1693 46.405 15.2982 46.6274 13.4054C46.6433 13.2712 46.6727 13.1375 46.7092 13.0073C46.8214 12.6064 47.0677 12.333 47.4718 12.223C47.9475 12.0936 48.4216 11.9563 48.9017 11.8468C49.562 11.696 50.1272 11.8778 50.6328 12.3439C51.4714 13.1172 51.8713 14.0505 51.7365 15.198C51.6916 15.58 51.6221 15.9599 51.5485 16.3376C50.5837 21.2975 49.6211 26.2579 48.6458 31.2158C48.3789 32.5718 48.0706 33.9193 47.784 35.2713C47.7431 35.464 47.7173 35.6602 47.667 35.9578Z" fill="white"/>
<path d="M32.6378 39.2837C32.7893 39.177 32.9029 39.1123 32.9985 39.0271C34.154 37.998 34.9588 36.73 35.4262 35.2533C35.6515 34.5425 35.8218 33.8112 35.9755 33.0802C36.8704 28.8218 37.7625 24.5628 38.6317 20.2989C38.8122 19.4126 39.0589 18.538 39.12 17.6251C39.1527 17.1344 39.4526 16.7868 39.9241 16.6328C40.5453 16.4297 41.1863 16.3212 41.8381 16.2938C42.1579 16.2803 42.4613 16.3671 42.7338 16.5401C43.3472 16.9292 43.7552 17.4779 43.9724 18.1773C44.0497 18.4262 44.0177 18.6682 43.9806 18.9165C43.6596 21.0691 43.3388 23.2217 43.0242 25.3754C42.7288 27.3951 42.3752 29.404 41.9235 31.3943C41.4063 33.6731 40.799 35.9255 39.9396 38.1003C39.4619 39.3091 38.8429 40.4308 37.9504 41.3872C35.8198 43.6709 33.0928 44.0949 30.4609 42.9238C30.0936 42.7605 29.7459 42.5467 29.4031 42.3335C28.2393 41.6104 27.5965 40.5345 27.3851 39.1873C27.1769 37.8603 27.1705 36.5219 27.2125 35.1825C27.3131 31.9682 27.9269 28.8333 28.6583 25.7188C29.1298 23.7114 29.6339 21.7117 30.1238 19.7088C30.1455 19.6208 30.1715 19.5339 30.197 19.4469C30.4961 18.4246 31.2958 17.829 32.347 17.8456C33.9523 17.8708 35.1299 19.2504 34.8734 20.8539C34.6764 22.0848 34.4139 23.3047 34.1961 24.5323C33.5942 27.9248 32.9959 31.3178 32.4061 34.7125C32.2575 35.5687 32.3298 36.4323 32.3983 37.2921C32.4416 37.8348 32.4971 38.3764 32.5526 38.9178C32.5634 39.0236 32.6003 39.1269 32.6378 39.2837Z" fill="white"/>
<path d="M15.8571 25.4087C16.0739 25.2144 16.1893 25.1211 16.2935 25.0164C17.8048 23.4991 19.2984 21.9633 20.8287 20.4659C23.0853 18.2579 25.461 16.183 27.8732 14.152C31.1816 11.3667 34.5762 8.69154 38.0239 6.08555C38.2564 5.90988 38.4906 5.73685 38.7563 5.53826C38.9162 5.68229 39.0587 5.81089 39.2314 5.96647C39.0503 6.24255 38.8988 6.49064 38.7307 6.72675C38.1906 7.485 37.5224 8.12519 36.8744 8.78465C36.4165 9.2508 35.9694 9.72831 35.5306 10.2129C35.3839 10.3748 35.2056 10.5289 35.1693 10.806C35.3397 10.8951 35.5128 10.9856 35.6859 11.076C35.7548 11.275 35.5919 11.3645 35.4935 11.471C34.5904 12.4483 33.6823 13.4208 32.7746 14.3938C31.4669 15.7957 30.1575 17.1958 28.8508 18.5983C26.514 21.1067 24.1788 23.6165 21.8424 26.1252C20.9663 27.0662 20.0881 28.005 19.2132 28.947C19.1076 29.0608 19.0177 29.1894 18.9101 29.3241C19.0098 29.4927 19.0954 29.6499 19.1928 29.7992C23.0437 35.7055 26.8981 41.6092 30.8596 47.4407C32.4718 49.8141 34.0971 52.1793 35.5727 54.6445C35.6607 54.7914 35.7406 54.9435 35.8739 55.182C35.6975 55.1273 35.612 55.1163 35.5422 55.0768C34.1745 54.3003 32.788 53.555 31.4473 52.7335C29.3862 51.4703 27.5564 49.9041 25.8576 48.1789C24.4954 46.7955 23.229 45.3262 22.0406 43.7882C20.1905 41.3936 18.3863 38.9645 16.6822 36.4603C16.3264 35.9374 15.9867 35.4031 15.6333 34.8783C15.4948 34.6726 15.3553 34.4637 15.1882 34.2827C14.8965 33.9663 14.6298 33.9401 14.3046 34.2184C13.483 34.9215 12.8518 35.7595 12.5981 36.8433C12.5102 37.2184 12.4318 37.5959 12.3513 37.9726C11.7361 40.8538 11.1224 43.7353 10.5062 46.6161C10.3591 47.3032 10.2098 47.9898 10.0507 48.674C9.98922 48.9379 9.92049 49.2045 9.81449 49.4522C9.57303 50.0165 9.12919 50.2808 8.52806 50.223C8.30784 50.2019 8.08362 50.1483 7.87703 50.068C7.10016 49.7666 6.36798 49.3775 5.68469 48.8933C4.92326 48.3535 4.63531 47.6417 4.82707 46.7107C5.42119 43.8247 5.96342 40.9275 6.59701 38.0507C7.25506 35.0633 7.97341 32.0889 8.70659 29.1194C9.62453 25.4018 10.5787 21.6933 11.5285 17.9838C12.2086 15.3271 13.0316 12.712 13.816 10.0857C13.9297 9.70538 14.1503 9.42505 14.5095 9.31328C16.025 8.84287 17.4779 8.8595 18.7381 9.99911C19.4952 10.6835 19.8622 11.57 19.9352 12.581C19.949 12.7749 19.8895 12.9863 19.8186 13.1717C19.6811 13.5307 19.526 13.8845 19.3531 14.2273C18.5249 15.8706 17.8963 17.5919 17.4116 19.3661C16.9099 21.2016 16.4402 23.0461 15.9583 24.8872C15.9258 25.0115 15.9086 25.1401 15.8571 25.4087Z" fill="white"/>
</svg>
