<svg width="461" height="215" viewBox="0 0 461 215" fill="none" xmlns="http://www.w3.org/2000/svg">
<path d="M128.736 182.752C128.512 183.575 128.344 184.104 128.232 184.575C123.754 184.575 119.388 184.634 115.022 184.575C103.996 184.34 92.9128 183.693 81.9419 182.576C67.5567 181.047 53.3394 178.813 39.402 174.639C31.0619 172.17 22.9457 168.996 15.5012 164.234C11.2472 161.53 7.44099 158.296 4.53036 154.004C0.388311 148.008 -0.619216 141.541 1.50778 134.487C2.79518 130.077 5.03412 126.256 7.72086 122.729C13.0384 115.674 19.6432 109.971 26.584 104.798C34.5882 98.8604 43.0402 93.7457 51.7721 89.1602C57.1456 86.3383 62.687 83.7516 68.1724 81.0473C68.8441 80.6945 69.5718 80.3418 70.4114 79.8715C70.4114 74.2277 70.4114 68.584 70.4114 62.9402C72.1465 62.4699 101.701 62.3523 104.611 62.7639C104.947 63.6457 105.339 64.5863 105.787 65.7033C114.015 62.999 122.243 60.3535 130.415 57.708C130.471 57.8256 130.527 58.002 130.527 58.1195C122.523 61.1766 114.463 64.1748 106.235 67.3494C110.88 80.8121 115.414 93.9809 120.004 107.208C120.172 107.15 120.34 107.15 120.508 107.091C120.508 92.3348 120.508 77.5787 120.508 62.7051C128.232 62.7051 135.789 62.7051 143.457 62.7051C143.513 63.293 143.625 63.8221 143.625 64.41C143.625 87.5728 143.625 110.736 143.625 133.899C143.625 134.78 143.513 135.545 142.897 136.309C142.226 137.191 142.002 138.425 141.554 139.484C130.807 139.484 120.172 139.484 109.257 139.484C104.163 124.198 99.0139 108.854 93.8643 93.5105C93.6964 93.5105 93.5845 93.5693 93.4165 93.5693C93.4165 108.796 93.4165 124.022 93.4165 139.425C85.6922 139.425 78.1917 139.425 70.4114 139.425C70.4114 121.377 70.4114 103.387 70.4114 85.1625C69.6837 85.3977 69.1799 85.4564 68.7881 85.6916C59.9443 91.0414 51.3243 96.7439 43.544 103.74C38.1705 108.561 33.1889 113.793 29.5506 120.201C27.2557 124.198 25.4085 128.431 24.8488 133.134C23.8972 140.836 26.2481 147.42 31.0059 153.123C34.9241 157.943 39.7938 161.471 45.0553 164.41C55.6903 170.348 67.1089 173.993 78.9194 176.462C85.972 177.932 93.0247 179.343 100.133 180.224C109.201 181.341 118.381 181.812 127.449 182.635C127.784 182.635 128.12 182.694 128.736 182.752Z" fill="white"/>
<path d="M299.008 27.6668C303.43 27.4316 307.796 27.1377 312.218 27.0201C326.715 26.5498 341.212 26.4322 355.653 27.0789C365.616 27.4904 375.58 28.2547 385.543 29.4305C400.32 31.2529 414.929 33.9572 429.035 39.0131C436.255 41.5998 443.252 44.7156 449.409 49.4775C453.551 52.6521 457.077 56.4146 459.316 61.3529C461.387 66.056 461.667 70.8768 460.38 75.815C458.757 82.0467 455.342 87.1613 451.312 91.8644C445.771 98.3312 439.278 103.622 432.393 108.443C422.822 115.204 412.69 120.965 402.223 126.021C395.674 129.196 388.957 132.076 382.353 135.074C381.345 135.545 380.282 136.015 379.218 136.544C379.162 137.367 379.106 138.249 379.05 139.484C378.099 139.484 377.147 139.542 376.195 139.484C373.341 139.248 370.598 139.836 367.967 140.895C364.945 142.129 361.922 143.305 358.844 144.363C351.791 146.832 344.682 149.184 337.574 151.535C333.544 152.829 329.513 154.063 325.427 155.239C324.308 155.533 323.076 155.415 321.845 155.298C335.279 150.654 348.6 145.774 361.53 139.601C358.34 139.601 355.149 139.601 351.735 139.601C351.623 136.779 351.679 134.193 351.679 131.547C351.679 128.902 351.679 126.197 351.679 123.552C351.679 120.906 351.679 118.202 351.679 115.556C351.679 112.793 351.679 110.089 351.679 107.326C351.679 104.68 351.679 101.976 351.679 99.3307C351.679 96.6852 351.679 93.9809 351.679 91.3353C351.679 88.6898 351.679 86.0443 351.679 83.1637C345.746 83.1637 340.037 83.1637 333.991 83.1637C333.823 76.2266 333.935 69.4658 333.935 62.5875C354.981 62.5875 375.804 62.5875 396.906 62.5875C396.962 69.2894 396.906 75.9914 396.906 82.9873C391.028 83.2225 385.207 82.9873 379.33 83.1049C379.33 99.1543 379.33 115.027 379.33 131.018C379.722 130.959 380.114 131.018 380.449 130.842C391.812 124.728 402.839 118.143 412.802 109.678C419.239 104.21 425.172 98.2725 429.594 90.8062C432.057 86.6322 433.904 82.1642 434.408 77.226C435.136 69.8773 432.897 63.5281 428.363 58.0019C424.333 53.0049 419.295 49.4187 413.81 46.4205C403.343 40.6592 392.092 37.1318 380.561 34.5451C366.512 31.3705 352.239 29.7244 337.91 28.725C325.819 27.9019 313.729 27.9607 301.639 28.0195C300.799 28.0195 299.959 28.0195 299.12 28.0195C299.064 27.9607 299.008 27.8432 299.008 27.6668Z" fill="white"/>
<path d="M232.119 86.8674C231.952 86.3383 231.784 85.8092 231.616 85.2213C230.888 82.6934 229.153 81.3412 226.746 80.9297C220.925 79.9891 216.895 82.517 215.383 88.4547C214.656 91.2178 214.32 94.0984 214.096 96.9791C213.648 102.27 213.76 107.62 214.712 112.911C214.824 113.44 214.936 113.91 215.048 114.439C216.503 120.201 219.581 122.552 225.179 122.2C227.586 122.082 229.881 121.318 231.952 119.907C231.952 117.085 231.952 114.263 231.952 111.265C228.817 111.265 225.738 111.265 222.772 111.265C222.324 109.501 222.212 99.0367 222.604 96.2148C234.806 96.2148 247.008 96.2148 259.379 96.2148C259.379 108.208 259.379 120.201 259.379 132.135C259.323 132.135 259.099 132.253 259.043 132.253C257.755 130.842 256.188 130.606 254.453 130.665C250.815 130.783 247.176 130.9 243.482 130.959C241.411 130.959 238.5 131.077 235.758 131.371C235.31 131.547 236.262 131.312 235.758 131.371C232.119 131.606 228.593 131.9 224.955 132.253C223.555 132.546 220.757 132.958 218.686 133.311C216.839 133.605 214.936 133.781 213.088 134.134C211.633 134.369 210.178 134.663 208.834 135.133C207.827 135.486 206.875 136.25 206.092 136.72C204.916 136.427 203.685 136.191 202.565 135.839C201.782 135.604 200.998 135.251 200.27 134.78C193.498 130.136 188.908 123.728 186.557 115.674C183.926 106.797 183.702 97.7434 185.829 88.7486C188.852 76.109 196.688 68.2312 208.275 64.1748C209.786 63.6457 211.353 63.2342 213.032 62.7051C211.689 58.7074 209.73 55.2977 206.875 52.4758C202.397 48.1842 197.08 45.8326 190.979 45.8914C186.109 45.9502 181.295 46.1853 176.426 46.3029C175.586 46.3029 174.746 46.3029 173.795 46.009C174.523 45.715 175.194 45.3623 175.922 45.1271C180.68 43.775 185.437 42.5992 190.139 41.0707C198.983 38.1312 204.524 31.7232 206.26 22.0818C206.819 19.0248 206.595 15.7326 206.595 12.6168C206.54 8.32519 206.372 4.09237 206.204 -0.199227C206.316 -0.258016 206.484 -0.316803 206.595 -0.316803C206.819 0.212299 207.043 0.741398 207.155 1.32929C208.667 6.91425 209.898 12.6168 211.689 18.143C214.656 27.1965 220.981 32.3111 229.881 34.016C233.687 34.7215 237.437 34.0748 241.243 34.0748C243.93 34.0748 246.561 33.8396 249.247 33.7809C249.751 33.7809 250.311 33.8396 250.927 34.31C249.135 34.8391 247.344 35.3094 245.609 35.8385C241.299 37.1318 236.877 38.19 232.679 39.7773C223.835 43.1283 218.294 51.5351 217.79 61.2353C217.79 61.4117 217.902 61.6469 217.958 62.0584C218.854 61.9996 219.749 61.9408 220.645 61.882C227.306 61.3529 233.855 61.5881 240.348 63.4105C244.322 64.5275 248.016 66.35 251.151 69.2307C256.244 73.875 258.147 79.9303 258.091 86.8086C256.356 87.1025 236.038 87.2789 232.119 86.8674Z" fill="white"/>
<path d="M264.262 131.177C264.262 130.06 264.262 129.354 264.262 128.59C264.262 107.014 264.262 85.3799 264.318 63.8043C264.318 62.6873 263.983 61.9818 263.311 61.2764C260.512 58.5721 257.21 57.1023 253.348 57.1611C250.773 57.2199 248.142 57.3375 245.567 57.3963C245.231 57.3963 244.896 57.3375 244 57.2199C244.84 56.8672 245.231 56.632 245.623 56.5145C248.254 55.7502 250.885 54.9859 253.516 54.2217C258.665 52.6932 263.199 46.9318 262.975 40.2299C262.919 37.8783 262.807 35.5268 262.695 33.1164C262.695 32.4109 262.695 31.7055 262.863 31C263.871 32.2346 263.815 33.8219 264.262 35.2328C265.214 38.2898 265.606 41.582 267.509 44.2863C270.364 48.284 274.17 50.2828 278.928 50.3416C281.39 50.3416 283.853 50.1652 286.316 50.1064C286.876 50.1064 287.436 50.1064 288.051 50.4592C287.659 50.6355 287.268 50.8707 286.876 50.9883C283.909 51.8701 280.887 52.6344 277.976 53.6926C274.058 55.1035 271.651 58.1605 270.252 62.1582C270.196 62.2758 270.308 62.4521 270.364 62.8637C277.36 62.8637 284.413 62.8637 291.69 62.8637C291.69 72.5639 291.69 82.0289 291.69 91.6115C296.167 91.6115 300.421 91.6115 304.899 91.6115C304.899 82.0289 304.899 72.6227 304.899 63.04C314.079 63.04 323.091 63.04 332.215 63.04C332.215 88.5545 332.215 114.069 332.215 139.583C330.815 139.995 320.348 140.112 317.437 139.701C317.885 136.056 316.598 133.175 313.799 130.941C311.168 128.884 308.37 127.649 304.843 128.825C304.843 122.829 304.843 117.067 304.843 111.188C300.477 111.188 296.279 111.188 291.746 111.188C291.69 117.42 291.746 123.652 291.69 130.177C291.018 129.824 290.514 129.53 290.066 129.295C288.443 128.413 284.693 127.414 283.797 127.355C280.103 127.12 276.465 127.473 276.465 127.473C276.465 127.473 273.442 127.826 272.155 128.237C269.972 128.884 267.845 129.824 265.662 130.706C265.382 130.765 264.99 130.883 264.262 131.177Z" fill="white"/>
<path d="M157.339 139.542C156.331 136.721 154.26 135.192 152.189 133.722C152.189 110.089 152.189 86.4559 152.189 62.7051C161.313 62.7051 170.324 62.7051 179.504 62.7051C179.56 63.5281 179.616 64.2924 179.616 64.9978C179.616 86.0443 179.616 107.15 179.672 128.196C179.672 129.666 179.28 130.724 178.217 131.606C176.258 133.252 174.299 134.898 172.284 136.544C172.116 136.662 171.892 136.779 171.78 136.956C170.101 139.484 167.694 139.719 165.063 139.542C162.488 139.425 159.969 139.542 157.339 139.542Z" fill="white"/>
<path d="M176.313 215.439C170.436 212.794 165.287 209.09 160.865 204.21C156.947 199.86 153.644 194.922 150.398 189.983C148.718 187.455 147.207 184.751 145.584 182.164C144.408 180.283 143.849 180.224 142.393 181.87C141.218 183.164 140.322 184.634 139.875 186.397C138.195 193.099 136.46 199.801 134.725 206.503C134.501 207.385 134.277 208.208 133.997 209.031C133.438 210.56 132.43 211.206 131.031 210.736C129.575 210.266 128.176 209.501 126.889 208.678C125.433 207.738 125.657 206.092 125.993 204.681C126.497 202.211 127.113 199.801 127.728 197.391C129.408 191.042 130.919 184.692 132.766 178.402C136.404 165.997 140.21 153.593 143.961 141.188C144.129 140.601 144.464 140.13 144.576 139.542C145.08 137.308 146.479 136.427 148.551 136.309C150.845 136.191 152.749 136.897 153.868 139.072C154.708 140.659 154.932 142.247 153.98 143.893C150.957 149.301 149.502 155.357 147.543 161.177C147.151 162.294 146.983 163.528 146.871 164.88C158.906 151.712 172.059 139.895 185.717 128.725C186.501 129.548 185.885 130.019 185.605 130.43C184.206 132.076 182.75 133.663 181.351 135.368C180.567 136.309 179.224 136.956 179.896 138.661C180.008 138.954 179.336 139.601 178.944 140.013C173.403 146.362 167.805 152.77 162.208 159.119C158.85 162.999 155.435 166.82 152.077 170.701C151.797 170.995 151.573 171.406 151.181 171.876C159.689 186.221 168.141 200.565 176.649 214.91C176.593 215.204 176.481 215.321 176.313 215.439Z" fill="white"/>
<path d="M265.983 142.893C264.472 143.129 263.409 143.305 262.289 143.481C260.106 143.834 259.882 143.658 259.546 141.424C259.043 138.425 259.77 136.838 262.233 135.368C267.719 132.194 273.54 130.019 279.865 129.783C281.544 129.725 283.279 129.783 284.902 130.019C289.996 130.842 293.131 134.193 294.866 139.131C296.489 143.658 295.314 147.714 292.907 151.477C291.004 154.475 288.485 156.826 285.574 158.708C283.279 160.177 280.928 161.53 278.633 162.94C277.794 163.47 276.954 163.94 275.891 164.587C282.384 176.521 288.821 188.279 295.258 200.095C295.146 200.213 294.978 200.33 294.866 200.507C294.418 200.154 293.914 199.86 293.466 199.448C288.709 195.333 284.567 190.63 280.649 185.692C276.73 180.695 272.812 175.58 268.95 170.524C268.614 170.054 268.278 169.584 268.054 169.231C267.607 169.407 267.383 169.466 267.383 169.525C266.599 172.641 265.815 175.815 265.032 178.931C264.36 181.635 263.8 184.398 263.129 187.103C262.681 188.866 262.233 189.102 260.554 188.866C260.498 188.866 260.442 188.866 260.33 188.808C256.356 188.161 255.46 186.868 256.412 182.752C257.979 175.992 259.602 169.29 261.226 162.588C262.625 156.885 264.08 151.183 265.48 145.48C265.592 144.775 265.704 144.069 265.983 142.893ZM269.734 158.531C270.293 158.531 270.461 158.59 270.573 158.531C274.603 156.121 278.689 153.769 282.608 151.241C285.238 149.537 287.309 147.067 288.989 144.246C289.716 143.011 289.548 142.423 288.373 141.835C288.149 141.718 287.869 141.6 287.589 141.541C283.671 140.307 279.697 140.189 275.723 141.071C274.603 141.306 274.1 141.835 273.932 143.07C273.596 145.245 273.092 147.42 272.532 149.537C271.637 152.417 270.685 155.357 269.734 158.531Z" fill="white"/>
<path d="M306.452 167.644C305.893 167.702 305.389 167.702 304.941 167.82C302.926 168.29 300.967 168.878 299.008 169.29C297.385 169.642 296.433 170.642 295.873 172.229C295.034 174.639 294.082 177.05 293.187 179.46C291.899 182.987 290.612 183.517 287.477 181.635C285.574 180.518 285.126 179.401 285.91 177.285C286.582 175.345 287.477 173.522 288.093 171.935C287.029 170.407 285.966 169.231 285.238 167.879C284.511 166.409 284.791 165.88 286.358 165.586C289.492 164.998 291.339 163.117 292.571 160.001C295.817 151.947 299.288 143.952 302.758 135.897C303.206 134.839 303.822 133.781 304.493 132.899C305.893 131.077 307.964 130.606 310.035 131.488C313.169 132.84 315.24 135.016 315.072 138.837C314.904 142.893 314.625 146.95 314.401 151.006C314.289 152.946 314.065 154.828 313.953 156.709C313.897 158.179 314.121 158.355 315.52 158.414C317.927 158.472 320.334 158.414 322.685 158.472C323.468 158.472 324.196 158.649 324.924 158.884C325.707 159.119 325.931 159.766 325.931 160.648C325.875 161.471 325.427 161.765 324.756 162C321.789 162.823 318.767 163.705 315.8 164.587C315.464 164.704 315.128 164.763 314.792 164.88C313.169 165.41 313.169 165.41 313.113 167.173C313.113 172.993 313.113 178.872 313.113 184.692C313.113 185.751 313.113 186.75 313.057 187.808C312.945 189.278 312.33 189.748 310.818 189.983C309.027 190.219 308.132 189.807 307.74 188.455C307.46 187.632 307.348 186.75 307.348 185.868C307.124 180.342 306.956 174.816 306.732 169.29C306.676 168.584 306.564 168.173 306.452 167.644ZM307.74 144.892C307.572 144.833 307.404 144.833 307.236 144.775C305.669 147.244 304.773 150.124 303.542 152.77C302.254 155.415 301.191 158.237 299.847 161.353C301.974 160.883 303.71 160.471 305.389 160.06C307.012 159.648 307.236 159.413 307.348 157.708C307.572 153.946 307.852 150.183 308.02 146.421C307.964 145.95 307.796 145.421 307.74 144.892Z" fill="white"/>
<path d="M223.947 144.422C221.596 145.245 219.693 145.892 217.734 146.538C216.111 147.126 214.543 147.773 212.976 148.302C211.409 148.831 210.681 148.596 210.121 147.067C209.226 144.833 208.498 142.482 207.827 140.189C207.715 139.719 208.05 138.837 208.442 138.543C209.002 138.073 209.786 137.779 210.513 137.602C218.35 135.721 226.354 134.898 234.358 134.134C237.549 133.84 240.795 133.84 244.041 133.722C247.568 133.605 251.094 133.722 254.565 133.37C257.139 133.076 258.035 135.956 257.307 138.014C256.971 138.954 256.02 139.072 255.18 139.248C251.822 139.836 248.519 140.424 245.161 141.012C241.523 141.659 237.94 142.247 234.302 142.893C232.231 143.246 231.727 143.834 231.279 145.95C229.824 153.005 228.313 160.06 226.858 167.114C225.626 172.935 224.395 178.755 223.163 184.634C222.771 186.456 222.548 188.279 222.268 190.101C221.932 192.159 220.924 192.864 218.965 192.335C216.614 191.629 215.495 190.277 215.663 187.691C215.887 184.751 216.39 181.87 216.894 178.931C217.678 174.228 218.462 169.466 219.413 164.763C220.085 161.294 220.98 157.885 221.764 154.416C222.548 151.241 223.163 148.067 223.947 144.422Z" fill="white"/>
<path d="M173.291 188.161C174.746 187.044 175.642 185.692 176.482 184.398C178.553 181.106 179.224 177.285 180.12 173.581C181.239 168.878 182.303 164.116 183.422 159.354C184.15 156.18 184.878 153.064 185.605 149.889C186.053 147.949 188.236 146.597 190.419 147.009C191.93 147.303 193.386 149.184 193.162 150.947C192.826 153.593 192.266 156.18 191.762 158.766C191.035 162.529 190.419 166.291 189.579 170.054C188.124 176.227 186.669 182.4 183.758 188.043C182.583 190.277 180.959 192.159 178.944 193.57C175.698 195.862 172.228 196.039 168.701 194.275C166.07 192.982 164.895 190.689 164.783 187.691C164.559 182.635 165.063 177.638 166.182 172.699C167.638 166.409 169.373 160.177 171.052 153.887C171.22 153.181 171.5 152.476 171.892 151.888C172.843 150.536 174.634 150.124 176.09 150.712C177.601 151.3 178.609 152.829 178.385 154.534C178.217 156.238 177.769 157.885 177.377 159.531C175.978 166.174 174.578 172.817 173.179 179.46C172.787 181.4 172.843 185.927 173.291 188.161Z" fill="white"/>
<path d="M238.333 181.812C240.18 180.46 241.523 178.931 242.475 176.991C246.337 169.525 248.464 161.412 250.367 153.24C250.703 151.888 250.927 150.477 251.318 149.184C251.934 146.95 254.061 145.715 256.132 146.303C258.147 146.891 259.547 149.36 258.987 151.535C257.42 157.708 255.74 163.881 254.229 170.113C253.445 173.229 253.11 176.521 252.382 179.637C251.934 181.518 251.206 183.458 250.367 185.163C249.639 186.691 248.464 187.103 246.952 186.397C245.721 185.809 244.993 186.28 244.21 187.103C242.027 189.454 239.396 190.336 236.317 189.572C233.351 188.866 231.448 186.926 230.496 183.811C229.265 179.754 229.713 175.639 230.104 171.524C230.328 169.348 230.664 167.114 231.168 164.998C231.952 161.353 232.959 157.708 233.855 154.063C234.134 152.829 234.414 151.594 234.75 150.418C235.31 148.655 236.206 148.067 237.941 148.184C241.299 148.42 243.314 151.418 242.419 154.945C241.747 157.591 240.907 160.177 240.236 162.823C239.004 167.585 238.165 172.464 237.773 177.403C237.661 178.872 237.269 180.283 238.333 181.812Z" fill="white"/>
<path d="M197.863 180.342C198.423 180.107 198.871 179.93 199.263 179.754C203.293 177.755 207.547 176.991 211.913 176.344C213.144 176.168 213.816 176.638 213.984 177.932C214.152 179.225 214.04 180.577 213.816 181.87C213.648 182.929 212.696 183.281 211.801 183.517C207.603 184.634 203.685 186.456 200.046 188.866C197.975 190.219 195.96 191.747 193.945 193.276C191.874 194.804 191.37 194.745 189.747 192.688C189.523 192.394 189.299 192.1 189.075 191.865C187.116 190.042 187.06 187.808 187.788 185.398C188.852 181.635 190.083 177.932 191.035 174.169C192.154 169.76 192.994 165.233 194.001 160.824C194.841 157.003 195.736 153.24 196.52 149.419C196.968 147.244 197.36 145.069 197.695 142.893C198.087 140.013 199.431 138.719 202.229 138.719C203.741 138.719 205.308 140.248 205.476 142.188C205.588 143.364 205.476 144.539 205.252 145.715C204.132 151.124 202.957 156.532 201.781 161.941C200.494 167.82 199.151 173.758 197.863 179.636C197.695 179.754 197.807 179.872 197.863 180.342Z" fill="white"/>
</svg>
